<svg width="48" height="48" viewBox="0 0 48 48" fill="none" xmlns="http://www.w3.org/2000/svg">
<path d="M12.3273 1.75C12.3273 0.783502 13.1108 0 14.0773 0C15.0438 0 15.8273 0.783502 15.8273 1.75V5.25586C18.3718 5.17579 20.9874 5.13379 23.7501 5.13379C26.5132 5.13379 29.1292 5.17577 31.674 5.25586V1.75C31.674 0.783502 32.4575 0 33.424 0C34.3905 0 35.174 0.783502 35.174 1.75V5.39062C41.252 5.67699 46.1958 10.302 46.88 16.1797C47.707 23.2821 47.707 29.3518 46.88 36.4541C46.1954 42.3349 41.2466 46.9611 35.1642 47.2432C31.5158 47.4124 27.7903 47.5 23.7501 47.5C19.71 47.5 15.9845 47.4124 12.3361 47.2432C6.2537 46.9611 1.30498 42.3349 0.620244 36.4541C-0.206758 29.3518 -0.206738 23.2821 0.620244 16.1797C1.30464 10.3018 6.24885 5.6766 12.3273 5.39062V1.75ZM23.7501 31.7998C24.7166 31.7998 25.5001 32.5833 25.5001 33.5498C25.4999 34.5161 24.7165 35.2998 23.7501 35.2998H13.1906C12.2242 35.2998 11.4408 34.5161 11.4406 33.5498C11.4406 32.5833 12.2241 31.7998 13.1906 31.7998H23.7501ZM34.3107 21.2393C35.2772 21.2393 36.0607 22.0228 36.0607 22.9893C36.0607 23.9557 35.2772 24.7393 34.3107 24.7393H13.1906C12.2241 24.7393 11.4406 23.9557 11.4406 22.9893C11.4406 22.0228 12.2241 21.2393 13.1906 21.2393H34.3107ZM31.674 11.4297V8.75684C29.1321 8.67564 26.5173 8.63379 23.7501 8.63379C20.9833 8.63379 18.3688 8.67566 15.8273 8.75684V11.4297C15.8273 12.3962 15.0438 13.1797 14.0773 13.1797C13.1108 13.1797 12.3273 12.3962 12.3273 11.4297V8.89844C8.01322 9.17959 4.57419 12.4849 4.09681 16.584C3.30112 23.4174 3.30116 29.2156 4.09681 36.0488C4.58038 40.2021 8.10421 43.5433 12.4982 43.7471C16.0908 43.9137 19.7622 44 23.7501 44C27.738 44 31.4095 43.9137 35.0021 43.7471C39.3959 43.5433 42.9198 40.2028 43.4034 36.0498V36.0488C44.1991 29.2156 44.1991 23.4174 43.4034 16.584C42.9263 12.4852 39.4877 9.17998 35.174 8.89844V11.4297C35.174 12.3962 34.3905 13.1797 33.424 13.1797C32.4575 13.1797 31.674 12.3962 31.674 11.4297Z" fill="#0E172B"/>
</svg>
