<svg width="86" height="86" viewBox="0 0 86 86" fill="none" xmlns="http://www.w3.org/2000/svg">
<path fill-rule="evenodd" clip-rule="evenodd" d="M37.1708 0.0874892C31.285 0.284794 17.455 1.30881 14.7803 1.74533C8.60166 2.75378 3.52546 7.43125 1.92394 13.5918C1.41624 15.5447 0.515919 22.7046 0.113534 27.9886C-0.0368417 29.9639 -0.0381316 36.4297 0.111415 38.3512C0.457501 42.7958 1.01846 47.598 1.6125 51.2009C2.21198 54.8371 3.60701 57.553 6.20339 60.1388C8.80428 62.7292 11.7343 64.1887 15.3386 64.6893C17.3671 64.9711 28.2453 65.8244 33.0244 66.0766C36.5328 66.2618 42.7782 66.3984 43.4554 66.3049C44.1516 66.2087 44.7545 65.8987 45.2972 65.358C45.849 64.8083 46.0689 64.3854 46.2027 63.6169C46.3981 62.4961 46.0413 61.4501 45.1933 60.6571C44.4651 59.9762 44.0478 59.8262 42.7914 59.7938C35.2878 59.6001 32.6616 59.483 27.6801 59.1199C23.5557 58.8192 16.4395 58.2056 15.7938 58.095C12.9322 57.6046 10.3173 55.621 8.95189 52.905C8.37094 51.7493 8.08244 50.2688 7.41414 45.0122C6.28558 36.1368 6.29608 30.1862 7.45615 21.0341C8.1216 15.7838 8.30054 14.875 8.93024 13.5461C9.46024 12.4276 9.97062 11.7243 10.9236 10.799C12.2251 9.53547 13.6063 8.76172 15.2587 8.37071C16.5537 8.06434 27.2385 7.19167 34.6829 6.78425C37.5809 6.62573 48.3706 6.62573 51.2685 6.78425C58.713 7.19167 69.3978 8.06434 70.6927 8.37071C72.3452 8.76172 73.7264 9.53547 75.0278 10.799C75.4513 11.2101 75.9806 11.8013 76.2041 12.1128C76.7682 12.899 77.395 14.2625 77.6183 15.189C77.8433 16.1228 78.4457 20.3981 78.7664 23.3369C79.1283 26.6538 79.1807 26.9807 79.4308 27.4818C79.8232 28.2679 80.6256 28.9602 81.4143 29.1929C81.9596 29.3538 82.9761 29.306 83.5469 29.0925C84.2334 28.8357 84.9999 28.1341 85.3294 27.4608C85.7039 26.6956 85.7109 25.8759 85.3682 22.8556C85.02 19.7852 84.4987 15.9481 84.2449 14.5862C83.0244 8.03689 77.7043 2.81162 71.1712 1.74533C69.4312 1.46135 59.0365 0.611794 53.6181 0.310678C47.9535 -0.00416258 42.2231 -0.0819057 37.1708 0.0874892ZM21.074 14.541C19.6471 14.7494 18.4691 15.9967 18.3159 17.4612C18.1723 18.8353 18.9418 20.184 20.2166 20.7923L20.7234 21.0341H40.3036H59.8838L60.3912 20.7849C61.3394 20.3194 62.0292 19.4483 62.2333 18.4591C62.4599 17.3608 62.1341 16.274 61.3408 15.4816C60.7969 14.9386 60.2114 14.6456 59.4497 14.5355C58.7501 14.4344 21.7676 14.4396 21.074 14.541ZM20.7023 30.1552C19.5733 30.4631 18.6405 31.4352 18.3731 32.5826C18.0521 33.9605 18.7591 35.531 20.006 36.2094C20.7863 36.634 21.2274 36.6593 27.3116 36.629L32.9783 36.6007L33.5125 36.3854C34.1249 36.1385 34.9247 35.4144 35.2166 34.8425C35.3205 34.639 35.4521 34.2156 35.509 33.9018C35.7792 32.4119 35.0113 30.9707 33.5934 30.3061L33.0705 30.0611L27.1273 30.0425C22.225 30.0272 21.0997 30.0469 20.7023 30.1552ZM66.8405 32.0526C62.5005 32.3099 58.4378 34.1557 55.3213 37.2858C48.5938 44.0428 48.2853 54.7307 54.6105 61.9099L55.1591 62.5327L54.9876 64.9036C54.7466 68.2327 54.742 77.3501 54.9797 80.3638C55.1566 82.6068 55.2508 83.0395 55.7399 83.8548C56.1638 84.5616 56.5717 84.9786 57.2265 85.3754C58.5115 86.1539 60.1236 86.2082 61.485 85.5185C61.7304 85.3943 63.2949 84.1921 64.9618 82.8472C66.6285 81.5022 68.021 80.4119 68.0561 80.4242C68.0912 80.4366 69.3762 81.4617 70.9118 82.7023C74.0082 85.2039 74.4886 85.5488 75.2255 85.7998C75.9266 86.0386 77.2014 86.035 77.9436 85.7922C79.1115 85.4101 80.2271 84.3503 80.6494 83.2221C81.0785 82.0754 81.2612 78.8834 81.2589 72.571C81.2575 68.7036 81.2194 67.0115 81.0925 65.202C81.002 63.9101 80.9097 62.7985 80.8875 62.7318C80.8653 62.665 81.1268 62.2872 81.4686 61.892C85.2717 57.4955 86.7657 51.901 85.6276 46.3189C84.8405 42.4592 82.6473 38.7614 79.6729 36.2795C75.9809 33.1989 71.6375 31.7682 66.8405 32.0526ZM66.7023 38.6882C62.9837 39.1054 59.5693 41.5121 57.8644 44.9178C56.558 47.5274 56.3333 50.76 57.2652 53.5406C57.9736 55.6544 59.4621 57.731 61.2199 59.0578C63.3842 60.6915 66.3793 61.5292 69.075 61.2547C71.8463 60.9725 74.089 59.9058 76.0605 57.9322C77.5884 56.4025 78.4632 54.8849 79.0376 52.7668C79.6032 50.6808 79.4259 47.8725 78.5962 45.7791C77.2737 42.442 74.3042 39.841 70.8026 38.9527C69.4793 38.617 68.1196 38.5293 66.7023 38.6882ZM67.1489 44.7561C65.0861 45.1253 63.2914 46.8227 62.8868 48.7875C62.7456 49.473 62.7641 50.5887 62.9282 51.2845C63.4814 53.6307 65.9723 55.4227 68.3878 55.2119C70.5354 55.0246 72.2825 53.7045 72.9992 51.7274C73.2087 51.1494 73.2402 50.9186 73.2402 49.9574C73.2402 48.9962 73.2087 48.7654 72.9992 48.1873C72.434 46.6283 71.1038 45.3716 69.5225 44.9025C68.8924 44.7156 67.7641 44.646 67.1489 44.7561ZM61.4636 67.5502C61.3576 69.0993 61.3037 74.1761 61.3772 75.6906L61.4502 77.1982L63.0627 75.8928C65.2905 74.0893 66.3736 73.5875 68.0384 73.5875C69.7022 73.5875 70.6923 74.0435 72.9096 75.831C73.8275 76.5711 74.5934 77.1766 74.6115 77.1766C74.7641 77.1766 74.695 66.9438 74.5414 66.7902C74.5228 66.7717 74.0368 66.903 73.4614 67.0819C69.8598 68.2022 65.8981 68.1823 62.4371 67.0266L61.5203 66.7205L61.4636 67.5502Z" fill="#2B7FFF"/>
</svg>
