<svg width="72" height="72" viewBox="0 0 72 72" fill="none" xmlns="http://www.w3.org/2000/svg">
<path d="M50.687 57.9772H20.9103C20.9103 55.9267 19.248 54.2645 17.1975 54.2645V13.3309C19.248 13.3309 20.9103 11.6687 20.9103 9.61816H50.687C50.687 11.6687 52.3492 13.3309 54.3997 13.3309V54.2645C52.3492 54.2645 50.687 55.9268 50.687 57.9772Z" fill="white"/>
<path d="M63.7004 13.3423H58.1201V8.69204C58.1201 7.15113 59.3693 5.90186 60.9103 5.90186C62.4512 5.90186 63.7005 7.15101 63.7005 8.69204V13.3423H63.7004Z" fill="white"/>
<path d="M7.90124 54.2622H13.4815V58.9125C13.4815 60.4534 12.2323 61.7027 10.6913 61.7027C9.1504 61.7027 7.90112 60.4535 7.90112 58.9125L7.90124 54.2622Z" fill="white"/>
<path d="M31.1509 52.9919V65.4182L35.8014 61.698L40.4519 65.4182V52.9919H31.1509Z" fill="#E32729"/>
<path d="M35.7981 54.258C40.9346 54.258 45.0986 50.0941 45.0986 44.9575C45.0986 39.821 40.9346 35.657 35.7981 35.657C30.6615 35.657 26.4976 39.821 26.4976 44.9575C26.4976 50.0941 30.6615 54.258 35.7981 54.258Z" fill="#FFE177"/>
<path d="M32.4858 44.9575C32.4858 40.8689 35.1252 37.3992 38.7922 36.1525C37.8523 35.8329 36.846 35.657 35.7981 35.657C30.6616 35.657 26.4976 39.821 26.4976 44.9575C26.4976 50.094 30.6616 54.258 35.7981 54.258C36.846 54.258 37.8523 54.0821 38.7922 53.7626C35.1252 52.5158 32.4858 49.0461 32.4858 44.9575Z" fill="#FED15B"/>
<path d="M35.7995 50.5389C38.8814 50.5389 41.3797 48.0405 41.3797 44.9587C41.3797 41.8768 38.8814 39.3784 35.7995 39.3784C32.7176 39.3784 30.2192 41.8768 30.2192 44.9587C30.2192 48.0405 32.7176 50.5389 35.7995 50.5389Z" fill="#F8C146"/>
<path d="M35.0099 44.9587C35.0099 42.7343 36.3117 40.8143 38.1948 39.9178C37.4689 39.5723 36.6569 39.3784 35.7995 39.3784C32.7176 39.3784 30.2192 41.8769 30.2192 44.9587C30.2192 48.0405 32.7177 50.5389 35.7995 50.5389C36.6569 50.5389 37.4689 50.345 38.1948 49.9995C36.3117 49.103 35.0099 47.1831 35.0099 44.9587Z" fill="#EDAD2E"/>
<path d="M60.9112 5H17.2162C14.66 5 12.5802 7.07974 12.5802 9.63592V18.7622C12.5802 19.2583 12.9822 19.6605 13.4784 19.6605C13.9746 19.6605 14.3767 19.2583 14.3767 18.7622V9.63592C14.3767 8.07033 15.6505 6.7965 17.2162 6.7965H57.746C56.8674 8.264 57.3497 6.33168 57.2229 57.9443C57.2229 59.5188 55.9421 60.7996 54.3676 60.7996H41.3485V58.8757H50.688C51.1842 58.8757 51.5863 58.4736 51.5863 57.9775C51.5863 56.4256 52.8489 55.163 54.4008 55.163C54.897 55.163 55.2991 54.7608 55.2991 54.2647V36.7926C55.2991 36.2965 54.897 35.8944 54.4008 35.8944C53.9046 35.8944 53.5026 36.2965 53.5026 36.7926V53.4544C51.6791 53.8158 50.239 55.2559 49.8776 57.0794H41.3484V53.5112C44.1445 51.6904 45.9984 48.5389 45.9984 44.9607C45.9984 39.337 41.4233 34.7618 35.7996 34.7618C30.176 34.7618 25.6009 39.337 25.6009 44.9607C25.6009 48.5389 27.4548 51.6904 30.2509 53.5112V57.0794H21.7217C21.3602 55.2559 19.9203 53.8158 18.0967 53.4544V14.1417C19.9203 13.7802 21.3602 12.3401 21.7217 10.5167H49.8776C50.239 12.3401 51.679 13.7802 53.5026 14.1417V32.8778C53.5026 33.3739 53.9046 33.776 54.4008 33.776C54.897 33.776 55.2991 33.3739 55.2991 32.8778V13.3312C55.2991 12.8351 54.897 12.4329 54.4008 12.4329C52.8489 12.4329 51.5863 11.1704 51.5863 9.61843C51.5863 9.12236 51.1842 8.72019 50.688 8.72019H20.9115C20.4153 8.72019 20.0132 9.12236 20.0132 9.61843C20.0132 11.1704 18.7506 12.4329 17.1987 12.4329C16.7025 12.4329 16.3005 12.8351 16.3005 13.3312V54.2647C16.3005 54.7608 16.7025 55.163 17.1987 55.163C18.7506 55.163 20.0132 56.4256 20.0132 57.9775C20.0132 58.4736 20.4153 58.8757 20.9115 58.8757H30.251V60.7994C30.0899 60.7994 14.0142 60.8031 13.8535 60.8031C14.6219 59.5198 14.3066 58.9863 14.3768 54.2609C14.3768 54.2601 14.3767 54.2593 14.3767 54.2586V22.6392C14.3767 22.1431 13.9746 21.741 13.4784 21.741C12.9822 21.741 12.5802 22.1431 12.5802 22.6392V53.3628H7.89825C7.40206 53.3628 7 53.7649 7 54.261V58.9113C7 60.9442 8.65338 62.5983 10.6861 62.5996C10.6869 62.5996 10.6876 62.5998 10.6884 62.5998C36.0787 62.5917 16.3239 62.5982 30.2511 62.596V65.4218C30.2511 65.7671 30.449 66.0818 30.7602 66.2314C31.0714 66.381 31.441 66.339 31.7105 66.1233L35.8 62.852L39.8895 66.1233C40.159 66.339 40.5285 66.381 40.8398 66.2314C41.151 66.0818 41.3489 65.7671 41.3489 65.4218V62.596H54.3679C56.9328 62.596 59.0196 60.5094 59.0196 57.9443V14.237H63.7018C64.1979 14.237 64.6 13.8348 64.6 13.3387V8.68845C64.5996 6.65457 62.9451 5 60.9112 5ZM8.7965 58.9113V55.1593H12.5803V58.9113C12.5803 59.4524 12.3507 59.9399 11.9853 60.285C11.6462 60.6053 11.1905 60.8031 10.6884 60.8031C9.64516 60.8033 8.7965 59.9545 8.7965 58.9113ZM27.3975 44.9606C27.3975 40.3275 31.1668 36.5582 35.7998 36.5582C40.4327 36.5582 44.202 40.3275 44.202 44.9606C44.202 49.6008 40.4229 53.3628 35.7998 53.3628C31.167 53.3628 27.3975 49.5914 27.3975 44.9606ZM39.552 63.553L36.3607 61.0003C36.0328 60.7379 35.5666 60.7379 35.2387 61.0003L32.0474 63.553V54.441C33.2097 54.9027 34.4749 55.1594 35.7996 55.1594C37.1244 55.1594 38.3896 54.9027 39.5519 54.441V63.553H39.552ZM62.8031 12.4405H59.0192V8.68845C59.0192 7.64528 59.868 6.7965 60.9112 6.7965C61.9544 6.7965 62.8031 7.64516 62.8031 8.68845V12.4405Z" fill="#1D376C"/>
<path d="M46.959 18.0234H24.6378C24.1416 18.0234 23.7395 18.4256 23.7395 18.9217C23.7395 19.4178 24.1416 19.8199 24.6378 19.8199H46.959C47.4552 19.8199 47.8572 19.4178 47.8572 18.9217C47.8572 18.4256 47.4551 18.0234 46.959 18.0234Z" fill="#1BA7E0"/>
<path d="M46.959 21.7397H24.6378C24.1416 21.7397 23.7395 22.1419 23.7395 22.638C23.7395 23.1341 24.1416 23.5362 24.6378 23.5362H46.959C47.4552 23.5362 47.8572 23.1341 47.8572 22.638C47.8572 22.1419 47.4551 21.7397 46.959 21.7397Z" fill="#1BA7E0"/>
<path d="M47.8572 26.3594C47.8572 25.8634 47.4552 25.4612 46.959 25.4612H24.6378C24.1416 25.4612 23.7395 25.8634 23.7395 26.3594C23.7395 26.8555 24.1416 27.2577 24.6378 27.2577H46.959C47.4551 27.2577 47.8572 26.8555 47.8572 26.3594Z" fill="#1BA7E0"/>
<path d="M35.7983 51.4417C39.3706 51.4417 42.2769 48.5355 42.2769 44.9632C42.2769 41.3909 39.3706 38.4846 35.7983 38.4846C34.6739 38.4846 33.5661 38.7774 32.5943 39.3314C32.1633 39.577 32.013 40.1255 32.2588 40.5564C32.5044 40.9875 33.0529 41.1378 33.4838 40.892C34.1851 40.4924 34.9853 40.2811 35.7982 40.2811C38.38 40.2811 40.4803 42.3816 40.4803 44.9632C40.4803 47.5449 38.38 49.6452 35.7982 49.6452C33.2164 49.6452 31.1161 47.5449 31.1161 44.9632C31.1161 44.3594 31.2291 43.7718 31.4524 43.217C31.6374 42.7568 31.4144 42.2336 30.954 42.0486C30.4945 41.8638 29.9707 42.0865 29.7855 42.547C29.4764 43.3157 29.3196 44.1288 29.3196 44.9633C29.3198 48.5355 32.2261 51.4417 35.7983 51.4417Z" fill="#1D376C"/>
</svg>
