<svg width="59" height="62" viewBox="0 0 59 62" fill="none" xmlns="http://www.w3.org/2000/svg">
<path d="M44.3871 53.5168H14.6104C14.6104 51.4663 12.9482 49.804 10.8977 49.804V8.87048C12.9482 8.87048 14.6104 7.20824 14.6104 5.15772H44.3871C44.3871 7.20824 46.0494 8.87048 48.0999 8.87048V49.804C46.0494 49.804 44.3871 51.4664 44.3871 53.5168Z" fill="white"/>
<path d="M57.4005 8.88186H51.8203V4.23159C51.8203 2.69068 53.0694 1.44141 54.6104 1.44141C56.1514 1.44141 57.4006 2.69056 57.4006 4.23159L57.4005 8.88186Z" fill="white"/>
<path d="M1.60144 49.8018H7.18168V54.452C7.18168 55.9929 5.93253 57.2422 4.3915 57.2422C2.85059 57.2422 1.60132 55.993 1.60132 54.452L1.60144 49.8018Z" fill="white"/>
<path d="M24.8512 48.5313V60.9576L29.5017 57.2374L34.1522 60.9576V48.5313H24.8512Z" fill="#E32729"/>
<path d="M29.4983 49.7976C34.6348 49.7976 38.7988 45.6336 38.7988 40.497C38.7988 35.3605 34.6348 31.1965 29.4983 31.1965C24.3618 31.1965 20.1978 35.3605 20.1978 40.497C20.1978 45.6336 24.3618 49.7976 29.4983 49.7976Z" fill="#FFE177"/>
<path d="M26.1861 40.497C26.1861 36.4085 28.8255 32.9387 32.4924 31.692C31.5525 31.3724 30.5462 31.1965 29.4983 31.1965C24.3618 31.1965 20.1978 35.3605 20.1978 40.497C20.1978 45.6336 24.3618 49.7976 29.4983 49.7976C30.5462 49.7976 31.5525 49.6216 32.4924 49.3021C28.8255 48.0553 26.1861 44.5856 26.1861 40.497Z" fill="#FED15B"/>
<path d="M29.4997 46.0785C32.5816 46.0785 35.0799 43.5801 35.0799 40.4982C35.0799 37.4163 32.5816 34.918 29.4997 34.918C26.4178 34.918 23.9194 37.4163 23.9194 40.4982C23.9194 43.5801 26.4178 46.0785 29.4997 46.0785Z" fill="#F8C146"/>
<path d="M28.7101 40.4982C28.7101 38.2738 30.0119 36.3538 31.895 35.4574C31.1691 35.1119 30.3571 34.918 29.4997 34.918C26.4178 34.918 23.9194 37.4163 23.9194 40.4982C23.9194 43.5801 26.4178 46.0785 29.4997 46.0785C30.3571 46.0785 31.1691 45.8846 31.895 45.539C30.0119 44.6426 28.7101 42.7226 28.7101 40.4982Z" fill="#EDAD2E"/>
<path d="M54.6114 0.539795H10.9164C8.36022 0.539795 6.28035 2.61954 6.28035 5.17571V14.302C6.28035 14.7981 6.68241 15.2003 7.1786 15.2003C7.6748 15.2003 8.07685 14.7981 8.07685 14.302V5.17571C8.07685 3.61013 9.35069 2.33629 10.9164 2.33629H51.4462C50.5676 3.80379 51.0499 1.87148 50.9231 53.4841C50.9231 55.0586 49.6423 56.3393 48.0678 56.3393H35.0487V54.4155H44.3882C44.8844 54.4155 45.2865 54.0134 45.2865 53.5173C45.2865 51.9654 46.5491 50.7028 48.101 50.7028C48.5972 50.7028 48.9993 50.3006 48.9993 49.8045V32.3324C48.9993 31.8363 48.5972 31.4341 48.101 31.4341C47.6048 31.4341 47.2028 31.8363 47.2028 32.3324V48.9942C45.3793 49.3556 43.9392 50.7957 43.5778 52.6192H35.0486V49.051C37.8447 47.2301 39.6985 44.0787 39.6985 40.5005C39.6985 34.8768 35.1235 30.3016 29.4998 30.3016C23.8762 30.3016 19.3011 34.8768 19.3011 40.5005C19.3011 44.0787 21.155 47.2301 23.9511 49.051V52.6192H15.4219C15.0604 50.7957 13.6205 49.3556 11.7969 48.9942V9.68145C13.6205 9.31999 15.0604 7.87992 15.4219 6.05648H43.5778C43.9392 7.87992 45.3792 9.31999 47.2028 9.68145V28.4176C47.2028 28.9137 47.6048 29.3158 48.101 29.3158C48.5972 29.3158 48.9993 28.9137 48.9993 28.4176V8.87099C48.9993 8.37492 48.5972 7.97274 48.101 7.97274C46.5491 7.97274 45.2865 6.71016 45.2865 5.15823C45.2865 4.66216 44.8844 4.25998 44.3882 4.25998H14.6117C14.1155 4.25998 13.7134 4.66216 13.7134 5.15823C13.7134 6.71016 12.4508 7.97274 10.8989 7.97274C10.4027 7.97274 10.0007 8.37492 10.0007 8.87099V49.8045C10.0007 50.3006 10.4027 50.7028 10.8989 50.7028C12.4508 50.7028 13.7134 51.9654 13.7134 53.5173C13.7134 54.0134 14.1155 54.4155 14.6117 54.4155H23.9512V56.3392C23.7901 56.3392 7.71444 56.3429 7.55371 56.3429C8.32213 55.0596 8.00679 54.5261 8.07697 49.8007C8.07697 49.7999 8.07685 49.7991 8.07685 49.7984V18.179C8.07685 17.6829 7.6748 17.2808 7.1786 17.2808C6.68241 17.2808 6.28035 17.6829 6.28035 18.179V48.9026H1.59844C1.10225 48.9026 0.700195 49.3047 0.700195 49.8008V54.4511C0.700195 56.484 2.35357 58.1381 4.38625 58.1394C4.38709 58.1394 4.3878 58.1396 4.38864 58.1396C29.7789 58.1315 10.0241 58.138 23.9513 58.1358V60.9616C23.9513 61.3069 24.1492 61.6216 24.4604 61.7712C24.7716 61.9208 25.1412 61.8788 25.4107 61.6631L29.5002 58.3918L33.5897 61.6631C33.8592 61.8788 34.2287 61.9208 34.54 61.7712C34.8512 61.6216 35.0491 61.3069 35.0491 60.9616V58.1358H48.0681C50.633 58.1358 52.7198 56.0491 52.7198 53.4841V9.77678H57.4019C57.8981 9.77678 58.3002 9.37461 58.3002 8.87853V4.22824C58.2998 2.19437 56.6453 0.539795 54.6114 0.539795ZM2.49669 54.4511V50.6991H6.28047V54.4511C6.28047 54.9922 6.05088 55.4797 5.68547 55.8248C5.34642 56.1451 4.8907 56.3429 4.38864 56.3429C3.34536 56.3431 2.49669 55.4943 2.49669 54.4511ZM21.0977 40.5004C21.0977 35.8673 24.867 32.098 29.5 32.098C34.1329 32.098 37.9022 35.8673 37.9022 40.5004C37.9022 45.1406 34.1231 48.9026 29.5 48.9026C24.8671 48.9026 21.0977 45.1312 21.0977 40.5004ZM33.2522 59.0928L30.0609 56.5401C29.733 56.2777 29.2668 56.2777 28.9389 56.5401L25.7476 59.0928V49.9808C26.9099 50.4425 28.1751 50.6992 29.4998 50.6992C30.8246 50.6992 32.0898 50.4425 33.2521 49.9808L33.2522 59.0928ZM56.5033 7.98029H52.7194V4.22824C52.7194 3.18508 53.5682 2.33629 54.6114 2.33629C55.6546 2.33629 56.5033 3.18496 56.5033 4.22824V7.98029Z" fill="#1D376C"/>
<path d="M40.6593 13.5631H18.338C17.8419 13.5631 17.4398 13.9653 17.4398 14.4614C17.4398 14.9574 17.8419 15.3596 18.338 15.3596H40.6593C41.1555 15.3596 41.5575 14.9574 41.5575 14.4614C41.5575 13.9653 41.1553 13.5631 40.6593 13.5631Z" fill="#1BA7E0"/>
<path d="M40.6593 17.2794H18.338C17.8419 17.2794 17.4398 17.6816 17.4398 18.1777C17.4398 18.6737 17.8419 19.0759 18.338 19.0759H40.6593C41.1555 19.0759 41.5575 18.6737 41.5575 18.1777C41.5575 17.6816 41.1553 17.2794 40.6593 17.2794Z" fill="#1BA7E0"/>
<path d="M41.5575 21.8993C41.5575 21.4032 41.1555 21.001 40.6593 21.001H18.338C17.8419 21.001 17.4398 21.4032 17.4398 21.8993C17.4398 22.3953 17.8419 22.7975 18.338 22.7975H40.6593C41.1553 22.7975 41.5575 22.3953 41.5575 21.8993Z" fill="#1BA7E0"/>
<path d="M29.4984 46.9814C33.0707 46.9814 35.977 44.0752 35.977 40.5029C35.977 36.9306 33.0707 34.0243 29.4984 34.0243C28.374 34.0243 27.2662 34.3172 26.2944 34.8711C25.8634 35.1167 25.7131 35.6653 25.9588 36.0962C26.2045 36.5272 26.753 36.6775 27.1839 36.4318C27.8852 36.0321 28.6854 35.8208 29.4983 35.8208C32.0801 35.8208 34.1804 37.9213 34.1804 40.5029C34.1804 43.0846 32.0801 45.185 29.4983 45.185C26.9165 45.185 24.8162 43.0846 24.8162 40.5029C24.8162 39.8991 24.9292 39.3115 25.1525 38.7568C25.3375 38.2965 25.1145 37.7734 24.6541 37.5883C24.1946 37.4035 23.6708 37.6262 23.4856 38.0867C23.1765 38.8555 23.0197 39.6685 23.0197 40.5031C23.0199 44.0752 25.9262 46.9814 29.4984 46.9814Z" fill="#1D376C"/>
</svg>
