<svg width="72" height="72" viewBox="0 0 72 72" fill="none" xmlns="http://www.w3.org/2000/svg">
<g clip-path="url(#clip0_2214_228)">
<path d="M26.5704 37.681C26.9003 37.681 27.2302 37.5551 27.4818 37.3034C27.9854 36.8 27.9854 35.9838 27.482 35.4803L26.875 34.8734C26.3719 34.3701 25.5555 34.3699 25.052 34.8734C24.5484 35.3768 24.5485 36.1929 25.0519 36.6965L25.6588 37.3034C25.9105 37.5551 26.2404 37.681 26.5704 37.681Z" fill="#1D376C"/>
<path d="M32.3997 40.3983L31.6414 39.64C31.138 39.1366 30.3219 39.1366 29.8183 39.64C29.3148 40.1434 29.3148 40.9597 29.8182 41.4631L30.5765 42.2213C30.8282 42.4731 31.1581 42.5989 31.488 42.5989C31.8179 42.5989 32.1478 42.473 32.3994 42.2213C32.9031 41.7179 32.9031 40.9017 32.3997 40.3983Z" fill="#1D376C"/>
<path d="M34.6146 44.4361C34.1112 44.9395 34.1112 45.7558 34.6146 46.2592L35.4645 47.1089C35.7162 47.3606 36.046 47.4864 36.3759 47.4864C36.7058 47.4864 37.0358 47.3605 37.2875 47.1089C37.7909 46.6055 37.7909 45.7892 37.2875 45.2858L36.4375 44.4361C35.9343 43.9327 35.1179 43.9327 34.6146 44.4361Z" fill="#1D376C"/>
<path d="M67.261 20.5807L62.9989 16.3188C62.7571 16.0771 62.4292 15.9412 62.0874 15.9412C61.7455 15.9412 61.4176 16.0771 61.1758 16.3188C60.4453 17.0493 59.474 17.4518 58.4406 17.4518C57.4074 17.4518 56.4359 17.0493 55.7054 16.3188C54.1972 14.8105 54.1972 12.3564 55.7054 10.8482C56.2088 10.3448 56.2088 9.5285 55.7054 9.0251L51.4203 4.74008C49.1017 2.4216 45.3287 2.4216 43.0101 4.74008L21.1993 26.5511C20.9576 26.7928 20.8218 27.1207 20.8218 27.4625L20.8216 30.6432H17.6411C17.2993 30.6432 16.9714 30.779 16.7296 31.0208L4.74185 43.0085C3.61865 44.1317 3 45.625 3 47.2136C3 48.8022 3.61865 50.2955 4.74185 51.4187L9.02687 55.7038C9.5304 56.2074 10.3464 56.2074 10.8501 55.7038C11.5806 54.9733 12.5521 54.5708 13.5853 54.5708C14.6187 54.5708 15.59 54.9732 16.3206 55.7038C17.0512 56.4344 17.4536 57.4059 17.4536 58.4391C17.4536 59.4723 17.0512 60.4437 16.3206 61.1743C16.0788 61.416 15.943 61.744 15.943 62.0859C15.943 62.4277 16.0788 62.7557 16.3206 62.9974L20.5826 67.2593C21.7421 68.4186 23.2649 68.9984 24.7877 68.9984C26.3106 68.9984 27.8335 68.4186 28.9928 67.2593L40.9806 55.2716C41.2223 55.0299 41.3581 54.7019 41.3581 54.3601V51.1796H44.5387C44.8805 51.1796 45.2083 51.0437 45.4502 50.802L53.2451 43.0071C53.7485 42.5037 53.7485 41.6874 53.2451 41.184C52.7415 40.6806 51.9255 40.6806 51.4219 41.184L44.0046 48.6013H40.069C39.3572 48.6013 38.7799 49.1785 38.7799 49.8904V53.8261L27.1698 65.4363C25.8565 66.7496 23.7192 66.7497 22.4058 65.4363L18.9648 61.9954C19.6592 60.9496 20.0319 59.723 20.0319 58.4392C20.0319 56.7173 19.3615 55.0985 18.1439 53.8809C16.9263 52.6633 15.3074 51.9927 13.5856 51.9927C12.3017 51.9927 11.075 52.3655 10.0294 53.0599L6.56531 49.5956C5.25196 48.2823 5.25196 46.145 6.56531 44.8317L18.1755 33.2215H22.111C22.8229 33.2215 23.4001 32.6444 23.4001 31.9324L23.4003 27.9966L44.8333 6.56327C46.1467 5.24979 48.2839 5.24992 49.5973 6.56327L53.0624 10.0284C51.4076 12.5301 51.681 15.9406 53.8823 18.142C55.0999 19.3595 56.7189 20.03 58.4406 20.03C59.7246 20.03 60.9512 19.6572 61.9968 18.9629L65.4378 22.4038C66.7511 23.7173 66.7511 25.8545 65.4378 27.1678L59.6227 32.9829C59.1193 33.4863 59.1193 34.3026 59.6227 34.8061C60.1262 35.3095 60.9423 35.3096 61.4459 34.8061L67.261 28.991C69.5796 26.6723 69.5797 22.8996 67.261 20.5807Z" fill="#1D376C"/>
<path d="M41.7897 19.9554C41.1039 20.1463 40.7026 20.8571 40.8935 21.5429L45.0754 36.5677C45.2341 37.138 45.7522 37.5114 46.3165 37.5114C46.431 37.5114 46.5474 37.4961 46.663 37.4639C47.3489 37.2729 47.7502 36.5621 47.5592 35.8763L43.3774 20.8516C43.1864 20.1657 42.4757 19.7648 41.7897 19.9554Z" fill="#E32729"/>
<path d="M49.0123 24.7598C47.5044 26.2678 47.5043 28.7215 49.0123 30.2298C49.7664 30.9838 50.7567 31.3607 51.7473 31.3607C52.7378 31.3607 53.7281 30.9837 54.4823 30.2297C55.9903 28.7215 55.9902 26.2678 54.4823 24.7598C53.7517 24.0293 52.7805 23.627 51.7473 23.627C50.7141 23.627 49.7428 24.0293 49.0123 24.7598ZM52.6591 28.4066C52.1563 28.9095 51.3383 28.9094 50.8355 28.4066C50.3327 27.9039 50.3327 27.0856 50.8355 26.5829C51.0791 26.3394 51.4028 26.2052 51.7473 26.2052C52.0917 26.2052 52.4156 26.3394 52.6591 26.5829C53.1618 27.0856 53.1618 27.9039 52.6591 28.4066Z" fill="#E32729"/>
<path d="M39.5475 25.213C38.8169 24.4824 37.8457 24.0801 36.8125 24.0801C35.7792 24.0801 34.808 24.4824 34.0775 25.213C32.5696 26.721 32.5695 29.1747 34.0775 30.6829C34.8316 31.4369 35.8219 31.8139 36.8125 31.8139C37.803 31.8139 38.7933 31.4368 39.5475 30.6828C41.0555 29.1747 41.0553 26.7208 39.5475 25.213ZM37.7243 28.8596C37.2215 29.3625 36.4034 29.3624 35.9007 28.8596C35.3979 28.3568 35.3979 27.5386 35.9007 27.0359C36.1443 26.7924 36.468 26.6582 36.8125 26.6582C37.1569 26.6582 37.4808 26.7924 37.7243 27.0359C38.2272 27.5388 38.2272 28.3568 37.7243 28.8596Z" fill="#E32729"/>
<path d="M23.2283 40.7504C22.725 40.247 21.909 40.247 21.4051 40.7504L17.0289 45.1265C16.5255 45.6299 16.5255 46.4462 17.0289 46.9496C17.2807 47.2013 17.6106 47.3272 17.9405 47.3272C18.2703 47.3272 18.6002 47.2012 18.852 46.9496L23.2281 42.5734C23.7317 42.07 23.7317 41.2538 23.2283 40.7504Z" fill="#1BA7E0"/>
<path d="M21.9521 51.3384C22.2819 51.3384 22.6118 51.2124 22.8636 50.9608L27.2397 46.5846C27.7431 46.0812 27.7431 45.265 27.2397 44.7616C26.7365 44.2582 25.9205 44.2582 25.4166 44.7616L21.0404 49.1377C20.537 49.6411 20.537 50.4574 21.0404 50.9608C21.2922 51.2126 21.622 51.3384 21.9521 51.3384Z" fill="#1BA7E0"/>
<path d="M25.9635 55.3496C26.2935 55.3496 26.6233 55.2237 26.8751 54.972L31.2511 50.5959C31.7545 50.0925 31.7545 49.2762 31.2511 48.7728C30.7476 48.2694 29.9316 48.2694 29.4279 48.7728L25.0519 53.149C24.5485 53.6524 24.5485 54.4686 25.0519 54.972C25.3038 55.2238 25.6335 55.3496 25.9635 55.3496Z" fill="#1BA7E0"/>
<path d="M56.4329 36.7073C56.0938 36.7073 55.7613 36.8452 55.5215 37.085C55.2804 37.3247 55.1438 37.6573 55.1438 37.9963C55.1438 38.3354 55.2804 38.6679 55.5215 38.9077C55.7613 39.1475 56.0938 39.2854 56.4329 39.2854C56.7719 39.2854 57.1045 39.1475 57.3441 38.9077C57.5839 38.6679 57.7219 38.3354 57.7219 37.9963C57.7219 37.6573 57.584 37.3247 57.3441 37.085C57.1045 36.8452 56.7719 36.7073 56.4329 36.7073Z" fill="#1D376C"/>
</g>
<defs>
<clipPath id="clip0_2214_228">
<rect width="66" height="66" fill="white" transform="translate(3 3)"/>
</clipPath>
</defs>
</svg>
