<svg width="67" height="67" viewBox="0 0 67 67" fill="none" xmlns="http://www.w3.org/2000/svg">
<path d="M24.0703 35.3811C24.4002 35.3811 24.7301 35.2552 24.9817 35.0035C25.4853 34.5001 25.4853 33.6839 24.9819 33.1804L24.3749 32.5735C23.8718 32.0702 23.0554 32.07 22.5519 32.5735C22.0484 33.0769 22.0484 33.893 22.5518 34.3966L23.1587 35.0035C23.4104 35.2552 23.7403 35.3811 24.0703 35.3811Z" fill="#1D376C"/>
<path d="M29.8997 38.0983L29.1415 37.3401C28.6381 36.8367 27.8219 36.8367 27.3184 37.3401C26.8149 37.8435 26.8149 38.6598 27.3183 39.1632L28.0765 39.9214C28.3283 40.1732 28.6582 40.299 28.9881 40.299C29.318 40.299 29.6478 40.173 29.8995 39.9214C30.4031 39.418 30.4031 38.6017 29.8997 38.0983Z" fill="#1D376C"/>
<path d="M32.1146 42.1363C31.6112 42.6397 31.6112 43.4559 32.1146 43.9593L32.9645 44.809C33.2161 45.0608 33.546 45.1866 33.8759 45.1866C34.2058 45.1866 34.5358 45.0606 34.7874 44.809C35.2908 44.3056 35.2908 43.4893 34.7874 42.9859L33.9375 42.1363C33.4342 41.6329 32.6178 41.6329 32.1146 42.1363Z" fill="#1D376C"/>
<path d="M64.761 18.2809L60.4989 14.019C60.2571 13.7773 59.9292 13.6414 59.5874 13.6414C59.2455 13.6414 58.9176 13.7773 58.6758 14.019C57.9453 14.7495 56.974 15.152 55.9406 15.152C54.9074 15.152 53.9359 14.7495 53.2054 14.019C51.6972 12.5107 51.6972 10.0566 53.2054 8.54836C53.7088 8.04496 53.7088 7.22869 53.2054 6.72529L48.9203 2.44027C46.6017 0.121798 42.8287 0.121798 40.5101 2.44027L18.6993 24.2513C18.4576 24.493 18.3218 24.8209 18.3218 25.1627L18.3216 28.3434H15.1411C14.7993 28.3434 14.4714 28.4792 14.2296 28.721L2.24185 40.7087C1.11865 41.8319 0.5 43.3252 0.5 44.9138C0.5 46.5024 1.11865 47.9957 2.24185 49.1189L6.52687 53.404C7.0304 53.9076 7.84641 53.9076 8.35007 53.404C9.08061 52.6735 10.0521 52.271 11.0853 52.271C12.1187 52.271 13.09 52.6734 13.8206 53.404C14.5512 54.1346 14.9536 55.106 14.9536 56.1393C14.9536 57.1725 14.5512 58.1438 13.8206 58.8745C13.5788 59.1162 13.443 59.4442 13.443 59.7861C13.443 60.1279 13.5788 60.4559 13.8206 60.6976L18.0826 64.9595C19.2421 66.1188 20.7649 66.6985 22.2877 66.6985C23.8106 66.6985 25.3335 66.1188 26.4928 64.9595L38.4806 52.9718C38.7223 52.7301 38.8581 52.4021 38.8581 52.0603V48.8798H42.0387C42.3805 48.8798 42.7083 48.7439 42.9502 48.5022L50.7451 40.7073C51.2485 40.2039 51.2485 39.3876 50.7451 38.8842C50.2416 38.3808 49.4255 38.3808 48.9219 38.8842L41.5046 46.3015H37.569C36.8572 46.3015 36.2799 46.8787 36.2799 47.5906V51.5263L24.6698 63.1365C23.3565 64.4498 21.2192 64.4499 19.9058 63.1365L16.4648 59.6956C17.1592 58.6498 17.5319 57.4232 17.5319 56.1394C17.5319 54.4175 16.8615 52.7987 15.6439 51.5811C14.4263 50.3635 12.8074 49.6929 11.0856 49.6929C9.80174 49.6929 8.57502 50.0657 7.52942 50.7601L4.06531 47.2958C2.75196 45.9825 2.75196 43.8452 4.06531 42.5319L15.6755 30.9217H19.611C20.3229 30.9217 20.9001 30.3446 20.9001 29.6326L20.9003 25.6968L42.3333 4.26347C43.6467 2.94999 45.7839 2.95012 47.0973 4.26347L50.5624 7.72861C48.9076 10.2303 49.181 13.6408 51.3823 15.8422C52.5999 17.0597 54.2189 17.7302 55.9406 17.7302C57.2246 17.7302 58.4512 17.3574 59.4968 16.6631L62.9378 20.104C64.2511 21.4175 64.2511 23.5547 62.9378 24.868L57.1227 30.6831C56.6193 31.1865 56.6193 32.0028 57.1227 32.5063C57.6262 33.0097 58.4423 33.0098 58.9459 32.5063L64.761 26.6912C67.0796 24.3725 67.0797 20.5998 64.761 18.2809Z" fill="#1D376C"/>
<path d="M39.2896 17.6555C38.6038 17.8465 38.2025 18.5573 38.3934 19.2431L42.5753 34.2679C42.734 34.8382 43.2521 35.2116 43.8165 35.2116C43.9309 35.2116 44.0473 35.1963 44.163 35.1641C44.8488 34.9731 45.2501 34.2623 45.0592 33.5765L40.8773 18.5517C40.6864 17.8659 39.9757 17.465 39.2896 17.6555Z" fill="#E32729"/>
<path d="M46.5124 22.46C45.0045 23.968 45.0044 26.4217 46.5124 27.9299C47.2665 28.6839 48.2568 29.0609 49.2474 29.0609C50.2379 29.0609 51.2282 28.6838 51.9824 27.9298C53.4904 26.4217 53.4903 23.968 51.9824 22.46C51.2518 21.7294 50.2806 21.3271 49.2474 21.3271C48.2142 21.3271 47.2429 21.7294 46.5124 22.46ZM50.1592 26.1067C49.6564 26.6096 48.8384 26.6095 48.3356 26.1067C47.8328 25.604 47.8328 24.7858 48.3356 24.283C48.5792 24.0395 48.9029 23.9053 49.2474 23.9053C49.5918 23.9053 49.9157 24.0395 50.1592 24.283C50.6619 24.7858 50.6619 25.604 50.1592 26.1067Z" fill="#E32729"/>
<path d="M37.0475 22.9132C36.3169 22.1826 35.3457 21.7803 34.3125 21.7803C33.2793 21.7803 32.3081 22.1826 31.5775 22.9132C30.0696 24.4212 30.0695 26.8749 31.5775 28.3832C32.3316 29.1372 33.3219 29.5141 34.3125 29.5141C35.3031 29.5141 36.2934 29.137 37.0475 28.383C38.5555 26.8749 38.5554 24.4211 37.0475 22.9132ZM35.2243 26.5598C34.7215 27.0627 33.9035 27.0626 33.4007 26.5598C32.898 26.0571 32.898 25.2389 33.4007 24.7361C33.6444 24.4926 33.968 24.3584 34.3125 24.3584C34.657 24.3584 34.9808 24.4926 35.2243 24.7361C35.7272 25.239 35.7272 26.0571 35.2243 26.5598Z" fill="#E32729"/>
<path d="M20.7282 38.4504C20.2249 37.947 19.4089 37.947 18.905 38.4504L14.5288 42.8266C14.0254 43.33 14.0254 44.1463 14.5288 44.6497C14.7806 44.9014 15.1105 45.0272 15.4404 45.0272C15.7702 45.0272 16.1001 44.9013 16.3519 44.6497L20.728 40.2735C21.2316 39.7701 21.2316 38.9538 20.7282 38.4504Z" fill="#1BA7E0"/>
<path d="M19.452 49.0386C19.7818 49.0386 20.1117 48.9126 20.3635 48.661L24.7397 44.2848C25.243 43.7814 25.243 42.9652 24.7397 42.4618C24.2364 41.9584 23.4204 41.9584 22.9165 42.4618L18.5403 46.8379C18.0369 47.3413 18.0369 48.1576 18.5403 48.661C18.7921 48.9128 19.1219 49.0386 19.452 49.0386Z" fill="#1BA7E0"/>
<path d="M23.4634 53.0499C23.7934 53.0499 24.1232 52.924 24.375 52.6723L28.751 48.2962C29.2544 47.7928 29.2544 46.9765 28.751 46.4731C28.2475 45.9697 27.4315 45.9697 26.9278 46.4731L22.5518 50.8493C22.0484 51.3527 22.0484 52.1689 22.5518 52.6723C22.8037 52.9241 23.1334 53.0499 23.4634 53.0499Z" fill="#1BA7E0"/>
<path d="M53.9328 34.4076C53.5937 34.4076 53.2612 34.5455 53.0214 34.7853C52.7803 35.025 52.6437 35.3576 52.6437 35.6966C52.6437 36.0356 52.7803 36.3682 53.0214 36.608C53.2612 36.8478 53.5937 36.9857 53.9328 36.9857C54.2718 36.9857 54.6044 36.8478 54.844 36.608C55.0838 36.3682 55.2218 36.0356 55.2218 35.6966C55.2218 35.3576 55.0839 35.025 54.844 34.7853C54.6044 34.5455 54.2718 34.4076 53.9328 34.4076Z" fill="#1D376C"/>
</svg>
