<svg width="144" height="60" viewBox="0 0 144 60" fill="none" xmlns="http://www.w3.org/2000/svg">
<path d="M142.5 51.7976C142.5 51.7976 125.412 61.4866 115.5 57.2976C93.5 48 82.5 13.0953 61 14.7976C39.5 16.5 46.5 29.7976 50 32.2976C53.5 34.7976 59.5 36 62.5 26.7976C65.5 17.5953 52.029 6.54851 40 2.5C28.5546 -1.3521 13 8.29763 13 8.29763" stroke="black" stroke-width="3" stroke-linecap="round" stroke-linejoin="round" stroke-dasharray="7 7"/>
<path d="M6.5207 5.48756C6.85179 4.81577 7.84187 4.92655 8.01629 5.6549L9.24578 10.7889C9.29883 11.0105 9.44382 11.1989 9.64439 11.307L14.617 13.9855C15.2684 14.3364 15.1353 15.3076 14.4134 15.4703L1.63403 18.35C0.977894 18.4978 0.443256 17.8192 0.740585 17.2159L6.5207 5.48756Z" fill="#1E1E1E"/>
</svg>
