<svg width="261" height="53" viewBox="0 0 261 53" fill="none" xmlns="http://www.w3.org/2000/svg">
<path d="M15.9856 27.1502H27.9134C26.9535 32.7241 22.994 36.7328 16.5037 36.7328C9.36448 36.7328 4.27047 31.2461 4.27047 24.4995C4.27047 17.753 9.32085 12.2172 16.5037 12.2172C21.2051 12.2172 24.9083 14.6115 27.0408 18.5329L30.7004 16.3131C27.9571 11.4373 22.7758 8.17035 16.5037 8.17035C6.97018 8.17035 0 15.4405 0 24.4995C0 33.5586 6.96473 40.8287 16.5037 40.8287C26.0427 40.8287 32.3093 33.2968 32.3093 24.6304V23.147H15.9801V27.1502H15.9856Z" fill="white"/>
<path d="M58.1338 19.1435C56.0886 16.1383 52.3417 14.3985 48.7748 14.3985C41.5483 14.3985 35.7998 20.0597 35.7998 27.6789C35.7998 35.2981 41.6737 40.9157 48.7748 40.9157C52.3035 40.9157 56.0886 39.1268 58.1338 36.0835V40.3922H62.2243V14.9166H58.1338V19.1435ZM49.162 37.0816C44.0244 37.0816 39.9775 32.9038 39.9775 27.6353C39.9775 22.3668 44.0244 18.189 49.162 18.189C54.2997 18.189 58.4392 22.454 58.4392 27.6353C58.4392 32.8166 54.436 37.0816 49.162 37.0816Z" fill="white"/>
<path d="M72.4942 8.16461H68.3164V40.3867H72.4942V8.16461Z" fill="white"/>
<path d="M99.1641 19.1435C97.1189 16.1383 93.372 14.3985 89.8051 14.3985C82.5786 14.3985 76.8301 20.0597 76.8301 27.6789C76.8301 35.2981 82.7095 40.9157 89.8051 40.9157C93.3338 40.9157 97.1189 39.1268 99.1641 36.0835V40.3922H103.255V14.9166H99.1641V19.1435ZM90.1923 37.0816C85.0547 37.0816 81.0078 32.9038 81.0078 27.6353C81.0078 22.3668 85.0547 18.189 90.1923 18.189C95.33 18.189 99.4695 22.454 99.4695 27.6353C99.4695 32.8166 95.4663 37.0816 90.1923 37.0816Z" fill="white"/>
<path d="M131.168 14.9166H126.205L119.061 24.3629L111.921 14.9166H106.871L116.492 27.4117L106.435 40.3921H111.529L118.973 30.4605L126.554 40.3921H131.648L121.498 27.4117L131.168 14.9166Z" fill="white"/>
<path d="M145.987 34.2073L137.408 14.9166H132.881L143.854 39.0395L138.106 52.1455H142.458L158.4 14.9166H153.955L145.987 34.2073Z" fill="white"/>
<path d="M181.699 8.60089L169.896 40.3866H174.336L176.992 33.1165H190.752L193.452 40.3866H197.848L186.089 8.60089H181.693H181.699ZM178.476 29.0697L183.875 14.393L189.274 29.0697H178.476Z" fill="white"/>
<path d="M206.668 8.60089H202.446V40.3866H206.668V8.60089Z" fill="white"/>
<mask id="mask0_2193_350" style="mask-type:luminance" maskUnits="userSpaceOnUse" x="224" y="0" width="12" height="13">
<path d="M229.64 0.272699L228.118 4.13956L225.119 5.66123C224.759 5.84666 224.759 6.35933 225.119 6.54477L228.118 8.06643L229.64 11.9333C229.825 12.2933 230.338 12.2933 230.523 11.9333L232.045 8.06643L235.045 6.54477C235.405 6.35933 235.405 5.84121 235.045 5.66123L232.045 4.13956L230.523 0.272699C230.431 0.0927176 230.256 0 230.082 0C229.907 0 229.733 0.0927176 229.64 0.272699Z" fill="white"/>
</mask>
<g mask="url(#mask0_2193_350)">
<path d="M219.534 5.3667L229.406 18.4562L240.63 6.93201L230.758 -6.15753L219.534 5.3667Z" fill="url(#paint0_linear_2193_350)"/>
</g>
<mask id="mask1_2193_350" style="mask-type:luminance" maskUnits="userSpaceOnUse" x="217" y="15" width="21" height="28">
<path d="M227.627 15.9092L224.262 24.6574L217.625 28.0989C216.823 28.5134 216.823 29.686 217.625 30.1005L224.262 33.5419L227.627 42.2901C228.031 43.1082 229.176 43.1082 229.585 42.2901L232.95 33.5419L237.384 31.2458L237.308 31.0549L229.863 27.2644L229.776 27.2208C226.749 25.8846 226.013 22.1049 229.863 20.0761L230.971 19.5143L229.585 15.9147C229.384 15.5057 228.996 15.2984 228.609 15.2984C228.222 15.2984 227.835 15.5002 227.633 15.9147" fill="white"/>
</mask>
<g mask="url(#mask1_2193_350)">
<path d="M208.255 21.5595L221.453 54.7579L245.947 36.847L232.749 3.64868L208.255 21.5595Z" fill="url(#paint1_linear_2193_350)"/>
</g>
<mask id="mask2_2193_350" style="mask-type:luminance" maskUnits="userSpaceOnUse" x="229" y="5" width="32" height="38">
<path d="M243.885 6.05394L239.304 17.7364L230.256 22.334C229.165 22.8904 229.165 24.4502 230.256 25.0065L239.304 29.5987L243.885 41.2812C244.441 42.3774 245.996 42.3774 246.552 41.2812L251.133 29.5987L260.182 25.0065C261.272 24.4502 261.272 22.8904 260.182 22.334L251.133 17.7364L246.552 6.05394C246.274 5.50854 245.75 5.23584 245.221 5.23584C244.692 5.23584 244.163 5.50854 243.891 6.05394" fill="white"/>
</mask>
<g mask="url(#mask2_2193_350)">
<path d="M275.338 32.4566L237.739 58.9739L215.094 15.1566L252.693 -11.3606L275.338 32.4566Z" fill="url(#paint2_linear_2193_350)"/>
</g>
<defs>
<linearGradient id="paint0_linear_2193_350" x1="-671.068" y1="-1185.22" x2="-660.724" y2="-1171.51" gradientUnits="userSpaceOnUse">
<stop stop-color="#2B92B9"/>
<stop offset="1" stop-color="#72C489"/>
</linearGradient>
<linearGradient id="paint1_linear_2193_350" x1="-771.665" y1="-2490.21" x2="-763.656" y2="-2470.07" gradientUnits="userSpaceOnUse">
<stop stop-color="#4F78BC"/>
<stop offset="0.53" stop-color="#54A8DD"/>
<stop offset="1" stop-color="#72C489"/>
</linearGradient>
<linearGradient id="paint2_linear_2193_350" x1="1434.64" y1="-816.741" x2="1420.89" y2="-807.042" gradientUnits="userSpaceOnUse">
<stop stop-color="#3C60AC"/>
<stop offset="1" stop-color="#4978BC"/>
</linearGradient>
</defs>
</svg>
