<svg width="188" height="47" viewBox="0 0 188 47" fill="none" xmlns="http://www.w3.org/2000/svg">
<path d="M25.6518 34.7782H17.9521C17.3032 34.7782 16.7409 35.2354 16.605 35.8719L15.0663 43.0587C14.9303 43.6952 14.368 44.1525 13.7192 44.1525H8.31826C7.44077 44.1525 6.78575 43.343 6.97114 42.484L8.26265 36.4528C8.44803 35.5939 7.79301 34.7843 6.91552 34.7843H1.3787C0.50121 34.7843 -0.153831 33.9749 0.0315538 33.1159L1.12534 28.0178C1.26129 27.3813 1.82362 26.924 2.47246 26.924H9.18957C9.83842 26.924 10.4008 26.4667 10.5367 25.8303L12.1434 18.3099C12.3288 17.4509 11.6737 16.6413 10.7962 16.6413H5.25942C4.38193 16.6413 3.72689 15.8319 3.91228 14.9729L5.00606 9.87482C5.14201 9.23834 5.70434 8.78104 6.35319 8.78104H13.0703C13.7191 8.78104 14.2815 8.32375 14.4174 7.68726L15.8263 1.09989C15.9623 0.463405 16.5246 0.0061101 17.1735 0.0061101H22.5744C23.4519 0.0061101 24.1069 0.815669 23.9215 1.67462L22.7597 7.10642C22.5744 7.96537 23.2294 8.77486 24.1069 8.77486H31.8065C32.4554 8.77486 33.0177 8.31756 33.1537 7.68107L34.5626 1.09371C34.6985 0.457219 35.2609 0 35.9097 0H41.3106C42.1881 0 42.8431 0.809484 42.6577 1.66843L41.496 7.10024C41.3106 7.95919 41.9656 8.76867 42.8431 8.76867H48.862C49.7394 8.76867 50.3945 9.57815 50.2091 10.4371L49.1153 15.5352C48.9794 16.1717 48.417 16.629 47.7682 16.629H40.5691C39.9202 16.629 39.3579 17.0863 39.2219 17.7228L37.6153 25.2432C37.4299 26.1022 38.0849 26.9117 38.9624 26.9117H44.9812C45.8587 26.9117 46.5137 27.7212 46.3284 28.5802L45.2346 33.6783C45.0986 34.3147 44.5363 34.772 43.8874 34.772H36.6883C36.0395 34.772 35.4772 35.2293 35.3412 35.8657L33.8025 43.0525C33.6666 43.689 33.1042 44.1463 32.4554 44.1463H27.0545C26.177 44.1463 25.522 43.3368 25.7074 42.4779L26.9989 36.4467C27.1843 35.5877 26.5293 34.7782 25.6518 34.7782ZM20.2262 26.9179H27.9258C28.5747 26.9179 29.137 26.4606 29.2729 25.8241L30.8796 18.3037C31.065 17.4447 30.41 16.6352 29.5325 16.6352H21.8328C21.184 16.6352 20.6216 17.0925 20.4857 17.7289L18.879 25.2494C18.6936 26.1084 19.3487 26.9179 20.2262 26.9179Z" fill="#0E172B"/>
<path d="M61.9006 15.9059L56.9014 7.63159H60.1333L63.3898 13.0819L66.665 7.63159H69.8968L64.8359 15.9677V23.3584H61.9068V15.9059H61.9006Z" fill="#0E172B"/>
<path d="M74.3337 23.3831C73.4314 23.3831 72.5787 23.2224 71.7815 22.8949C70.9844 22.5674 70.2922 22.1163 69.7052 21.5478C69.1181 20.9731 68.6547 20.2995 68.3148 19.5333C67.9749 18.767 67.8081 17.9452 67.8081 17.0739C67.8081 16.2025 67.9749 15.3621 68.3148 14.5897C68.6547 13.8234 69.1181 13.1499 69.7052 12.5752C70.2922 12.0005 70.9844 11.5493 71.7815 11.228C72.5787 10.9005 73.4314 10.7399 74.3337 10.7399C75.2359 10.7399 76.0886 10.9005 76.8734 11.228C77.6644 11.5555 78.3565 12.0005 78.9559 12.5752C79.5491 13.1499 80.0188 13.8234 80.3587 14.5897C80.6985 15.3559 80.8654 16.184 80.8654 17.0739C80.8654 17.9637 80.6985 18.767 80.3587 19.5333C80.0188 20.2995 79.5553 20.9731 78.9559 21.5478C78.3627 22.1225 77.6644 22.5736 76.8734 22.8949C76.0824 23.2224 75.2359 23.3831 74.3337 23.3831ZM74.3337 20.6455C74.8527 20.6455 75.3347 20.5529 75.7797 20.3613C76.2246 20.1697 76.6139 19.9164 76.9414 19.5951C77.2689 19.2737 77.5284 18.8906 77.7138 18.4519C77.8992 18.0131 77.9919 17.5497 77.9919 17.0677C77.9919 16.5857 77.8992 16.1037 77.7138 15.6649C77.5284 15.2262 77.2689 14.8431 76.9414 14.5217C76.6139 14.2004 76.2246 13.9408 75.7797 13.7554C75.3347 13.57 74.8527 13.4712 74.3337 13.4712C73.8146 13.4712 73.3326 13.5638 72.8815 13.7554C72.4304 13.947 72.0411 14.2004 71.7197 14.5217C71.3984 14.8431 71.1389 15.2262 70.9535 15.6649C70.7681 16.1037 70.6754 16.5733 70.6754 17.0677C70.6754 17.562 70.7681 18.0131 70.9535 18.4519C71.1389 18.8906 71.3922 19.2737 71.7197 19.5951C72.0411 19.9164 72.4304 20.1759 72.8815 20.3613C73.3326 20.5467 73.8208 20.6455 74.3337 20.6455Z" fill="#0E172B"/>
<path d="M93.4839 23.3584H90.5981V21.7765C90.1964 22.2771 89.6959 22.6663 89.0903 22.9506C88.4847 23.2348 87.7802 23.377 86.9769 23.377C85.4814 23.377 84.3012 22.9135 83.4298 21.9804C82.5585 21.0535 82.126 19.7558 82.126 18.0873V10.7461H85.0798V17.7537C85.0798 18.7115 85.2961 19.4653 85.7348 20.0153C86.1736 20.5653 86.8533 20.8434 87.774 20.8434C88.5774 20.8434 89.2448 20.553 89.7762 19.9783C90.3076 19.4036 90.5733 18.5755 90.5733 17.4941V10.7338H93.4839V23.3399V23.3584Z" fill="#0E172B"/>
<path d="M95.2762 10.7522H98.162V12.6246C98.7491 11.3763 99.8305 10.7522 101.394 10.7522C101.851 10.7522 102.265 10.8016 102.63 10.9005C102.994 10.9993 103.322 11.1291 103.612 11.2898L102.512 14.0459C102.296 13.9037 102.055 13.7863 101.789 13.6874C101.524 13.5947 101.184 13.5453 100.764 13.5453C99.917 13.5453 99.2743 13.7863 98.8356 14.2683C98.3968 14.7503 98.1805 15.5351 98.1805 16.6289V23.3522H95.27V10.746L95.2762 10.7522Z" fill="#0E172B"/>
<path d="M116.33 23.3831C115.106 23.3831 113.994 23.173 112.993 22.7528C111.986 22.3326 111.127 21.7641 110.41 21.0411C109.693 20.3181 109.137 19.4839 108.754 18.526C108.364 17.5744 108.173 16.561 108.173 15.4981C108.173 14.4352 108.377 13.3785 108.778 12.4145C109.18 11.4567 109.736 10.6224 110.447 9.91179C111.158 9.20115 112.004 8.64501 112.987 8.23099C113.969 7.81696 115.044 7.61304 116.206 7.61304C117.028 7.61304 117.794 7.70571 118.511 7.89727C119.228 8.08883 119.895 8.35459 120.507 8.70682C121.119 9.05905 121.663 9.47309 122.145 9.95509C122.627 10.4371 123.028 10.9685 123.362 11.5432L120.779 12.9521C120.291 12.1303 119.667 11.5061 118.913 11.0859C118.159 10.6657 117.263 10.4556 116.231 10.4556C115.496 10.4556 114.822 10.5916 114.198 10.8573C113.574 11.123 113.03 11.4876 112.56 11.9449C112.091 12.4022 111.732 12.9336 111.473 13.5453C111.213 14.1571 111.083 14.806 111.083 15.4981C111.083 16.1902 111.213 16.8575 111.473 17.4693C111.732 18.0811 112.097 18.6126 112.56 19.0698C113.03 19.5271 113.586 19.8855 114.229 20.1513C114.871 20.417 115.576 20.5468 116.342 20.5468C117.522 20.5468 118.499 20.2378 119.284 19.6198C120.068 19.0019 120.6 18.1738 120.89 17.1418H115.872V14.3425H124.042V15.5043C124.042 16.5671 123.863 17.5744 123.504 18.5322C123.146 19.4901 122.633 20.3242 121.965 21.0411C121.298 21.7579 120.489 22.3326 119.543 22.7528C118.598 23.1792 117.535 23.3893 116.354 23.3893L116.33 23.3831Z" fill="#0E172B"/>
<path d="M136.908 23.3584H134.022V21.7765C133.62 22.2771 133.12 22.6663 132.514 22.9506C131.908 23.2348 131.204 23.377 130.401 23.377C128.905 23.377 127.725 22.9135 126.854 21.9804C125.982 21.0535 125.55 19.7558 125.55 18.0873V10.7461H128.504V17.7537C128.504 18.7115 128.72 19.4653 129.159 20.0153C129.597 20.5653 130.277 20.8434 131.198 20.8434C132.001 20.8434 132.669 20.553 133.2 19.9783C133.731 19.4036 133.997 18.5755 133.997 17.4941V10.7338H136.908V23.3399V23.3584Z" fill="#0E172B"/>
<path d="M138.224 7.67481C138.224 7.13101 138.391 6.68608 138.718 6.35239C139.046 6.01252 139.497 5.8457 140.053 5.8457C140.609 5.8457 141.079 6.01252 141.4 6.35239C141.722 6.69226 141.882 7.13101 141.882 7.67481C141.882 8.21861 141.722 8.65735 141.4 8.99105C141.079 9.31856 140.628 9.48544 140.053 9.48544C139.478 9.48544 139.009 9.31856 138.694 8.99105C138.378 8.66353 138.218 8.22479 138.218 7.67481H138.224ZM138.589 10.7522H141.518V23.3584H138.589V10.7522Z" fill="#0E172B"/>
<path d="M148.995 23.3831C148.235 23.3831 147.481 23.2409 146.745 22.9567C146.004 22.6724 145.343 22.2584 144.749 21.7208C144.162 21.1831 143.687 20.522 143.328 19.7372C142.97 18.9524 142.791 18.0626 142.791 17.0677C142.791 16.0728 142.964 15.1581 143.316 14.3795C143.668 13.5947 144.138 12.9335 144.719 12.3959C145.299 11.8583 145.967 11.4443 146.721 11.16C147.475 10.8758 148.247 10.7337 149.038 10.7337C149.829 10.7337 150.62 10.8882 151.324 11.1971C152.029 11.5061 152.61 11.9325 153.067 12.4763V7.41528H155.996V23.3583H153.086V21.5663C152.628 22.1286 152.035 22.5735 151.318 22.8949C150.601 23.2162 149.823 23.3769 148.989 23.3769L148.995 23.3831ZM149.471 20.7073C150.014 20.7073 150.521 20.6146 150.978 20.4231C151.436 20.2315 151.831 19.972 152.165 19.6321C152.492 19.2922 152.758 18.903 152.95 18.458C153.141 18.0131 153.24 17.5311 153.24 17.0182C153.24 16.5053 153.141 16.048 152.95 15.6031C152.758 15.1582 152.492 14.7689 152.165 14.4414C151.837 14.1139 151.442 13.8543 150.978 13.6627C150.521 13.4712 150.014 13.3784 149.471 13.3784C148.927 13.3784 148.439 13.4712 147.975 13.6627C147.505 13.8543 147.104 14.1077 146.758 14.429C146.412 14.7503 146.146 15.1396 145.948 15.5846C145.757 16.0295 145.658 16.5115 145.658 17.0244C145.658 17.5373 145.757 18.0192 145.948 18.4703C146.14 18.9214 146.412 19.3108 146.758 19.6445C147.104 19.972 147.505 20.2377 147.975 20.4231C148.439 20.6146 148.939 20.7073 149.471 20.7073Z" fill="#0E172B"/>
<path d="M163.906 23.3831C162.917 23.3831 162.009 23.2224 161.193 22.8949C160.371 22.5674 159.673 22.1225 159.092 21.554C158.511 20.9855 158.06 20.318 157.732 19.5518C157.411 18.7855 157.25 17.9636 157.25 17.0923C157.25 16.221 157.417 15.3745 157.757 14.6021C158.097 13.8296 158.561 13.156 159.148 12.5875C159.735 12.019 160.427 11.5679 161.224 11.2404C162.021 10.9067 162.88 10.7399 163.801 10.7399C164.721 10.7399 165.599 10.8882 166.396 11.1971C167.193 11.4999 167.879 11.9263 168.454 12.4701C169.029 13.0139 169.48 13.6565 169.801 14.3981C170.122 15.1396 170.283 15.9492 170.283 16.8205V17.8524H160.025C160.223 18.7422 160.662 19.4591 161.341 20.0091C162.015 20.5529 162.874 20.831 163.906 20.831C164.728 20.831 165.438 20.6332 166.038 20.2254C166.643 19.8237 167.094 19.2861 167.397 18.6064L169.789 19.9844C169.245 21.004 168.479 21.8259 167.496 22.45C166.514 23.0741 165.315 23.3893 163.906 23.3893V23.3831ZM163.801 13.2981C162.923 13.2981 162.169 13.4897 161.527 13.879C160.884 14.2683 160.439 14.775 160.18 15.4115H167.335C167.119 14.7194 166.705 14.1941 166.087 13.8357C165.469 13.4773 164.709 13.2981 163.801 13.2981Z" fill="#0E172B"/>
<path d="M53.2862 29.5812H49.4673V27.0353H59.7932V29.5812H55.9558V41.3408H53.2924V29.5812H53.2862Z" fill="#0E172B"/>
<path d="M64.2793 41.3594C63.4574 41.3594 62.685 41.2111 61.9558 40.9145C61.2328 40.6178 60.6025 40.21 60.0649 39.6848C59.5273 39.1657 59.1071 38.5539 58.7981 37.8556C58.4891 37.1573 58.3408 36.4096 58.3408 35.6186C58.3408 34.8276 58.4953 34.0614 58.7981 33.3631C59.1071 32.6649 59.5273 32.053 60.0649 31.5278C60.6025 31.0087 61.2328 30.5947 61.9558 30.2981C62.6788 30.0014 63.4574 29.8531 64.2793 29.8531C65.1012 29.8531 65.8736 30.0014 66.5905 30.2981C67.3073 30.5947 67.9376 31.0025 68.4814 31.5278C69.0252 32.053 69.4454 32.6587 69.7544 33.3631C70.0633 34.0614 70.2116 34.8153 70.2116 35.6186C70.2116 36.4219 70.0571 37.1573 69.7544 37.8556C69.4454 38.5539 69.0252 39.1657 68.4814 39.6848C67.9376 40.21 67.3073 40.6178 66.5905 40.9145C65.8736 41.2111 65.1012 41.3594 64.2793 41.3594ZM64.2793 38.869C64.749 38.869 65.1877 38.7825 65.5894 38.6095C65.9972 38.4365 66.3495 38.2079 66.6461 37.9112C66.9489 37.6146 67.1837 37.2685 67.3505 36.873C67.5174 36.4714 67.6039 36.0574 67.6039 35.6125C67.6039 35.1676 67.5174 34.735 67.3505 34.3333C67.1775 33.9378 66.9427 33.5918 66.6461 33.2952C66.3433 32.9986 65.991 32.7699 65.5894 32.5969C65.1815 32.4239 64.749 32.3373 64.2793 32.3373C63.8097 32.3373 63.3709 32.4239 62.9569 32.5969C62.5429 32.7699 62.1907 32.9986 61.9002 33.2952C61.6036 33.5918 61.375 33.9378 61.2019 34.3333C61.0289 34.735 60.9486 35.1552 60.9486 35.6125C60.9486 36.0698 61.0351 36.4714 61.2019 36.873C61.375 37.2685 61.6036 37.6146 61.9002 37.9112C62.1968 38.2079 62.5491 38.4365 62.9569 38.6095C63.3648 38.7825 63.8097 38.869 64.2793 38.869Z" fill="#0E172B"/>
<path d="M82.4844 41.3593C81.3721 41.3593 80.3586 41.1678 79.4503 40.7847C78.5357 40.4015 77.7509 39.8824 77.0959 39.2274C76.4408 38.5724 75.9403 37.8123 75.5881 36.941C75.2359 36.0758 75.0566 35.1551 75.0566 34.1849C75.0566 33.2147 75.242 32.2569 75.6066 31.3856C75.9712 30.5143 76.4779 29.7543 77.1268 29.1116C77.7756 28.4689 78.5419 27.956 79.4379 27.5791C80.3339 27.2021 81.3103 27.0167 82.367 27.0167C83.1147 27.0167 83.813 27.1032 84.4619 27.2762C85.1169 27.4492 85.7163 27.6965 86.2724 28.0116C86.8286 28.3268 87.3229 28.7099 87.7617 29.1486C88.2004 29.5874 88.565 30.0693 88.8678 30.5946L86.5196 31.8738C86.0747 31.1261 85.5123 30.5576 84.8264 30.1806C84.1405 29.8037 83.3248 29.6121 82.3855 29.6121C81.7181 29.6121 81.1002 29.7357 80.5317 29.9828C79.9632 30.23 79.4688 30.5576 79.0424 30.9716C78.616 31.3856 78.2885 31.8738 78.0537 32.4238C77.8189 32.9738 77.7015 33.567 77.7015 34.1973C77.7015 34.8276 77.8189 35.4394 78.0537 35.9894C78.2885 36.5393 78.616 37.0275 79.0424 37.4415C79.4688 37.8556 79.9755 38.1831 80.5626 38.4241C81.1496 38.6651 81.7923 38.7824 82.4844 38.7824C83.5535 38.7824 84.4495 38.5044 85.1601 37.942C85.8708 37.3797 86.359 36.632 86.6185 35.6866H82.0518V33.1406H89.4796V34.1973C89.4796 35.1613 89.3189 36.082 88.9914 36.9471C88.6639 37.8185 88.2004 38.5786 87.5887 39.2274C86.9831 39.8824 86.2477 40.4015 85.3826 40.7847C84.5175 41.1678 83.5535 41.3655 82.4844 41.3655V41.3593Z" fill="#0E172B"/>
<path d="M96.1411 41.3593C95.449 41.3593 94.7692 41.2296 94.0957 40.97C93.4221 40.7105 92.8165 40.3397 92.2851 39.8454C91.7475 39.3572 91.3211 38.7516 90.9935 38.0409C90.666 37.3303 90.5054 36.5208 90.5054 35.6124C90.5054 34.7041 90.6661 33.876 90.9874 33.1653C91.3087 32.4547 91.7351 31.8553 92.2604 31.3609C92.7918 30.8728 93.3974 30.4958 94.0833 30.2362C94.7692 29.9767 95.4737 29.8469 96.1905 29.8469C96.9506 29.8469 97.6489 29.9829 98.2854 30.2548C98.9219 30.5267 99.4533 30.9036 99.8735 31.3732V29.8593H102.518V41.3223H99.8735V39.6909C99.4533 40.2038 98.9218 40.6054 98.2668 40.9021C97.6118 41.1987 96.9073 41.3408 96.1534 41.3408L96.1411 41.3593ZM96.5736 38.9246C97.068 38.9246 97.5253 38.8381 97.9455 38.6651C98.3657 38.4921 98.7241 38.251 99.0207 37.9482C99.3235 37.6393 99.5583 37.287 99.7375 36.8792C99.9167 36.4713 100.003 36.0388 100.003 35.5753C100.003 35.1119 99.9167 34.6917 99.7375 34.2838C99.5583 33.8822 99.3235 33.5237 99.0207 33.2271C98.7179 32.9243 98.3595 32.6895 97.9455 32.5165C97.5253 32.3435 97.068 32.2569 96.5736 32.2569C96.0793 32.2569 95.6344 32.3435 95.2141 32.5165C94.7878 32.6895 94.4232 32.9244 94.108 33.2148C93.7929 33.5114 93.5519 33.8574 93.3727 34.2653C93.1935 34.6731 93.107 35.1057 93.107 35.5753C93.107 36.045 93.1935 36.4775 93.3727 36.8916C93.5519 37.3056 93.7929 37.6578 94.108 37.9606C94.4232 38.2634 94.7878 38.4982 95.2141 38.6713C95.6405 38.8443 96.0916 38.9308 96.5736 38.9308V38.9246Z" fill="#0E172B"/>
<path d="M104.02 26.8375H106.683V41.3346H104.02V26.8375Z" fill="#0E172B"/>
<path d="M113.481 41.3593C112.789 41.3593 112.109 41.2296 111.436 40.97C110.762 40.7105 110.156 40.3397 109.625 39.8454C109.087 39.3572 108.661 38.7516 108.333 38.0409C108.006 37.3303 107.845 36.5208 107.845 35.6124C107.845 34.7041 108.006 33.876 108.327 33.1653C108.649 32.4547 109.075 31.8553 109.6 31.3609C110.132 30.8728 110.737 30.4958 111.423 30.2362C112.109 29.9767 112.814 29.8469 113.53 29.8469C114.29 29.8469 114.989 29.9829 115.625 30.2548C116.262 30.5267 116.793 30.9036 117.213 31.3732V29.8593H119.858V41.3223H117.213V39.6909C116.793 40.2038 116.262 40.6054 115.607 40.9021C114.952 41.1987 114.247 41.3408 113.493 41.3408L113.481 41.3593ZM113.913 38.9246C114.408 38.9246 114.865 38.8381 115.285 38.6651C115.706 38.4921 116.064 38.251 116.361 37.9482C116.663 37.6393 116.898 37.287 117.077 36.8792C117.257 36.4713 117.343 36.0388 117.343 35.5753C117.343 35.1119 117.257 34.6917 117.077 34.2838C116.898 33.8822 116.663 33.5237 116.361 33.2271C116.058 32.9243 115.699 32.6895 115.285 32.5165C114.865 32.3435 114.408 32.2569 113.913 32.2569C113.419 32.2569 112.974 32.3435 112.554 32.5165C112.128 32.6895 111.763 32.9244 111.448 33.2148C111.133 33.5114 110.892 33.8574 110.713 34.2653C110.533 34.6731 110.447 35.1057 110.447 35.5753C110.447 36.045 110.533 36.4775 110.713 36.8916C110.892 37.3056 111.133 37.6578 111.448 37.9606C111.763 38.2634 112.128 38.4982 112.554 38.6713C112.98 38.8443 113.431 38.9308 113.913 38.9308V38.9246Z" fill="#0E172B"/>
<path d="M124.808 35.5011L120.655 29.8778H123.887L126.495 33.5237L129.084 29.8778H132.217L128.101 35.5382L132.489 41.3407H129.257L126.458 37.5218L123.732 41.3407H120.5L124.814 35.5011H124.808Z" fill="#0E172B"/>
<path d="M137.247 40.8403L132.544 29.8717H135.368L138.563 37.7134L141.579 29.8717H144.36L137.519 46.6058H134.837L137.247 40.8403Z" fill="#0E172B"/>
<path d="M151.59 27.0353H154.272L159.364 41.3408H156.583L155.699 38.7948H150.156L149.272 41.3408H146.492L151.584 27.0353H151.59ZM151.065 36.2427H154.828L152.949 30.8171L151.071 36.2427H151.065Z" fill="#0E172B"/>
<path d="M161.372 27.0353H164.035V41.3408H161.372V27.0353Z" fill="#0E172B"/>
<path fill-rule="evenodd" clip-rule="evenodd" d="M173.323 26.3308L173.984 24.6499C174.064 24.4954 174.287 24.4954 174.367 24.6499L175.028 26.3308L176.332 26.992C176.486 27.0723 176.486 27.2948 176.332 27.3751L175.028 28.0364L174.367 29.7172C174.287 29.8716 174.064 29.8716 173.984 29.7172L173.323 28.0364L172.019 27.3751C171.864 27.2948 171.864 27.0723 172.019 26.992L173.323 26.3308Z" fill="#0E172B"/>
<path fill-rule="evenodd" clip-rule="evenodd" d="M173.323 26.3308L173.984 24.6499C174.064 24.4954 174.287 24.4954 174.367 24.6499L175.028 26.3308L176.332 26.992C176.486 27.0723 176.486 27.2948 176.332 27.3751L175.028 28.0364L174.367 29.7172C174.287 29.8716 174.064 29.8716 173.984 29.7172L173.323 28.0364L172.019 27.3751C171.864 27.2948 171.864 27.0723 172.019 26.992L173.323 26.3308Z" fill="#0E172B"/>
<path fill-rule="evenodd" clip-rule="evenodd" d="M173.323 26.3308L173.984 24.6499C174.064 24.4954 174.287 24.4954 174.367 24.6499L175.028 26.3308L176.332 26.992C176.486 27.0723 176.486 27.2948 176.332 27.3751L175.028 28.0364L174.367 29.7172C174.287 29.8716 174.064 29.8716 173.984 29.7172L173.323 28.0364L172.019 27.3751C171.864 27.2948 171.864 27.0723 172.019 26.992L173.323 26.3308Z" fill="#0E172B"/>
<path fill-rule="evenodd" clip-rule="evenodd" d="M184.786 42.3234L185.447 40.6425C185.527 40.488 185.75 40.488 185.83 40.6425L186.491 42.3234L187.795 42.9845C187.95 43.0649 187.95 43.2873 187.795 43.3677L186.491 44.0289L185.83 45.7097C185.75 45.8642 185.527 45.8642 185.447 45.7097L184.786 44.0289L183.482 43.3677C183.328 43.2873 183.328 43.0649 183.482 42.9845L184.786 42.3234Z" fill="#0E172B"/>
<path fill-rule="evenodd" clip-rule="evenodd" d="M184.786 42.3234L185.447 40.6425C185.527 40.488 185.75 40.488 185.83 40.6425L186.491 42.3234L187.795 42.9845C187.95 43.0649 187.95 43.2873 187.795 43.3677L186.491 44.0289L185.83 45.7097C185.75 45.8642 185.527 45.8642 185.447 45.7097L184.786 44.0289L183.482 43.3677C183.328 43.2873 183.328 43.0649 183.482 42.9845L184.786 42.3234Z" fill="#0E172B"/>
<path fill-rule="evenodd" clip-rule="evenodd" d="M184.786 42.3234L185.447 40.6425C185.527 40.488 185.75 40.488 185.83 40.6425L186.491 42.3234L187.795 42.9845C187.95 43.0649 187.95 43.2873 187.795 43.3677L186.491 44.0289L185.83 45.7097C185.75 45.8642 185.527 45.8642 185.447 45.7097L184.786 44.0289L183.482 43.3677C183.328 43.2873 183.328 43.0649 183.482 42.9845L184.786 42.3234Z" fill="#0E172B"/>
<path fill-rule="evenodd" clip-rule="evenodd" d="M173.113 31.4351C173.286 31.0767 173.786 31.0767 173.959 31.4351L174.559 32.9984L174.077 33.2456C172.408 34.1231 172.723 35.7669 174.04 36.3416L174.077 36.3601L177.309 38.0039L177.339 38.0842L175.418 39.0791L173.959 42.8733C173.786 43.2317 173.286 43.2317 173.113 42.8733L171.654 39.0791L168.775 37.5836C168.429 37.4044 168.429 36.8977 168.775 36.7185L171.654 35.2231L173.113 31.4289V31.4351Z" fill="#0E172B"/>
<path fill-rule="evenodd" clip-rule="evenodd" d="M173.113 31.4351C173.286 31.0767 173.786 31.0767 173.959 31.4351L174.559 32.9984L174.077 33.2456C172.408 34.1231 172.723 35.7669 174.04 36.3416L174.077 36.3601L177.309 38.0039L177.339 38.0842L175.418 39.0791L173.959 42.8733C173.786 43.2317 173.286 43.2317 173.113 42.8733L171.654 39.0791L168.775 37.5836C168.429 37.4044 168.429 36.8977 168.775 36.7185L171.654 35.2231L173.113 31.4289V31.4351Z" fill="#0E172B"/>
<path fill-rule="evenodd" clip-rule="evenodd" d="M173.113 31.4351C173.286 31.0767 173.786 31.0767 173.959 31.4351L174.559 32.9984L174.077 33.2456C172.408 34.1231 172.723 35.7669 174.04 36.3416L174.077 36.3601L177.309 38.0039L177.339 38.0842L175.418 39.0791L173.959 42.8733C173.786 43.2317 173.286 43.2317 173.113 42.8733L171.654 39.0791L168.775 37.5836C168.429 37.4044 168.429 36.8977 168.775 36.7185L171.654 35.2231L173.113 31.4289V31.4351Z" fill="#0E172B"/>
<path fill-rule="evenodd" clip-rule="evenodd" d="M183.309 32.226L181.319 27.1589C181.078 26.683 180.405 26.683 180.164 27.1589L178.174 32.226L174.25 34.2221C173.774 34.4631 173.774 35.1427 174.25 35.3837L178.174 37.3798L180.164 42.4469C180.405 42.9228 181.078 42.9228 181.319 42.4469L183.309 37.3798L187.233 35.3837C187.709 35.1427 187.709 34.4631 187.233 34.2221L183.309 32.226Z" fill="#0E172B"/>
<path fill-rule="evenodd" clip-rule="evenodd" d="M183.309 32.226L181.319 27.1589C181.078 26.683 180.405 26.683 180.164 27.1589L178.174 32.226L174.25 34.2221C173.774 34.4631 173.774 35.1427 174.25 35.3837L178.174 37.3798L180.164 42.4469C180.405 42.9228 181.078 42.9228 181.319 42.4469L183.309 37.3798L187.233 35.3837C187.709 35.1427 187.709 34.4631 187.233 34.2221L183.309 32.226Z" fill="#0E172B"/>
</svg>
