<svg width="44" height="44" viewBox="0 0 44 44" fill="none" xmlns="http://www.w3.org/2000/svg">
<path fill-rule="evenodd" clip-rule="evenodd" d="M16.8509 0.045036C16.4018 0.150918 15.9489 0.529753 15.741 0.973363C15.6194 1.23298 15.6141 1.27776 15.6002 2.17408L15.5856 3.10514L14.8933 3.10608C13.7308 3.10769 13.3798 3.20258 12.9494 3.63167C12.5562 4.02371 12.3954 4.53153 12.4861 5.09502C12.5748 5.64569 12.9279 6.09981 13.4623 6.35042C13.7189 6.47073 13.7674 6.47643 14.6577 6.49109L15.5858 6.50641L15.6002 7.45751C15.6139 8.35647 15.621 8.42157 15.7303 8.64436C15.8915 8.9729 16.1991 9.2863 16.5203 9.44913C16.7676 9.57444 16.8364 9.58721 17.264 9.58721C17.6686 9.58721 17.7686 9.57085 17.9709 9.47167C18.2725 9.32378 18.65 8.94612 18.7979 8.64436C18.9068 8.4219 18.9142 8.35515 18.9286 7.45751L18.9438 6.50636L19.8723 6.49109L20.8008 6.47582L21.1146 6.32114C21.7136 6.02589 22.0555 5.48314 22.0569 4.82522C22.0573 4.64339 22.0319 4.40891 22.0005 4.30411C21.8681 3.86182 21.3686 3.35184 20.9197 3.20056C20.8249 3.16864 20.3553 3.13267 19.8467 3.11843L18.9423 3.09307L18.9278 2.16804C18.9141 1.28752 18.9075 1.23052 18.7917 0.98364C18.6602 0.703332 18.3095 0.320159 18.0717 0.19707C17.7174 0.0136864 17.2375 -0.046043 16.8509 0.045036ZM33.9223 0.0637514C33.5199 0.144082 33.0777 0.326759 32.7174 0.561622C32.1144 0.954647 31.6199 1.59955 30.8576 2.98728C30.386 3.8457 30.166 4.1633 29.7562 4.57711C29.3396 4.9979 29.0164 5.22122 28.0356 5.76618C27.5841 6.01708 27.0273 6.3508 26.7982 6.50773C26.0421 7.02578 25.5602 7.64862 25.2909 8.45579C25.196 8.74044 25.1811 8.87649 25.1828 9.44578C25.1845 10.0374 25.1978 10.1433 25.3112 10.4684C25.6873 11.5474 26.3026 12.1381 28.0554 13.1025C28.9818 13.6123 29.2538 13.7984 29.6923 14.2229C30.1318 14.6483 30.3913 15.0186 30.9037 15.9514C31.8658 17.7034 32.4575 18.3204 33.5363 18.6968C33.8613 18.8102 33.9672 18.8235 34.5586 18.8252C35.1276 18.8268 35.2636 18.812 35.5482 18.717C36.355 18.4476 36.9776 17.9655 37.4955 17.2092C37.6524 16.98 37.9859 16.4229 38.2367 15.9712C38.7762 14.9996 39.0043 14.6677 39.415 14.2569C39.8158 13.8559 40.1586 13.6182 41.0146 13.1474C42.406 12.3821 43.0465 11.8909 43.4393 11.2877C44.1937 10.1293 44.1863 8.69292 43.4201 7.53977C43.0158 6.93149 42.4883 6.5298 41.0272 5.71763C40.118 5.21221 39.8256 5.00894 39.4097 4.59281C38.9937 4.17668 38.7905 3.88421 38.2853 2.97465C37.4734 1.513 37.0719 0.985243 36.4638 0.580856C35.7029 0.0748299 34.7937 -0.110157 33.9223 0.0637514ZM34.3564 3.68263C34.2521 3.84471 33.9918 4.29548 33.7781 4.68441C33.1415 5.84255 32.6738 6.48171 31.983 7.13746C31.3445 7.74352 30.9333 8.01879 29.2807 8.94641C28.6609 9.29427 28.526 9.39204 28.5693 9.4621C28.6048 9.51966 29.0918 9.81048 30.1525 10.4077C31.008 10.8894 31.5586 11.2964 32.133 11.8717C32.8341 12.5741 33.1472 13.0272 34.0402 14.6321C34.2216 14.9581 34.4156 15.2821 34.4712 15.3519L34.5724 15.479L34.669 15.3616C34.7222 15.2971 34.8967 15.0109 35.0569 14.7257C35.9898 13.0649 36.2402 12.6884 36.8272 12.0643C37.504 11.3445 38.1708 10.8518 39.3271 10.2171C40.0899 9.79836 40.614 9.47746 40.614 9.42905C40.614 9.38422 39.9358 8.96809 39.2945 8.61938C38.2758 8.06546 37.7705 7.70666 37.1109 7.06873C36.4257 6.40595 35.9646 5.77552 35.3846 4.70798C35.0402 4.07396 34.6202 3.38799 34.5766 3.38799C34.5598 3.38799 34.4607 3.52061 34.3564 3.68263ZM20.6334 13.6023C18.6818 13.7415 17.227 14.0206 15.7216 14.5445C11.2262 16.109 8.23837 19.6006 7.20376 24.4984C7.04142 25.2669 6.88916 26.3301 6.84793 26.9827C6.83157 27.242 6.8115 27.539 6.8033 27.6427C6.79515 27.7464 6.78629 27.8864 6.78365 27.9537C6.77889 28.0758 6.77729 28.0762 6.27207 28.1052C3.77939 28.2478 1.74132 29.5205 0.748935 31.5541C0.362705 32.3456 0.172559 33.0326 0.0635614 34.0305C-0.162352 36.0984 0.216244 37.9414 1.16268 39.3812C1.44189 39.8058 2.32528 40.6896 2.74978 40.9689C3.70861 41.5996 4.79831 41.965 6.09201 42.0895C8.06769 42.2795 9.97885 41.8729 11.2717 40.9874C11.4448 40.8689 11.5946 40.7719 11.6046 40.7719C11.6146 40.7719 11.8572 40.9479 12.1437 41.1629C14.1467 42.6666 16.6288 43.5651 19.7455 43.9148C20.7587 44.0284 23.2412 44.0284 24.2544 43.9148C27.3712 43.5651 29.8533 42.6666 31.8563 41.1629C32.1428 40.9479 32.3827 40.7719 32.3896 40.7719C32.3964 40.7719 32.5476 40.8696 32.7258 40.9891C34.5136 42.1884 37.4175 42.4871 39.7382 41.7105C40.6716 41.3981 41.3732 40.9588 42.1002 40.2315C43.2706 39.0606 43.8203 37.7547 43.9708 35.7873C44.1211 33.8237 43.6721 31.9768 42.7296 30.6819C41.6107 29.1447 39.8261 28.2253 37.7279 28.1052C37.2552 28.0781 37.2209 28.0695 37.2181 27.9773C37.179 26.7034 36.9652 25.1315 36.6724 23.9656C36.4816 23.2058 36.2503 22.8804 35.6895 22.583C35.4803 22.4721 35.4012 22.458 34.9827 22.4576C34.5622 22.4571 34.4827 22.4712 34.2447 22.5881C33.8842 22.7652 33.6118 23.0417 33.4436 23.4014C33.2365 23.844 33.2281 24.0877 33.3944 24.8378C33.5504 25.5416 33.6531 26.1129 33.6281 26.1379C33.6192 26.1468 33.267 26.1787 32.8455 26.2087C31.871 26.2782 30.1761 26.2417 29.6341 26.1396C27.7567 25.7861 26.1119 24.904 24.7755 23.5338C24.2532 22.9982 23.8771 22.5037 23.4394 21.777C22.9153 20.9069 22.4808 20.6187 21.7397 20.6498C21.4295 20.6628 21.3067 20.6927 21.0564 20.8161C20.6665 21.0083 20.5226 21.1617 20.1432 21.7896C19.3353 23.1267 18.5663 23.9453 17.3674 24.7447C16.2703 25.4761 15.269 25.8819 13.9182 26.1426C13.2441 26.2726 10.5054 26.2714 10.375 26.141C10.335 26.101 10.4925 25.2548 10.666 24.5778C11.6229 20.8424 14.1034 18.3859 17.8766 17.4366C18.9748 17.1603 20.5529 16.9663 21.7172 16.9646C22.4368 16.9635 22.8838 16.7972 23.2463 16.3957C23.6339 15.9666 23.7827 15.3533 23.6283 14.8218C23.5355 14.5025 23.4597 14.3692 23.2286 14.1197C23.0144 13.8884 22.756 13.7226 22.478 13.6382C22.2735 13.5761 21.2735 13.5567 20.6334 13.6023ZM21.0811 26.0418C19.617 27.5103 18.0067 28.4928 16.0623 29.1038C14.6014 29.5628 13.2565 29.7185 11.4206 29.641C10.9023 29.6191 10.407 29.5888 10.32 29.5735L10.1619 29.5459L10.1887 29.82C10.2034 29.9708 10.2282 30.2638 10.2437 30.4713C10.4017 32.5863 11.059 34.7076 11.9968 36.1283C13.6642 38.6548 16.0966 40.0308 19.7616 40.5208C20.243 40.5852 20.7225 40.6027 22 40.6027C23.2775 40.6027 23.757 40.5852 24.2384 40.5208C26.6429 40.1993 28.5281 39.4854 29.9917 38.3422C30.8092 37.7035 31.6392 36.7549 32.1762 35.8453C33.1348 34.2218 33.6016 32.5205 33.8042 29.9123L33.833 29.542L33.5125 29.5718C33.3362 29.5882 32.7784 29.6211 32.273 29.6449C29.6551 29.7679 27.605 29.3511 25.5469 28.2775C24.3177 27.6362 23.4197 26.9734 22.4241 25.9724L21.7879 25.3328L21.0811 26.0418ZM6.24153 31.4914C5.01442 31.6489 4.22123 32.1569 3.78599 33.0641C3.51451 33.6299 3.42483 34.0495 3.3974 34.8824C3.33855 36.6693 3.85649 37.8104 4.97036 38.3479C5.61624 38.6595 5.92576 38.7145 7.03807 38.715C7.98013 38.7154 8.04761 38.7093 8.4427 38.5881C8.67102 38.518 8.963 38.4074 9.0916 38.3422L9.32538 38.2237L9.1433 37.9538C8.83859 37.5024 8.3976 36.6777 8.14577 36.0885C7.55201 34.6991 7.22982 33.4981 6.93935 31.5909C6.91762 31.4484 6.90377 31.4381 6.74143 31.4436C6.64539 31.4469 6.42046 31.4684 6.24153 31.4914ZM37.0621 31.5857C36.9601 32.2641 36.7653 33.2818 36.6497 33.7397C36.2651 35.2643 35.5724 36.8921 34.8565 37.9538L34.6746 38.2237L34.9084 38.3422C35.037 38.4074 35.3289 38.518 35.5573 38.5881C35.9524 38.7093 36.0198 38.7154 36.9619 38.715C38.0801 38.7144 38.3814 38.6602 39.0479 38.3395C39.4597 38.1414 39.9502 37.6821 40.1513 37.3063C40.4904 36.6729 40.6411 35.8504 40.6021 34.8443C40.5724 34.0735 40.4779 33.622 40.2396 33.1112C39.7668 32.098 38.9089 31.5904 37.448 31.4596L37.0859 31.4272L37.0621 31.5857ZM17.6453 32.3362C17.1553 32.4586 16.6667 32.8915 16.478 33.3705C16.3375 33.7272 16.3385 34.2918 16.4802 34.6124C16.6419 34.9781 17.0457 35.5273 17.4543 35.937C18.8398 37.3265 20.8629 38.0178 23.0525 37.8498C23.8325 37.79 24.3551 37.6909 24.9665 37.4868C25.9828 37.1476 26.8348 36.6035 27.5842 35.8149C28.0322 35.3436 28.2822 34.9864 28.4429 34.5885C28.5451 34.3354 28.5583 34.2419 28.5414 33.8922C28.5246 33.5449 28.4995 33.4466 28.3626 33.1902C27.9769 32.4677 27.1401 32.1227 26.3907 32.377C25.9485 32.5271 25.755 32.6787 25.4197 33.1375C24.9535 33.7751 24.3937 34.1565 23.6086 34.3713C23.0805 34.5157 21.8551 34.5137 21.3194 34.3675C20.5409 34.1552 19.9003 33.721 19.5039 33.1369C19.2731 32.7969 19.0338 32.5867 18.7079 32.4374C18.4199 32.3055 17.948 32.2606 17.6453 32.3362Z" fill="#0E172B"/>
</svg>
