<svg width="44" height="44" viewBox="0 0 44 44" fill="none" xmlns="http://www.w3.org/2000/svg">
<path fill-rule="evenodd" clip-rule="evenodd" d="M32.0237 0.060638C31.4788 0.210939 30.9965 0.613375 30.609 1.24117C30.4024 1.57581 30.2852 1.85279 29.5511 3.74041C28.6344 6.09798 27.9174 7.00101 26.3359 7.79042C25.8133 8.05132 25.4738 8.18847 24.2027 8.65229C22.8349 9.15147 22.27 9.43651 21.8254 9.85173C21.3434 10.3018 21.1391 10.7031 21.1038 11.2693C21.0469 12.1818 21.3897 12.8254 22.2263 13.3765C22.6465 13.6534 23.1533 13.8713 24.7449 14.4599C26.8993 15.2566 27.74 15.8138 28.4599 16.9219C28.9281 17.6426 29.1916 18.2316 30.1029 20.595C30.7088 22.1665 31.3746 22.83 32.4086 22.8927C33.2002 22.9408 33.7485 22.6634 34.295 21.9387C34.5548 21.594 34.7979 21.0752 35.2338 19.935C36.1034 17.6599 36.5269 16.8634 37.253 16.1372C37.9492 15.441 38.7184 15.0444 40.9529 14.2292C42.6024 13.6274 43.3441 13.1678 43.717 12.5161C44.1802 11.7065 44.0682 10.7317 43.4297 10.0154C42.9807 9.51157 42.4429 9.22643 40.8449 8.64517C38.5815 7.82187 37.6376 7.29181 36.9741 6.47152C36.3322 5.67801 36.0613 5.11961 35.0431 2.49105C34.5366 1.18327 34.1612 0.628414 33.5345 0.261243C33.1119 0.0136336 32.4925 -0.0686357 32.0237 0.060638ZM18.6161 3.15264C16.1253 3.23506 11.6483 3.6018 9.94143 3.86318C5.14934 4.59714 1.38308 8.37337 0.682269 13.147C0.468467 14.6034 0.230432 17.3062 0.0553363 20.265C-0.0184454 21.5125 -0.0184454 25.6179 0.0553363 26.8654C0.17895 28.9542 0.417315 31.8926 0.539184 32.8293C0.732525 34.3153 1.26682 35.9397 1.9747 37.1937C2.56566 38.2404 3.17567 39.0364 4.0684 39.9255C5.11587 40.9688 6.08139 41.6621 7.34846 42.2808C8.94379 43.0599 10.0403 43.3337 12.5344 43.5757C15.824 43.8949 17.7805 44 20.4312 44C21.6369 44 23.0795 43.9733 23.637 43.9406C26.0322 43.8 29.1119 43.5272 30.1208 43.3663C35.369 42.5291 39.6039 38.1945 40.3006 32.9472C40.445 31.8594 40.6854 28.9248 40.7988 26.8654C40.8752 25.4771 40.9105 22.4583 40.8547 22.0699C40.7935 21.6433 40.6491 21.3484 40.359 21.0573C40.0777 20.775 39.8612 20.6624 39.4679 20.594C38.8994 20.4949 38.3587 20.6767 37.9627 21.1C37.514 21.5798 37.4988 21.6587 37.4978 23.518C37.4966 25.703 37.3903 27.8163 37.141 30.6135C37.0002 32.1927 36.9163 32.8179 36.7631 33.4287C36.2205 35.5919 34.8213 37.5225 32.901 38.7578C31.8916 39.4071 30.5562 39.8991 29.3651 40.0607C28.4246 40.1882 25.9389 40.4079 23.9435 40.5397C22.6938 40.6223 19.3552 40.6502 18.0268 40.5891C15.8508 40.4891 12.9083 40.2512 11.5208 40.063C9.56974 39.7986 7.82344 38.9203 6.40014 37.4877C5.22817 36.308 4.40648 34.821 4.04752 33.2301C3.8315 32.2727 3.54868 29.1256 3.41196 26.1582C3.28759 23.4588 3.42106 19.3019 3.72189 16.5061L3.74843 16.2595L10.3808 16.2468L17.0132 16.234L17.3012 16.1009C18.6375 15.4833 18.6344 13.6439 17.296 13.0188L17.0132 12.8867L10.5914 12.8631L4.16957 12.8395L4.33515 12.3445C5.21657 9.70939 7.54444 7.70608 10.2794 7.22915C10.9241 7.11671 13.5322 6.85674 15.4574 6.71304C17.1804 6.58443 18.2679 6.53681 20.1965 6.5057L22.107 6.47486L22.4211 6.32018C23.1613 5.95565 23.5353 5.12112 23.3134 4.32912C23.1856 3.87289 22.6906 3.35801 22.2262 3.19809C22.0087 3.12323 20.196 3.10041 18.6161 3.15264ZM32.3644 5.80591C31.9446 6.82266 31.1884 8.08494 30.5799 8.78501C29.7436 9.74701 28.4867 10.5995 27.0314 11.1916C26.7333 11.313 26.4712 11.423 26.4491 11.4362C26.427 11.4495 26.6497 11.5603 26.9441 11.6826C29.0717 12.5665 30.3619 13.598 31.3985 15.244C31.7351 15.7785 32.0821 16.4399 32.3137 16.9884C32.4232 17.2477 32.5203 17.4684 32.5296 17.479C32.5389 17.4896 32.5936 17.3835 32.6513 17.2433C32.993 16.4117 33.6497 15.2253 34.0972 14.6311C35.0709 13.3382 36.3516 12.4099 38.2031 11.6552C38.666 11.4665 38.6887 11.4511 38.5703 11.4061C36.6476 10.6751 35.2093 9.70411 34.2688 8.50213C33.701 7.77651 33.1056 6.74741 32.7383 5.85678C32.6539 5.65222 32.5712 5.47019 32.5544 5.45232C32.5375 5.4345 32.4521 5.59362 32.3644 5.80591Z" fill="#0E172B"/>
</svg>
