<svg width="61" height="61" viewBox="0 0 61 61" fill="none" xmlns="http://www.w3.org/2000/svg">
<path d="M46.673 59.0279H4.01675C2.72229 59.0279 1.673 57.9786 1.673 56.6842V3.71543C1.673 2.42098 2.72229 1.37168 4.01675 1.37168H46.673C47.9674 1.37168 49.0167 2.42098 49.0167 3.71543V56.6842C49.0167 57.9786 47.9674 59.0279 46.673 59.0279Z" fill="white"/>
<path d="M28.3917 16.0787V16.8404C28.3917 18.5231 27.0276 19.8873 25.3449 19.8873C23.6622 19.8873 22.298 18.5231 22.298 16.8404V16.0787C22.298 14.396 23.6622 13.0318 25.3449 13.0318C27.0276 13.0318 28.3917 14.396 28.3917 16.0787Z" fill="white"/>
<path d="M25.3449 19.8873C22.3706 19.8873 19.8296 21.735 18.8021 24.3443C20.5177 25.9406 22.8165 26.9186 25.3449 26.9186C27.8732 26.9186 30.1721 25.9406 31.8877 24.3443C30.8602 21.735 28.3191 19.8873 25.3449 19.8873Z" fill="#E32729"/>
<path d="M52.3309 17.8591C53.3665 16.0655 55.6599 15.451 57.4535 16.4865C59.2471 17.5221 59.8616 19.8154 58.8261 21.6091L44.0792 47.1516L37.5839 43.4016L52.3309 17.8591Z" fill="white"/>
<path d="M57.4535 16.4865C55.6599 15.451 53.3665 16.0655 52.3309 17.8591L50.59 20.8748L57.0852 24.6248L58.8261 21.6091C59.8616 19.8154 59.2471 17.5221 57.4535 16.4865Z" fill="#1BA7E0"/>
<path d="M44.0792 47.1516L36.5459 52.6997L37.5839 43.4016L44.0792 47.1516Z" fill="#1BA7E0"/>
<path d="M49.0166 46.879C48.3695 46.879 47.8447 47.4037 47.8447 48.0509V56.6843C47.8447 57.3305 47.319 57.8562 46.6729 57.8562H4.0166C3.37043 57.8562 2.84473 57.3305 2.84473 56.6843V3.71558C2.84473 3.0694 3.37043 2.5437 4.0166 2.5437H46.6729C47.319 2.5437 47.8447 3.0694 47.8447 3.71558V16.4597C47.8447 17.1069 48.3695 17.6316 49.0166 17.6316C49.6637 17.6316 50.1885 17.1069 50.1885 16.4597V3.71558C50.1885 1.77706 48.6114 0.199951 46.6729 0.199951H4.0166C2.07809 0.199951 0.500977 1.77706 0.500977 3.71558V56.6843C0.500977 58.6228 2.07809 60.2 4.0166 60.2H46.6729C48.6114 60.2 50.1885 58.6228 50.1885 56.6843V48.0509C50.1885 47.4037 49.6637 46.879 49.0166 46.879Z" fill="#1D376C"/>
<path d="M36.1261 17.3092C36.1261 11.3644 31.2897 6.52793 25.3449 6.52793C19.4001 6.52793 14.5636 11.3644 14.5636 17.3092C14.5636 20.3932 15.8656 23.1785 17.9482 25.1454C17.9873 25.1871 18.0287 25.2266 18.0741 25.2626C19.9926 27.0179 22.5457 28.0903 25.3448 28.0903C28.1438 28.0903 30.6969 27.0178 32.6154 25.2626C32.6608 25.2266 32.7023 25.187 32.7413 25.1454C34.8242 23.1785 36.1261 20.3932 36.1261 17.3092ZM25.3449 8.87168C29.9973 8.87168 33.7824 12.6567 33.7824 17.3092C33.7824 19.1803 33.1694 20.9104 32.1347 22.3111C31.2705 21.0293 30.0727 20.0324 28.682 19.4169C29.234 18.7036 29.5636 17.81 29.5636 16.8404V16.0787C29.5636 13.7524 27.6712 11.86 25.3449 11.86C23.0186 11.86 21.1261 13.7524 21.1261 16.0787V16.8404C21.1261 17.81 21.4558 18.7036 22.0077 19.4169C20.6171 20.0324 19.4193 21.0293 18.555 22.3111C17.5204 20.9104 16.9074 19.1803 16.9074 17.3092C16.9074 12.6567 20.6924 8.87168 25.3449 8.87168ZM23.4699 16.8404V16.0787C23.4699 15.0449 24.311 14.2037 25.3449 14.2037C26.3787 14.2037 27.2199 15.0449 27.2199 16.0787V16.8404C27.2199 17.8743 26.3787 18.7154 25.3449 18.7154C24.311 18.7154 23.4699 17.8743 23.4699 16.8404ZM20.2483 24.0278C21.2782 22.2014 23.2002 21.0592 25.3449 21.0592C27.4895 21.0592 29.4115 22.2014 30.4415 24.0278C29.0243 25.1054 27.2584 25.7467 25.3449 25.7467C23.4313 25.7467 21.6653 25.1054 20.2483 24.0278Z" fill="#1D376C"/>
<path d="M31.673 51.5279H25.3449C24.6977 51.5279 24.173 52.0526 24.173 52.6998C24.173 53.347 24.6977 53.8717 25.3449 53.8717H31.673C32.3201 53.8717 32.8449 53.347 32.8449 52.6998C32.8449 52.0526 32.3201 51.5279 31.673 51.5279Z" fill="#1D376C"/>
<path d="M31.673 44.9654H15.0324C14.3853 44.9654 13.8605 45.4901 13.8605 46.1373C13.8605 46.7845 14.3853 47.3092 15.0324 47.3092H31.673C32.3201 47.3092 32.8449 46.7845 32.8449 46.1373C32.8449 45.4901 32.3201 44.9654 31.673 44.9654Z" fill="#1D376C"/>
<path d="M31.673 38.4029H15.0324C14.3853 38.4029 13.8605 38.9276 13.8605 39.5748C13.8605 40.222 14.3853 40.7467 15.0324 40.7467H31.673C32.3201 40.7467 32.8449 40.222 32.8449 39.5748C32.8449 38.9276 32.3201 38.4029 31.673 38.4029Z" fill="#1D376C"/>
<path d="M10.8557 32.1838C10.6378 31.9658 10.3355 31.8404 10.0261 31.8404C9.7178 31.8404 9.41546 31.9658 9.19761 32.1838C8.97964 32.4018 8.85425 32.7041 8.85425 33.0123C8.85425 33.3205 8.97952 33.6229 9.19761 33.8408C9.41675 34.0588 9.7178 34.1842 10.0261 34.1842C10.3355 34.1842 10.6367 34.0588 10.8557 33.8408C11.0737 33.6229 11.1992 33.3205 11.1992 33.0123C11.1992 32.7041 11.0738 32.4018 10.8557 32.1838Z" fill="#E32729"/>
<path d="M10.8557 38.7463C10.6367 38.5283 10.3355 38.4029 10.0261 38.4029C9.7178 38.4029 9.41675 38.5283 9.19761 38.7463C8.97964 38.9643 8.85425 39.2666 8.85425 39.5748C8.85425 39.883 8.97952 40.1854 9.19761 40.4033C9.41675 40.6213 9.7178 40.7467 10.0261 40.7467C10.3355 40.7467 10.6367 40.6213 10.8557 40.4033C11.0737 40.1854 11.1992 39.883 11.1992 39.5748C11.1992 39.2666 11.0738 38.9643 10.8557 38.7463Z" fill="#E32729"/>
<path d="M10.0261 44.9654C9.7178 44.9654 9.41675 45.0908 9.19761 45.3088C8.97964 45.5268 8.85425 45.8291 8.85425 46.1373C8.85425 46.4455 8.97952 46.7479 9.19761 46.9658C9.41546 47.1838 9.7178 47.3092 10.0261 47.3092C10.3355 47.3092 10.6378 47.1838 10.8557 46.9658C11.0737 46.7479 11.1992 46.4455 11.1992 46.1373C11.1992 45.8291 11.0738 45.5268 10.8557 45.3088C10.6367 45.0908 10.3355 44.9654 10.0261 44.9654Z" fill="#E32729"/>
<path d="M31.673 31.8404H15.0324C14.3853 31.8404 13.8605 32.3651 13.8605 33.0123C13.8605 33.6595 14.3853 34.1842 15.0324 34.1842H31.673C32.3201 34.1842 32.8449 33.6595 32.8449 33.0123C32.8449 32.3651 32.3201 31.8404 31.673 31.8404Z" fill="#1D376C"/>
<path d="M58.0396 15.4717C56.9011 14.8144 55.5748 14.6397 54.3047 14.9799C53.0349 15.3203 51.9734 16.1347 51.3162 17.2732L36.5691 42.8157C36.4884 42.9558 36.4373 43.111 36.4193 43.2717L35.3813 52.5698C35.3297 53.0325 35.5568 53.4819 35.96 53.7147C36.142 53.8197 36.3441 53.8718 36.5458 53.8718C36.7909 53.8718 37.0352 53.795 37.2408 53.6435L44.7741 48.0954C44.9043 47.9995 45.0133 47.8778 45.094 47.7377L59.841 22.1952C61.198 19.8449 60.3899 16.8287 58.0396 15.4717ZM38.5498 45.3125L41.9414 47.2707L38.0077 50.1678L38.5498 45.3125ZM43.6503 45.5509L39.1848 42.9727L51.019 22.4755L55.4845 25.0536L43.6503 45.5509ZM57.8113 21.0232L56.6562 23.0239L52.1908 20.4458L53.3459 18.4451C53.6902 17.8487 54.2461 17.4221 54.9113 17.2439C55.5767 17.0655 56.2714 17.1572 56.8676 17.5015C57.464 17.8458 57.8905 18.4017 58.0688 19.0669C58.247 19.732 58.1556 20.4268 57.8113 21.0232Z" fill="#1D376C"/>
</svg>
