<svg width="72" height="72" viewBox="0 0 72 72" fill="none" xmlns="http://www.w3.org/2000/svg">
<g clip-path="url(#clip0_2214_209)">
<path d="M52.1729 64.8279H9.5166C8.22215 64.8279 7.17285 63.7786 7.17285 62.4841V9.51538C7.17285 8.22093 8.22215 7.17163 9.5166 7.17163H52.1729C53.4673 7.17163 54.5166 8.22093 54.5166 9.51538V62.4841C54.5166 63.7786 53.4673 64.8279 52.1729 64.8279Z" fill="white"/>
<path d="M33.8916 21.8787V22.6404C33.8916 24.3231 32.5274 25.6873 30.8447 25.6873C29.162 25.6873 27.7979 24.3231 27.7979 22.6404V21.8787C27.7979 20.196 29.162 18.8318 30.8447 18.8318C32.5274 18.8318 33.8916 20.196 33.8916 21.8787Z" fill="white"/>
<path d="M30.8446 25.6873C27.8704 25.6873 25.3293 27.535 24.3018 30.1442C26.0174 31.7406 28.3162 32.7185 30.8446 32.7185C33.3729 32.7185 35.6718 31.7406 37.3874 30.1442C36.3599 27.535 33.8188 25.6873 30.8446 25.6873Z" fill="#E32729"/>
<path d="M57.1609 24.8189L57.8305 23.6591C58.8661 21.8655 61.1594 21.251 62.9531 22.2864C64.7467 23.322 65.3612 25.6154 64.3257 27.4091L49.5787 52.9516L43.0835 49.2016L49.4447 38.1836L57.1609 24.8189Z" fill="white"/>
<path d="M62.9535 22.2865C61.16 21.2509 58.8665 21.8655 57.8309 23.6591L56.0898 26.6747L62.5851 30.4247L64.3261 27.4091C65.3616 25.6156 64.7471 23.3221 62.9535 22.2865Z" fill="#1BA7E0"/>
<path d="M49.5787 52.9517L42.0454 58.4998L43.0835 49.2017L49.5787 52.9517Z" fill="#1BA7E0"/>
<path d="M54.5161 52.6791C53.869 52.6791 53.3442 53.2037 53.3442 53.8509V62.4844C53.3442 63.1305 52.8185 63.6562 52.1724 63.6562H9.51611C8.86994 63.6562 8.34424 63.1305 8.34424 62.4844V9.51562C8.34424 8.86945 8.86994 8.34375 9.51611 8.34375H52.1724C52.8185 8.34375 53.3442 8.86945 53.3442 9.51562V22.2598C53.3442 22.907 53.869 23.4316 54.5161 23.4316C55.1632 23.4316 55.688 22.907 55.688 22.2598V9.51562C55.688 7.57711 54.1109 6 52.1724 6H9.51611C7.5776 6 6.00049 7.57711 6.00049 9.51562V62.4844C6.00049 64.4229 7.5776 66 9.51611 66H52.1724C54.1109 66 55.688 64.4229 55.688 62.4844V53.8509C55.688 53.2037 55.1632 52.6791 54.5161 52.6791Z" fill="#1D376C"/>
<path d="M41.626 23.1091C41.626 17.1643 36.7895 12.3279 30.8447 12.3279C24.8999 12.3279 20.0635 17.1643 20.0635 23.1091C20.0635 26.1932 21.3654 28.9785 23.4481 30.9453C23.4871 30.9871 23.5286 31.0266 23.5739 31.0625C25.4924 32.8179 28.0456 33.8903 30.8446 33.8903C33.6436 33.8903 36.1968 32.8178 38.1153 31.0625C38.1606 31.0266 38.2021 30.9869 38.2411 30.9453C40.324 28.9785 41.626 26.1932 41.626 23.1091ZM30.8447 14.6716C35.4972 14.6716 39.2822 18.4567 39.2822 23.1091C39.2822 24.9803 38.6692 26.7103 37.6346 28.111C36.7703 26.8292 35.5725 25.8323 34.1819 25.2169C34.7338 24.5035 35.0635 23.61 35.0635 22.6404V21.8787C35.0635 19.5524 33.171 17.6599 30.8447 17.6599C28.5184 17.6599 26.626 19.5524 26.626 21.8787V22.6404C26.626 23.61 26.9556 24.5035 27.5076 25.2169C26.1169 25.8323 24.9191 26.8292 24.0549 28.111C23.0202 26.7103 22.4072 24.9803 22.4072 23.1091C22.4072 18.4567 26.1923 14.6716 30.8447 14.6716ZM28.9697 22.6404V21.8787C28.9697 20.8448 29.8109 20.0037 30.8447 20.0037C31.8786 20.0037 32.7197 20.8448 32.7197 21.8787V22.6404C32.7197 23.6742 31.8786 24.5154 30.8447 24.5154C29.8109 24.5154 28.9697 23.6742 28.9697 22.6404ZM25.7481 29.8277C26.7781 28.0014 28.7001 26.8591 30.8447 26.8591C32.9894 26.8591 34.9114 28.0014 35.9413 29.8277C34.5242 30.9054 32.7583 31.5466 30.8447 31.5466C28.9312 31.5466 27.1652 30.9054 25.7481 29.8277Z" fill="#1D376C"/>
<path d="M37.1728 57.3279H30.8447C30.1976 57.3279 29.6729 57.8525 29.6729 58.4998C29.6729 59.147 30.1976 59.6716 30.8447 59.6716H37.1728C37.82 59.6716 38.3447 59.147 38.3447 58.4998C38.3447 57.8525 37.82 57.3279 37.1728 57.3279Z" fill="#1D376C"/>
<path d="M37.1728 50.7654H20.5322C19.8851 50.7654 19.3604 51.29 19.3604 51.9373C19.3604 52.5845 19.8851 53.1091 20.5322 53.1091H37.1728C37.82 53.1091 38.3447 52.5845 38.3447 51.9373C38.3447 51.29 37.82 50.7654 37.1728 50.7654Z" fill="#1D376C"/>
<path d="M37.1728 44.2029H20.5322C19.8851 44.2029 19.3604 44.7275 19.3604 45.3748C19.3604 46.022 19.8851 46.5466 20.5322 46.5466H37.1728C37.82 46.5466 38.3447 46.022 38.3447 45.3748C38.3447 44.7275 37.82 44.2029 37.1728 44.2029Z" fill="#1D376C"/>
<path d="M16.3554 37.9837C16.1376 37.7658 15.8353 37.6404 15.5259 37.6404C15.2176 37.6404 14.9152 37.7658 14.6974 37.9837C14.4794 38.2017 14.354 38.5041 14.354 38.8123C14.354 39.1205 14.4793 39.4228 14.6974 39.6408C14.9165 39.8587 15.2176 39.9841 15.5259 39.9841C15.8353 39.9841 16.1364 39.8587 16.3554 39.6408C16.5734 39.4228 16.6989 39.1205 16.6989 38.8123C16.6989 38.5041 16.5735 38.2017 16.3554 37.9837Z" fill="#E32729"/>
<path d="M16.3554 44.5462C16.1364 44.3283 15.8353 44.2029 15.5259 44.2029C15.2176 44.2029 14.9165 44.3283 14.6974 44.5462C14.4794 44.7642 14.354 45.0666 14.354 45.3748C14.354 45.683 14.4793 45.9853 14.6974 46.2033C14.9165 46.4212 15.2176 46.5466 15.5259 46.5466C15.8353 46.5466 16.1364 46.4212 16.3554 46.2033C16.5734 45.9853 16.6989 45.683 16.6989 45.3748C16.6989 45.0666 16.5735 44.7642 16.3554 44.5462Z" fill="#E32729"/>
<path d="M15.5259 50.7654C15.2176 50.7654 14.9165 50.8908 14.6974 51.1087C14.4794 51.3267 14.354 51.6291 14.354 51.9373C14.354 52.2455 14.4793 52.5478 14.6974 52.7658C14.9152 52.9837 15.2176 53.1091 15.5259 53.1091C15.8353 53.1091 16.1376 52.9837 16.3554 52.7658C16.5734 52.5478 16.6989 52.2455 16.6989 51.9373C16.6989 51.6291 16.5735 51.3267 16.3554 51.1087C16.1364 50.8908 15.8353 50.7654 15.5259 50.7654Z" fill="#E32729"/>
<path d="M37.1728 37.6404H20.5322C19.8851 37.6404 19.3604 38.165 19.3604 38.8123C19.3604 39.4595 19.8851 39.9841 20.5322 39.9841H37.1728C37.82 39.9841 38.3447 39.4595 38.3447 38.8123C38.3447 38.165 37.82 37.6404 37.1728 37.6404Z" fill="#1D376C"/>
<path d="M63.5391 21.2716C62.4006 20.6143 61.0743 20.4397 59.8042 20.7799C58.5344 21.1202 57.4729 21.9347 56.8157 23.0731L42.0686 48.6157C41.9878 48.7557 41.9368 48.911 41.9188 49.0716L40.8808 58.3698C40.8292 58.8324 41.0563 59.2818 41.4594 59.5147C41.6414 59.6197 41.8436 59.6717 42.0453 59.6717C42.2904 59.6717 42.5346 59.595 42.7403 59.4434L50.2736 53.8953C50.4038 53.7995 50.5128 53.6777 50.5935 53.5377L65.3405 27.9951C66.6975 25.6448 65.8894 22.6286 63.5391 21.2716ZM44.0493 51.1125L47.4409 53.0707L43.5072 55.9678L44.0493 51.1125ZM49.1498 51.3508L44.6843 48.7727L56.5185 28.2754L60.9839 30.8536L49.1498 51.3508ZM63.3108 26.8231L62.1557 28.8239L57.6903 26.2458L58.8454 24.245C59.1897 23.6486 59.7456 23.2221 60.4108 23.0438C61.0762 22.8655 61.7709 22.9571 62.3671 23.3014C62.9635 23.6457 63.39 24.2016 63.5683 24.8668C63.7465 25.532 63.6551 26.2268 63.3108 26.8231Z" fill="#1D376C"/>
</g>
<defs>
<clipPath id="clip0_2214_209">
<rect width="60" height="60" fill="white" transform="translate(6 6)"/>
</clipPath>
</defs>
</svg>
