<svg width="143" height="22" viewBox="0 0 143 22" fill="none" xmlns="http://www.w3.org/2000/svg">
<path d="M5.43395 5.94929C5.33488 5.53618 5.3589 5.09896 5.41294 4.86979C5.55404 4.21546 5.99536 3.48575 7.2833 3.48575C8.47817 3.48575 9.18368 4.23355 9.18368 5.34923V6.61869H14.2814V5.17736C14.2814 0.711623 10.2705 0 7.38237 0C3.74973 0 0.783571 1.20916 0.240176 4.56223C0.0930686 5.48191 0.0660488 6.29304 0.282206 7.33032C1.16785 11.5277 8.43314 12.7429 9.4899 15.3994C9.68805 15.8939 9.628 16.5271 9.52893 16.9161C9.36081 17.6066 8.89847 18.3032 7.53248 18.3032C6.25655 18.3032 5.49099 17.5554 5.49099 16.4337L5.48499 14.4586H0V16.0296C0 20.619 3.59061 22 7.43041 22C11.2702 22 14.1583 20.7366 14.6507 17.2991C14.8968 15.5291 14.7107 14.3742 14.6296 13.9369C13.768 9.62801 6.01337 8.35252 5.43095 5.94929H5.43395ZM71.9173 6.00055C71.8272 5.59348 71.8513 5.1653 71.8993 4.93914C72.0464 4.2818 72.4847 3.56414 73.7516 3.56414C74.9315 3.56414 75.625 4.30291 75.625 5.41255V6.66694H80.6657V5.23465C80.6657 0.81113 76.7178 0.114584 73.8567 0.114584C70.2571 0.114584 67.315 1.30565 66.7776 4.63459C66.6365 5.5392 66.6004 6.3443 66.8256 7.36952C67.7022 11.5186 74.8955 12.7248 75.9402 15.3481C76.1234 15.8457 76.0723 16.4789 75.9793 16.8528C75.8231 17.5373 75.3668 18.2218 74.0098 18.2218C72.7369 18.2218 71.9713 17.486 71.9713 16.3794V14.4073H66.5464V15.9723C66.5464 20.5104 70.086 21.8794 73.8987 21.8794C77.7115 21.8794 80.5666 20.625 81.0499 17.2297C81.2811 15.4748 81.107 14.332 81.0139 13.9008C80.1673 9.64309 72.4997 8.36458 71.9203 5.98547L71.9173 6.00055ZM118.337 17.1875L113.522 0.657347H105.935V20.9748H110.955L110.663 3.91393L115.833 20.9748H123.108V0.657347H118.058L118.337 17.1875ZM21.8859 0.657347L18.1002 21.1889H23.6212L26.4763 2.1801L29.2623 21.1889H34.7473L30.9765 0.657347H21.8889H21.8859ZM52.7634 0.657347L50.1845 16.7081L47.6056 0.657347H39.2656L38.8242 21.1889H43.934L44.0721 2.1801L47.5876 21.1889H52.7724L56.2909 2.1801L56.429 21.1889H61.5508L61.0944 0.657347H52.7634ZM100.267 0.657347H95.0972V15.8457C95.1062 16.111 95.0972 16.4065 95.0521 16.6266C94.944 17.1362 94.5147 18.1192 93.0887 18.1192C91.6627 18.1192 91.2394 17.1393 91.1403 16.6266C91.0892 16.4095 91.0832 16.111 91.0892 15.8457V0.657347H85.9195V15.3753C85.9135 15.7552 85.9435 16.5302 85.9645 16.7322C86.3218 20.5677 89.33 21.813 93.0887 21.813C96.8474 21.813 99.8616 20.5677 100.225 16.7322C100.255 16.5302 100.291 15.7552 100.27 15.3753V0.657347H100.267ZM135.765 9.6642V12.6584H137.86V15.6286C137.866 15.8939 137.851 16.1804 137.806 16.4095C137.722 16.9644 137.2 17.9082 135.711 17.9082C134.222 17.9082 133.717 16.9644 133.627 16.4095C133.588 16.1804 133.573 15.8939 133.573 15.6286V6.24479C133.573 5.9131 133.594 5.55126 133.666 5.27385C133.768 4.7733 134.21 3.78728 135.699 3.78728C137.263 3.78728 137.653 4.82758 137.743 5.27385C137.803 5.56935 137.806 6.06689 137.806 6.06689V7.20669H142.955V6.53427C142.955 6.53427 142.979 5.83169 142.916 5.17434C142.529 1.32374 139.37 0.105538 135.747 0.105538C132.123 0.105538 129.022 1.3358 128.572 5.17434C128.529 5.52412 128.469 6.15735 128.469 6.53427V15.1672C128.469 15.5441 128.481 15.8336 128.55 16.5211C128.887 20.2662 132.117 21.5929 135.735 21.5929C139.352 21.5929 142.583 20.2662 142.925 16.5211C142.985 15.8336 142.991 15.5441 143 15.1672V9.66721H135.768L135.765 9.6642Z" fill="#0E172B"/>
</svg>
