<svg width="78" height="78" viewBox="0 0 78 78" fill="none" xmlns="http://www.w3.org/2000/svg">
<path fill-rule="evenodd" clip-rule="evenodd" d="M2.05762 0.115723C1.20605 0.397459 0.371764 1.26064 0.112388 2.12829C-0.0814563 2.77665 -0.0182462 3.76393 0.253428 4.33153C0.414076 4.66719 1.63682 5.94214 5.96624 10.2879C12.2927 16.6383 11.9645 16.3686 13.3648 16.3686C14.0259 16.3686 14.2131 16.3346 14.6305 16.139C15.2554 15.8461 15.8541 15.2474 16.147 14.6225C16.3427 14.2051 16.3766 14.0179 16.3766 13.3568C16.3766 11.9565 16.6463 12.2846 10.2959 5.95822C5.93717 1.61591 4.67555 0.406145 4.33662 0.243519C3.79448 -0.0166311 2.65137 -0.080701 2.05762 0.115723ZM73.4457 0.080377C73.2846 0.129397 72.9557 0.298043 72.7147 0.455165C72.4737 0.612373 69.8349 3.19289 66.8506 6.18973C60.6875 12.3788 61.0106 11.9823 61.0106 13.3586C61.0106 14.0177 61.0447 14.2054 61.2402 14.6225C61.5332 15.2474 62.1318 15.8461 62.7568 16.139C63.1741 16.3346 63.3613 16.3686 64.0224 16.3686C65.4228 16.3686 65.0946 16.6383 71.421 10.2879C75.7029 5.98987 76.9763 4.66289 77.14 4.3286C77.3208 3.95958 77.3506 3.77674 77.3506 3.03861C77.3506 2.29324 77.322 2.12124 77.1356 1.7486C76.8554 1.18823 76.1713 0.503497 75.6318 0.243347C75.1468 0.00951318 73.9679 -0.078379 73.4457 0.080377ZM37.8336 8.62026C36.9218 8.82503 36.154 9.32503 35.4062 10.2015C34.6096 11.1349 33.9653 12.467 32.7564 15.6806C31.1636 19.9142 30.1159 22.2341 28.9888 24.0226C26.5276 27.9282 23.9926 29.5908 16.2046 32.4071C12.1055 33.8894 11.0262 34.4328 9.8721 35.5954C8.11658 37.364 8.09628 39.9651 9.82437 41.7189C11.0126 42.9248 11.9876 43.4139 16.4626 45.0485C19.5583 46.1792 20.4422 46.5411 22.1386 47.3723C25.3427 48.9422 26.9685 50.3104 28.6783 52.8756C29.9885 54.8412 30.8715 56.7246 32.5778 61.1929C34.3354 65.7956 34.708 66.5235 35.8832 67.6481C37.5337 69.2278 39.8535 69.2278 41.504 67.6481C42.6902 66.513 43.0969 65.7041 45.0093 60.6769C46.8505 55.8373 48.2289 53.1982 49.9895 51.1418C51.9312 48.874 54.8668 47.2381 60.9246 45.048C65.2456 43.4857 66.3849 42.9143 67.5629 41.7189C69.291 39.9651 69.2707 37.364 67.5151 35.5954C66.361 34.4328 65.2817 33.8894 61.1826 32.4071C54.6177 30.0331 51.7783 28.4255 49.7694 25.9452C47.9487 23.6974 46.734 21.2709 44.6309 15.6806C43.4219 12.467 42.7777 11.1349 41.9811 10.2015C40.7972 8.81411 39.3785 8.27334 37.8336 8.62026ZM38.1781 18.7551C34.8578 27.5914 32.0837 31.3945 26.6211 34.5984C24.861 35.6306 22.6949 36.5791 19.0426 37.9166C17.0738 38.6375 16.9905 38.677 17.2366 38.7728C17.3785 38.828 18.1332 39.1045 18.9136 39.3873C23.3637 40.9995 26.1694 42.3296 28.4166 43.8922C32.6035 46.8035 35.1859 50.6759 38.1022 58.4166C38.3975 59.2003 38.6636 59.8416 38.6936 59.8416C38.7236 59.8416 38.9897 59.2003 39.285 58.4166C41.0397 53.7593 42.545 50.7705 44.3497 48.3606C47.3143 44.4017 50.8721 42.1413 58.4736 39.3873C59.2541 39.1045 60.0087 38.828 60.1506 38.7728C60.3968 38.677 60.3134 38.6375 58.3446 37.9166C52.9762 35.9506 50.396 34.6469 47.8096 32.5933C44.3057 29.8113 41.9228 25.977 39.2091 18.7551C38.9558 18.0811 38.7239 17.5296 38.6936 17.5296C38.6634 17.5296 38.4314 18.0811 38.1781 18.7551ZM12.2823 61.1578C12.0171 61.2693 11.6882 61.4416 11.5513 61.541C11.4146 61.6402 8.86254 64.172 5.88024 67.167C1.67019 71.395 0.410722 72.7088 0.247236 73.0426C0.0664636 73.4117 0.0366218 73.5945 0.0366218 74.3326C0.0366218 75.3672 0.2106 75.8051 0.892408 76.4868C1.57413 77.1686 2.01204 77.3426 3.04662 77.3426C3.78476 77.3426 3.9676 77.3128 4.33662 77.132C4.6709 76.9683 5.99788 75.6948 10.2959 71.413C16.6463 65.0866 16.3766 65.4147 16.3766 64.0144C16.3766 63.3533 16.3427 63.1661 16.147 62.7488C15.8535 62.1227 15.2543 61.5242 14.6305 61.234C13.9278 60.9071 12.954 60.8756 12.2823 61.1578ZM62.9303 61.1602C61.215 61.8808 60.488 63.734 61.2871 65.349C61.5336 65.8472 62.134 66.4744 67.0913 71.413C71.3894 75.6948 72.7163 76.9683 73.0506 77.132C73.4196 77.3128 73.6025 77.3426 74.3406 77.3426C75.086 77.3426 75.258 77.314 75.6306 77.1276C75.8671 77.0094 76.2541 76.7191 76.4906 76.4826C76.7271 76.2461 77.0174 75.8591 77.1356 75.6226C77.322 75.25 77.3506 75.078 77.3506 74.3326C77.3506 73.5945 77.3208 73.4116 77.14 73.0426C76.9763 72.7083 75.7029 71.3813 71.421 67.0833C65.1748 60.8134 65.4273 61.0242 64.1087 60.9789C63.5399 60.9593 63.3328 60.9912 62.9303 61.1602Z" fill="#2B7FFF"/>
</svg>
