<svg width="36" height="36" viewBox="0 0 36 36" fill="none" xmlns="http://www.w3.org/2000/svg">
<path d="M18 0C8.082 0 0 8.082 0 18C0 27.918 8.082 36 18 36C27.918 36 36 27.918 36 18C36 8.082 27.918 0 18 0ZM26.604 13.86L16.398 24.066C16.146 24.318 15.804 24.462 15.444 24.462C15.084 24.462 14.742 24.318 14.49 24.066L9.396 18.972C8.874 18.45 8.874 17.586 9.396 17.064C9.918 16.542 10.782 16.542 11.304 17.064L15.444 21.204L24.696 11.952C25.218 11.43 26.082 11.43 26.604 11.952C27.126 12.474 27.126 13.32 26.604 13.86Z" fill="white"/>
</svg>
