<svg width="73" height="45" viewBox="0 0 73 45" fill="none" xmlns="http://www.w3.org/2000/svg">
<path d="M72.4668 31.3749L71.6207 24.2867C71.5297 23.5248 70.8446 22.9765 70.0814 23.0544C67.2846 23.3406 64.7376 21.3015 64.4045 18.5098C64.0712 15.7181 66.0665 13.1373 68.8522 12.7567C69.6125 12.6528 70.1492 11.9587 70.0582 11.1968L69.2122 4.10857C69.0659 2.88401 68.4517 1.78967 67.4825 1.02706C66.5132 0.264588 65.3051 -0.0747396 64.0806 0.0712291L14.6871 5.96693C13.4749 6.11163 12.3908 6.71562 11.6293 7.66793H5.117C2.57113 7.66821 0.5 9.73934 0.5 12.2851V19.4236C0.5 20.191 1.11523 20.8167 1.88234 20.8297C4.69358 20.8774 6.9807 23.2036 6.9807 26.0151C6.9807 28.8267 4.69358 31.1529 1.88234 31.2007C1.11523 31.2135 0.5 31.8393 0.5 32.6065V39.7451C0.5 42.2908 2.57113 44.3619 5.117 44.3619H54.8611C57.407 44.3619 59.4781 42.2908 59.4781 39.7449V37.5749L68.4296 36.5065C69.6542 36.3604 70.7485 35.7461 71.5111 34.7768C72.2735 33.8074 72.6129 32.5993 72.4668 31.3749ZM56.6656 39.7449C56.6656 40.7398 55.8562 41.5494 54.8611 41.5494H46.1418V38.9128C46.1418 38.1362 45.5122 37.5066 44.7356 37.5066C43.9589 37.5066 43.3293 38.1362 43.3293 38.9128V41.5493H5.117C4.12208 41.5493 3.3125 40.7398 3.3125 39.7448V33.87C4.89242 33.5675 6.34353 32.7949 7.49455 31.6259C8.97688 30.1205 9.7932 28.1279 9.7932 26.015C9.7932 23.9021 8.97688 21.9094 7.49455 20.4041C6.34339 19.235 4.89242 18.4624 3.3125 18.16V12.2851C3.3125 11.2902 4.12194 10.4806 5.117 10.4806H43.3295V27.6046C43.3295 28.3813 43.959 29.0109 44.7357 29.0109C45.5124 29.0109 46.142 28.3813 46.142 27.6046V10.4807H54.8613C55.8562 10.4807 56.6658 11.2902 56.6658 12.2852V18.1601C55.0858 18.4626 53.6347 19.2352 52.4836 20.4042C51.0013 21.9096 50.1851 23.9022 50.1851 26.0151C50.1851 28.128 51.0014 30.1207 52.4836 31.6261C53.6347 32.7951 55.0858 33.5677 56.6658 33.8702L56.6656 39.7449ZM69.3006 33.0379C69.0027 33.4167 68.5749 33.6568 68.0963 33.7139L59.4781 34.7426V32.6065C59.4781 31.8391 58.8629 31.2135 58.0958 31.2004C55.2845 31.1527 52.9974 28.8265 52.9974 26.0149C52.9974 23.2032 55.2845 20.8771 58.0958 20.8294C58.863 20.8164 59.4781 20.1907 59.4781 19.4233V12.2848C59.4781 9.73892 57.407 7.66779 54.8611 7.66779H24.1666L64.4139 2.86404C64.8922 2.80681 65.3647 2.93956 65.7435 3.23754C66.1224 3.53553 66.3624 3.96331 66.4195 4.44185L67.1159 10.2754C65.5829 10.7631 64.2336 11.7022 63.2292 12.9993C61.9358 14.6698 61.3614 16.7451 61.6118 18.8431C61.8623 20.9411 62.9091 22.8231 64.5592 24.1421C65.8407 25.1666 67.3731 25.7616 68.9778 25.8748L69.6741 31.7083C69.7312 32.1869 69.5986 32.6591 69.3006 33.0379Z" fill="#1D376C"/>
<path d="M46.0339 32.7194C45.9988 32.635 45.9552 32.5535 45.9045 32.4775C45.8539 32.4002 45.7949 32.3285 45.7302 32.2638C45.6655 32.1991 45.5924 32.14 45.5164 32.0894C45.4391 32.0374 45.3575 31.9952 45.2731 31.96C45.1888 31.9249 45.1002 31.8967 45.0102 31.8785C44.8288 31.8433 44.6417 31.8433 44.4603 31.8785C44.3703 31.8967 44.2831 31.9249 44.1974 31.96C44.113 31.9952 44.0314 32.0374 43.9555 32.0894C43.8781 32.14 43.8064 32.1991 43.7417 32.2638C43.6756 32.3285 43.618 32.4002 43.5659 32.4775C43.5153 32.5535 43.4717 32.635 43.4366 32.7194C43.4014 32.8052 43.3747 32.8938 43.3564 32.9838C43.3381 33.0738 43.3297 33.1666 43.3297 33.258C43.3297 33.3494 43.3381 33.4422 43.3564 33.5322C43.3747 33.6222 43.4014 33.7108 43.4366 33.7952C43.4717 33.881 43.5153 33.9625 43.5659 34.0385C43.618 34.1158 43.6756 34.1875 43.7417 34.2522C43.8064 34.3169 43.8781 34.376 43.9555 34.4266C44.0314 34.4772 44.113 34.5208 44.1974 34.556C44.2831 34.5911 44.3703 34.6193 44.4603 34.6361C44.5517 34.6544 44.6431 34.6642 44.736 34.6642C44.8274 34.6642 44.9188 34.6544 45.0102 34.6361C45.1002 34.6193 45.1888 34.5911 45.2731 34.556C45.3575 34.5208 45.4391 34.4772 45.5164 34.4266C45.5924 34.376 45.6655 34.3169 45.7302 34.2522C45.7949 34.1875 45.8539 34.1158 45.9045 34.0385C45.9552 33.9625 45.9988 33.881 46.0339 33.7952C46.0691 33.7108 46.0958 33.6222 46.1141 33.5322C46.1324 33.4422 46.1422 33.3494 46.1422 33.258C46.1422 33.1666 46.1324 33.0738 46.1141 32.9838C46.0958 32.8938 46.0691 32.8052 46.0339 32.7194Z" fill="#1BA7E0"/>
<path d="M34.509 22.378L28.3317 21.4804L25.5691 15.8828C25.3321 15.4029 24.8433 15.099 24.3081 15.099C23.7729 15.099 23.2839 15.4029 23.0471 15.8828L20.2845 21.4804L14.1073 22.378C13.5776 22.4549 13.1376 22.826 12.972 23.3351C12.8065 23.8442 12.9446 24.403 13.328 24.7766L17.7977 29.1338L16.7425 35.2861C16.6519 35.8136 16.8688 36.3468 17.3019 36.6616C17.7349 36.9761 18.309 37.0178 18.7828 36.7686L24.3081 33.8638L29.8333 36.7686C30.039 36.8769 30.2637 36.9302 30.4874 36.9302C30.779 36.9302 31.0692 36.8396 31.3142 36.6616C31.7473 36.347 31.9642 35.8137 31.8736 35.2861L30.8183 29.1338L35.2884 24.7766C35.6717 24.403 35.8097 23.8442 35.6443 23.3351C35.4789 22.826 35.0388 22.4551 34.509 22.378ZM28.3259 27.6358C27.9944 27.9588 27.8431 28.4243 27.9215 28.8805L28.6199 32.9531L24.9624 31.0304C24.5528 30.8149 24.0634 30.8149 23.6536 31.0304L19.9961 32.9533L20.6946 28.8806C20.7306 28.6711 20.716 28.4602 20.6599 28.2615C20.5938 28.0275 20.4695 27.8106 20.2902 27.636L17.3313 24.7518L21.4205 24.1573C21.4627 24.1511 21.5038 24.1413 21.5448 24.1315C21.9493 24.0349 22.2934 23.7648 22.4794 23.3881L24.3082 19.6826L26.1369 23.3881C26.3418 23.8031 26.7377 24.0908 27.1957 24.1573L31.2849 24.7516L28.3259 27.6358Z" fill="#E32729"/>
</svg>
