<svg width="72" height="72" viewBox="0 0 72 72" fill="none" xmlns="http://www.w3.org/2000/svg">
<g clip-path="url(#clip0_2214_210)">
<path d="M71.9668 45.1742L71.1207 38.086C71.0297 37.3241 70.3446 36.7758 69.5814 36.8537C66.7846 37.1399 64.2376 35.1008 63.9045 32.3092C63.5712 29.5175 65.5665 26.9366 68.3522 26.556C69.1125 26.4521 69.6492 25.758 69.5582 24.9961L68.7122 17.9079C68.5659 16.6833 67.9517 15.589 66.9825 14.8264C66.0132 14.0639 64.8051 13.7246 63.5806 13.8705L14.1871 19.7662C12.9749 19.911 11.8908 20.5149 11.1293 21.4672H4.617C2.07113 21.4675 0 23.5387 0 26.0844V33.2229C0 33.9903 0.615234 34.616 1.38234 34.629C4.19358 34.6767 6.4807 37.0029 6.4807 39.8145C6.4807 42.626 4.19358 44.9522 1.38234 45C0.615234 45.0128 0 45.6386 0 46.4058V53.5444C0 56.0901 2.07113 58.1612 4.617 58.1612H44.2356H54.3611C56.907 58.1612 58.9781 56.0901 58.9781 53.5442V51.3742L67.9296 50.3058C69.1542 50.1597 70.2485 49.5454 71.0111 48.5761C71.7735 47.6068 72.1129 46.3987 71.9668 45.1742ZM56.1656 48.8775V51.7099V53.5442C56.1656 54.5392 55.3562 55.3487 54.3611 55.3487H45.6418V52.9661V52.7122C45.6418 51.9355 45.0122 51.3059 44.2356 51.3059C43.4589 51.3059 42.8293 51.9355 42.8293 52.7122V53.3018V55.3486H25.6812H15.274H4.617C3.62208 55.3486 2.8125 54.5392 2.8125 53.5441V47.6693C4.39242 47.3669 5.84353 46.5943 6.99455 45.4253C8.47687 43.9199 9.2932 41.9272 9.2932 39.8143C9.2932 37.7014 8.47687 35.7088 6.99455 34.2034C5.84339 33.0344 4.39242 32.2618 2.8125 31.9593V26.0844C2.8125 25.0895 3.62194 24.2799 4.617 24.2799H10.1183H12.933H42.8295V41.4039C42.8295 42.1806 43.459 42.8102 44.2357 42.8102C45.0124 42.8102 45.642 42.1806 45.642 41.4039V24.28H54.3613C55.3562 24.28 56.1658 25.0895 56.1658 26.0845V31.9594C54.5858 32.2619 53.1347 33.0345 51.9836 34.2035C50.5013 35.7089 49.6851 37.7016 49.6851 39.8145C49.6851 41.9273 50.5014 43.92 51.9836 45.4254C53.1347 46.5944 54.5858 47.367 56.1658 47.6695V48.8775H56.1656ZM68.8006 46.8373C68.5027 47.216 68.0749 47.4562 67.5963 47.5132L58.9781 48.5419V46.4058C58.9781 45.6384 58.3629 45.0128 57.5958 44.9997C54.7845 44.952 52.4974 42.6258 52.4974 39.8142C52.4974 37.0025 54.7845 34.6764 57.5958 34.6288C58.363 34.6157 58.9781 33.99 58.9781 33.2227V26.0841C58.9781 23.5382 56.907 21.4671 54.3611 21.4671H44.2356H23.6666L63.9139 16.6634C64.3922 16.6061 64.8647 16.7389 65.2435 17.0369C65.6224 17.3348 65.8624 17.7626 65.9195 18.2412L66.6159 24.0747C65.0829 24.5624 63.7336 25.5015 62.7292 26.7986C61.4358 28.4691 60.8614 30.5445 61.1118 32.6424C61.3623 34.7404 62.4091 36.6224 64.0592 37.9415C65.3407 38.9659 66.8731 39.5609 68.4778 39.6741L69.1741 45.5077C69.2312 45.9862 69.0986 46.4584 68.8006 46.8373Z" fill="#1D376C"/>
<path d="M45.5338 46.5187C45.4987 46.4343 45.4551 46.3527 45.4044 46.2768C45.3538 46.1995 45.2947 46.1277 45.2301 46.063C45.1654 45.9984 45.0922 45.9393 45.0163 45.8887C44.939 45.8366 44.8574 45.7945 44.773 45.7593C44.6887 45.7241 44.6001 45.696 44.5101 45.6777C44.3287 45.6426 44.1416 45.6426 43.9602 45.6777C43.8702 45.696 43.783 45.7241 43.6972 45.7593C43.6129 45.7945 43.5313 45.8366 43.4554 45.8887C43.378 45.9393 43.3063 45.9984 43.2416 46.063C43.1755 46.1277 43.1179 46.1995 43.0658 46.2768C43.0152 46.3527 42.9716 46.4343 42.9365 46.5187C42.9013 46.6045 42.8746 46.693 42.8563 46.783C42.838 46.873 42.8296 46.9659 42.8296 47.0573C42.8296 47.1487 42.838 47.2415 42.8563 47.3315C42.8746 47.4215 42.9013 47.5101 42.9365 47.5945C42.9716 47.6802 43.0152 47.7618 43.0658 47.8377C43.1179 47.9151 43.1755 47.9868 43.2416 48.0515C43.3063 48.1162 43.378 48.1752 43.4554 48.2259C43.5313 48.2765 43.6129 48.3201 43.6972 48.3552C43.783 48.3904 43.8702 48.4185 43.9602 48.4354C44.0516 48.4537 44.143 48.4635 44.2358 48.4635C44.3272 48.4635 44.4187 48.4537 44.5101 48.4354C44.6001 48.4185 44.6887 48.3904 44.773 48.3552C44.8574 48.3201 44.939 48.2765 45.0163 48.2259C45.0922 48.1752 45.1654 48.1162 45.2301 48.0515C45.2947 47.9868 45.3538 47.9151 45.4044 47.8377C45.4551 47.7618 45.4987 47.6802 45.5338 47.5945C45.569 47.5101 45.5957 47.4215 45.614 47.3315C45.6322 47.2415 45.6421 47.1487 45.6421 47.0573C45.6421 46.9659 45.6322 46.873 45.614 46.783C45.5957 46.693 45.569 46.6045 45.5338 46.5187Z" fill="#1BA7E0"/>
<path d="M34.009 36.1772L27.8316 35.2796L25.069 29.682C24.8321 29.2021 24.3433 28.8982 23.808 28.8982C23.2728 28.8982 22.7839 29.2021 22.5471 29.682L20.1164 34.6071L19.7845 35.2796L17.4462 35.6194L13.6072 36.1772C13.0775 36.2541 12.6375 36.6253 12.472 37.1343C12.3065 37.6434 12.4446 38.2022 12.8279 38.5759L16.548 42.2022L17.2977 42.933L16.8724 45.4126L16.2424 49.0853C16.1519 49.6128 16.3687 50.1461 16.8018 50.4608C17.2348 50.7754 17.809 50.817 18.2827 50.5678L23.808 47.6631L29.3332 50.5678C29.5389 50.6761 29.7637 50.7294 29.9874 50.7294C30.2789 50.7294 30.5692 50.6388 30.8141 50.4608C31.2472 50.1462 31.4641 49.613 31.3735 49.0853L30.3183 42.933L34.7883 38.5759C35.1717 38.2022 35.3096 37.6434 35.1442 37.1343C34.9789 36.6253 34.5387 36.2543 34.009 36.1772ZM27.8258 41.4351C27.4944 41.7581 27.3431 42.2235 27.4214 42.6797L28.1199 46.7524L24.4624 44.8296C24.0527 44.6142 23.5634 44.6142 23.1536 44.8296L19.4961 46.7525L20.1945 42.6799C20.2305 42.4703 20.2159 42.2594 20.1598 42.0607C20.0937 41.8267 19.9694 41.6098 19.7901 41.4352L18.0573 39.7461L16.8312 38.551L18.2448 38.3454L20.9204 37.9566C20.9626 37.9504 21.0037 37.9405 21.0448 37.9307C21.4492 37.8341 21.7933 37.5641 21.9794 37.1873L23.8082 33.4819L25.6369 37.1873C25.8418 37.6023 26.2376 37.89 26.6956 37.9566L30.7849 38.5508L27.8258 41.4351Z" fill="#E32729"/>
</g>
<defs>
<clipPath id="clip0_2214_210">
<rect width="72" height="72" fill="white"/>
</clipPath>
</defs>
</svg>
