<svg width="68" height="68" viewBox="0 0 68 68" fill="none" xmlns="http://www.w3.org/2000/svg">
<rect width="68" height="68" rx="34" fill="#020617"/>
<path d="M34 16C24.082 16 16 24.082 16 34C16 43.918 24.082 52 34 52C43.918 52 52 43.918 52 34C52 24.082 43.918 16 34 16ZM42.604 29.86L32.398 40.066C32.146 40.318 31.804 40.462 31.444 40.462C31.084 40.462 30.742 40.318 30.49 40.066L25.396 34.972C24.874 34.45 24.874 33.586 25.396 33.064C25.918 32.542 26.782 32.542 27.304 33.064L31.444 37.204L40.696 27.952C41.218 27.43 42.082 27.43 42.604 27.952C43.126 28.474 43.126 29.32 42.604 29.86Z" fill="white"/>
</svg>
