<svg width="44" height="44" viewBox="0 0 44 44" fill="none" xmlns="http://www.w3.org/2000/svg">
<path fill-rule="evenodd" clip-rule="evenodd" d="M12.8509 0.0566673C12.3533 0.190836 11.9084 0.589098 11.7117 1.07651C11.6105 1.32731 11.6065 1.40005 11.5909 3.29443L11.5748 5.25307L9.84515 5.31078C6.46298 5.42354 1.538 5.75783 1.13056 5.90228C0.680823 6.06167 0.322232 6.39765 0.11349 6.85527C-0.047298 7.20771 -0.0356513 7.83791 0.13834 8.20035C0.289886 8.51606 0.694262 8.91527 0.999005 9.05005C1.32732 9.19525 1.59774 9.20175 2.92875 9.09634C5.19775 8.91668 5.11283 8.91847 5.13777 9.04887C5.14966 9.11081 5.21388 9.4518 5.28055 9.80655C5.49113 10.9276 5.98924 12.2808 6.58911 13.3614C7.40286 14.8271 8.35778 16.0689 9.86047 17.6155C10.2718 18.0388 10.5872 18.3994 10.5613 18.4169C10.5355 18.4343 10.2399 18.6423 9.90432 18.8791C8.60062 19.799 7.02357 20.8004 5.2375 21.8424C4.71977 22.1444 4.21539 22.4697 4.1167 22.5651C4.01801 22.6605 3.86948 22.8761 3.78663 23.044C3.65036 23.3204 3.63617 23.3899 3.63768 23.7748C3.63909 24.1469 3.65579 24.2318 3.77131 24.4538C3.96539 24.8269 4.27371 25.1323 4.61519 25.2898C4.86571 25.4053 4.96836 25.4253 5.30992 25.4255C5.78432 25.4258 5.86948 25.3913 6.93667 24.7675C8.93261 23.6009 11.3036 22.0652 12.6117 21.0918L13.2886 20.5882L13.6255 20.844C15.0519 21.9273 17.8243 23.753 18.3475 23.9535C18.6331 24.063 19.1563 24.0714 19.4384 23.971C19.8915 23.8097 20.2292 23.4985 20.441 23.0472C20.5446 22.8261 20.5636 22.7201 20.5636 22.3604C20.5636 21.9746 20.5492 21.9056 20.4084 21.6199C20.2094 21.2159 20.0785 21.107 18.9192 20.381C18.055 19.8397 16.8499 19.0274 16.2101 18.555L15.9588 18.3694L16.7761 17.5369C18.3955 15.8873 19.3543 14.5898 20.213 12.8858C20.8011 11.7189 21.1439 10.7065 21.3466 9.53863C21.4005 9.22749 21.4533 8.96411 21.4638 8.95336C21.4743 8.94261 22.2796 8.99352 23.2535 9.06645C25.2863 9.21868 25.3449 9.21462 25.834 8.88679C26.3506 8.54058 26.6065 8.01107 26.5653 7.37379C26.5387 6.96426 26.4216 6.69065 26.1393 6.37828C25.877 6.08811 25.5592 5.90982 25.1845 5.84264C24.4547 5.71182 18.8658 5.37319 16.0724 5.29055L14.9761 5.25812L14.9755 3.36769C14.9751 1.93738 14.9596 1.41942 14.9117 1.23971C14.6766 0.357249 13.737 -0.182205 12.8509 0.0566673ZM10.5674 8.66489C10.0228 8.68445 9.365 8.70374 9.10566 8.70774C8.84633 8.7118 8.60679 8.73245 8.57331 8.75366C8.52451 8.78459 8.53234 8.88382 8.61288 9.2554C8.76065 9.93732 8.99542 10.5818 9.38593 11.3772C10.0979 12.8275 11.0291 14.0298 12.7039 15.6608L13.2782 16.2201L13.7501 15.7851C15.6302 14.052 17.0507 12.0442 17.6842 10.2247C17.8624 9.71287 18.0688 8.82008 18.0203 8.77153C17.9312 8.68243 12.3169 8.6021 10.5674 8.66489ZM31.4793 16.4677C30.4348 16.6454 29.5233 17.143 28.5857 18.0471C27.6402 18.9589 26.8247 20.1404 25.9985 21.7958C24.6272 24.5431 23.341 28.5441 22.1718 33.6993C21.5447 36.4643 20.4804 41.912 20.4808 42.3552C20.4811 42.9004 20.7606 43.4212 21.2176 43.7283C21.5252 43.935 21.767 44.0002 22.2139 43.997C22.7684 43.9931 23.1537 43.788 23.5281 43.2976C23.6201 43.1771 23.7183 42.9994 23.7462 42.9028C23.7741 42.8062 23.9561 41.8998 24.1506 40.8886C24.3451 39.8774 24.6414 38.3712 24.809 37.5414C24.9767 36.7117 25.1138 36.017 25.1138 35.9975C25.1138 35.978 28.3154 35.9622 32.2286 35.9622H39.3434L39.3716 36.0742C39.4363 36.3322 40.0365 39.3479 40.345 40.9656C40.5281 41.9253 40.7206 42.8247 40.7728 42.9641C40.9061 43.3203 41.2251 43.6573 41.6073 43.8453C41.8879 43.9835 41.9645 44 42.3233 44C42.6759 44 42.7626 43.982 43.0315 43.8532C43.4178 43.6683 43.6661 43.4214 43.8441 43.0453C44.0859 42.5342 44.0813 42.4781 43.5797 39.875C43.3325 38.5915 43.0142 36.9793 42.8724 36.2922C40.3363 23.996 37.4329 17.8209 33.6228 16.6195C32.9279 16.4004 32.1844 16.3478 31.4793 16.4677ZM31.6383 19.9497C30.5674 20.4699 29.3316 22.3368 28.2162 25.1193C27.495 26.9184 26.6852 29.4863 26.1051 31.8136C26.0243 32.1377 25.9471 32.44 25.9336 32.4854C25.9103 32.5637 26.2321 32.5679 32.2306 32.5679C37.4636 32.5679 38.5521 32.5571 38.5521 32.5051C38.5521 32.4706 38.4026 31.8819 38.2198 31.1969C37.309 27.7832 36.3946 25.1785 35.4366 23.2685C34.7647 21.9291 34.2217 21.1245 33.5581 20.4849C33.0582 20.0031 32.7244 19.8244 32.2818 19.802C32.0099 19.7883 31.9356 19.8053 31.6383 19.9497Z" fill="#0E172B"/>
</svg>
