<svg width="28" height="28" viewBox="0 0 28 28" fill="none" xmlns="http://www.w3.org/2000/svg">
<path fill-rule="evenodd" clip-rule="evenodd" d="M12.5341 1.00499C11.3155 1.03778 9.60636 1.12746 9.06206 1.18713C6.85799 1.42874 5.05795 3.05817 4.46942 5.34446C4.3463 5.82273 4.30447 6.16721 4.21966 7.40036C4.05684 9.76779 4 11.4922 4 14.0644C4 16.6365 4.05684 18.3609 4.21966 20.7284C4.30447 21.9615 4.3463 22.306 4.46942 22.7843C5.05795 25.0705 6.85799 26.7 9.06206 26.9416C10.0511 27.05 11.9551 27.1227 13.8081 27.1227C16.1228 27.1227 18.262 27.0193 19.0301 26.8704C19.5935 26.7611 20.3552 26.4433 20.8361 26.1167C22.1773 25.2058 23.0733 23.7222 23.287 22.0586C23.3353 21.682 23.452 19.9826 23.509 18.8244C23.6583 15.7919 23.6583 12.3368 23.509 9.30436C23.452 8.14608 23.3353 6.44676 23.287 6.07013C23.0108 3.92007 21.5938 2.0992 19.6846 1.44112C18.9967 1.20404 18.4658 1.14253 16.2581 1.04411C15.5974 1.01468 13.1351 0.988806 12.5341 1.00499ZM12.1981 3.02099C10.848 3.06949 9.47254 3.15074 9.10406 3.2038C8.82597 3.24381 8.49655 3.34859 8.22514 3.48335C7.29902 3.94317 6.57944 4.94577 6.35886 6.08371C6.25896 6.59905 6.08718 9.4667 6.02502 11.6564C5.98789 12.9648 5.98789 15.1639 6.02502 16.4724C6.08718 18.662 6.25896 21.5297 6.35886 22.045C6.6518 23.5562 7.77474 24.7342 9.10406 24.9248C9.33501 24.9579 10.2131 25.0195 11.2321 25.074C12.1089 25.121 15.5072 25.121 16.3841 25.074C17.403 25.0195 18.2811 24.9579 18.5121 24.9248C19.8417 24.7342 20.9644 23.5556 21.2577 22.0427C21.3138 21.7535 21.4183 20.3868 21.4943 18.9504C21.656 15.8911 21.656 12.2376 21.4943 9.17836C21.4183 7.74193 21.3138 6.37525 21.2577 6.08604C21.0196 4.85762 20.2075 3.79947 19.1896 3.39132C18.7297 3.20688 18.3947 3.1639 16.7061 3.07273C15.958 3.03236 12.869 2.99688 12.1981 3.02099ZM9.13974 6.07229C8.85473 6.12829 8.5892 6.33235 8.445 6.60614C8.37293 6.74306 8.36604 6.7817 8.36604 7.05011C8.36604 7.30818 8.37458 7.36099 8.43604 7.48231C8.51903 7.64617 8.73371 7.86961 8.87861 7.94289C9.05686 8.03305 9.26168 8.05811 9.81641 8.05766C10.4421 8.05715 10.613 8.02711 10.8252 7.88017C11.008 7.75361 11.1165 7.61677 11.2021 7.40492C11.2935 7.17871 11.2831 6.85744 11.177 6.63011C11.0448 6.34669 10.7632 6.1291 10.4522 6.07013C10.2755 6.03662 9.3132 6.03819 9.13974 6.07229ZM9.00509 12.5937C8.72243 12.6497 8.43321 12.8826 8.29386 13.1666C8.23556 13.2854 8.22514 13.3469 8.22514 13.5726C8.22514 13.8051 8.23469 13.8581 8.30088 13.9928C8.40367 14.2022 8.58077 14.3752 8.79915 14.4796L8.98114 14.5666H9.68115H10.3811L10.5438 14.4904C10.6391 14.4458 10.7685 14.3507 10.8563 14.2607C11.0504 14.0619 11.1291 13.8634 11.1291 13.5726C11.1291 13.2842 11.0502 13.0831 10.8606 12.8889C10.6881 12.7123 10.5506 12.6367 10.3261 12.5952C10.1372 12.5603 9.1795 12.5592 9.00509 12.5937ZM9.05204 9.49723C8.73671 9.56493 8.40496 9.88576 8.33006 10.1954C8.31203 10.2701 8.30285 10.428 8.30971 10.5464C8.32497 10.8098 8.40194 10.9798 8.5927 11.1712C8.84957 11.4289 9.02007 11.4737 9.7437 11.4737C10.3014 11.4737 10.4866 11.4504 10.675 11.3563C10.8482 11.2698 11.0447 11.0664 11.1297 10.8857C11.1917 10.7539 11.2021 10.6935 11.2021 10.4657C11.2021 10.238 11.1917 10.1776 11.1297 10.0457C10.9962 9.76172 10.715 9.54466 10.4043 9.48575C10.1978 9.44658 9.25045 9.45461 9.05204 9.49723Z" fill="#0E172B"/>
</svg>
