<svg width="28" height="28" viewBox="0 0 28 28" fill="none" xmlns="http://www.w3.org/2000/svg">
<path fill-rule="evenodd" clip-rule="evenodd" d="M12.698 0.940569C12.5594 0.945777 12.0554 0.963501 11.578 0.979993C9.73652 1.04361 8.39761 1.11968 8.12727 1.17602C7.13932 1.38199 6.28162 2.13726 5.9636 3.08131C5.89139 3.29562 5.79185 3.73922 5.72196 4.15794C5.6439 4.62593 5.65022 5.57236 5.73473 6.06194C5.82147 6.56448 5.9298 7.00652 6.02136 7.23166C6.35904 8.06192 7.12146 8.72236 8.00292 8.94823C8.14642 8.985 8.38266 9.02341 8.52792 9.03363L8.79205 9.0522V11.1016V13.1509L8.33705 13.1861C7.44469 13.255 7.06226 13.3759 6.55205 13.7504C6.10032 14.082 5.8658 14.4345 5.49816 15.3341C5.16204 16.1566 4.86477 17.1767 4.73236 17.9619C4.59782 18.7595 4.59247 18.9524 4.59947 22.7477L4.60605 26.3059L4.6845 26.4739C4.85838 26.8463 5.20715 27.0753 5.60005 27.0753C5.99294 27.0753 6.34171 26.8463 6.51559 26.4739L6.59405 26.3059L6.60194 23.9369L6.60984 21.5678L6.72794 21.5914C6.89883 21.6256 9.16982 21.6925 11.452 21.7306C14.8707 21.7877 20.6938 21.7049 21.2722 21.591L21.3903 21.5678L21.3982 23.9369L21.406 26.3059L21.4845 26.4739C21.8587 27.2751 22.9414 27.2751 23.3156 26.4739L23.394 26.3059V22.5539C23.394 18.4395 23.3988 18.5723 23.2224 17.6959C22.9716 16.4497 22.3796 14.8139 21.9902 14.2913C21.5929 13.7582 20.982 13.3791 20.328 13.26C20.2426 13.2444 19.3374 13.1613 19.243 13.1603C19.2154 13.16 19.208 12.7303 19.208 11.1061V9.0522L19.4722 9.03363C20.1348 8.98707 20.7553 8.71608 21.2708 8.24809C21.5674 7.97887 21.8703 7.53339 22.0054 7.16794C22.0819 6.96088 22.1891 6.50504 22.2655 6.06194C22.3499 5.57222 22.3562 4.62565 22.2781 4.15794C22.2082 3.73922 22.1087 3.29562 22.0365 3.08131C21.8971 2.66738 21.6384 2.26494 21.3101 1.95137C20.8514 1.51311 20.3714 1.26668 19.7474 1.14914C19.6089 1.12304 18.1045 1.04392 16.52 0.979349C15.798 0.949921 13.1624 0.923181 12.698 0.940569ZM12.376 2.95685C12.2605 2.96211 11.8132 2.97947 11.382 2.99549C9.8598 3.05199 8.74809 3.10894 8.58275 3.1389C8.3688 3.17768 8.22849 3.25001 8.0809 3.3976C7.91934 3.55916 7.85581 3.70719 7.77257 4.11613C7.62823 4.82526 7.62756 5.32022 7.77005 6.02414C7.85466 6.44212 7.925 6.60298 8.0911 6.75832C8.34629 6.99705 8.49592 7.03656 9.26805 7.06915C9.49135 7.07859 10.0709 7.10424 10.556 7.12613C11.0411 7.14806 12.0145 7.18138 12.719 7.20016C14.0703 7.23626 15.5036 7.21377 17.444 7.12613C17.9291 7.10424 18.5087 7.07859 18.732 7.06915C19.5042 7.03656 19.6538 6.99705 19.909 6.75832C20.0774 6.60077 20.147 6.43873 20.2313 6.00776C20.3293 5.50672 20.3575 5.13794 20.3258 4.77508C20.2915 4.3839 20.1743 3.80393 20.0966 3.64066C20.0246 3.48938 19.8409 3.29993 19.693 3.22453C19.5181 3.13526 19.304 3.11088 18.298 3.06568C17.7744 3.04216 17.0625 3.0098 16.716 2.99375C16.1072 2.96553 12.8033 2.93747 12.376 2.95685ZM10.808 11.0873V13.027L11.053 13.0098C11.614 12.9704 14.8683 12.9567 15.9397 12.9892C16.5438 13.0075 17.0727 13.0293 17.115 13.0375L17.192 13.0524V11.1V9.14754L16.709 9.16641C14.7842 9.24156 13.2159 9.24156 11.291 9.16641L10.808 9.14754V11.0873ZM12.306 14.9822C11.1431 15.0066 9.9653 15.0674 8.8009 15.1629C7.73062 15.2507 7.73264 15.2498 7.51427 15.7277C7.02852 16.7907 6.69597 18.0202 6.6221 19.0259C6.60494 19.2599 6.60827 19.2848 6.66884 19.3743C6.7047 19.4273 6.79453 19.5017 6.86848 19.5398C6.99358 19.6042 7.04395 19.6105 7.59648 19.6316C10.0633 19.7256 15.2465 19.7681 17.738 19.7148C19.7705 19.6713 20.8189 19.6331 20.9785 19.5968C21.1455 19.5587 21.3155 19.4371 21.3634 19.3214C21.3931 19.2498 21.3941 19.1658 21.3688 18.8912C21.2844 17.9754 21.0076 16.9382 20.5757 15.9186C20.3788 15.4538 20.2815 15.3248 20.0831 15.2654C19.9364 15.2214 18.8456 15.1374 17.472 15.0643C16.5093 15.0131 14.0718 14.9464 13.538 14.9567C13.4148 14.9591 12.8604 14.9706 12.306 14.9822Z" fill="#00C950"/>
</svg>
