<svg width="28" height="28" viewBox="0 0 28 28" fill="none" xmlns="http://www.w3.org/2000/svg">
<g clip-path="url(#clip0_1_8323)">
<path fill-rule="evenodd" clip-rule="evenodd" d="M12.922 0.953973C10.4022 1.10254 8.25927 1.68707 6.53355 2.69655C4.90081 3.65163 3.65145 4.90099 2.69637 6.53373C1.29147 8.93543 0.693448 12.2278 1.00957 15.8202C1.19344 17.9094 1.79659 19.9285 2.69637 21.4666C3.65011 23.0971 4.90258 24.3498 6.53201 25.3029C8.93489 26.7085 12.2591 27.3113 15.834 26.9898C17.9337 26.801 19.9276 26.204 21.468 25.3029C23.6438 24.0302 25.1996 22.1691 26.1183 19.7402C27.0199 17.3564 27.3035 14.2749 26.891 11.3442C26.3367 7.40531 24.4943 4.46767 21.468 2.69745C19.469 1.52811 16.8326 0.910601 13.916 0.928605C13.5695 0.930761 13.1222 0.942157 12.922 0.953973ZM13.02 2.95662C12.9507 2.96227 12.7176 2.98084 12.502 2.99786C10.3713 3.16611 8.4208 3.79824 6.972 4.79003C5.02642 6.12191 3.7595 8.17884 3.22218 10.8782C3.01694 11.9093 2.954 12.6419 2.954 14.0002C2.954 14.6966 2.9675 15.2462 2.99046 15.4842C3.16722 17.3163 3.53298 18.691 4.19398 20.0077C5.2365 22.0843 6.94789 23.5474 9.26545 24.3436C10.2605 24.6854 11.2441 24.887 12.516 25.0097C13.0239 25.0587 14.9761 25.0587 15.484 25.0097C18.0777 24.7595 19.9993 24.0628 21.5713 22.8027C23.385 21.3488 24.5396 19.0984 24.9166 16.2822C25.0293 15.44 25.0453 15.1563 25.0453 14.0002C25.0453 13.278 25.0321 12.734 25.009 12.5022C24.8252 10.6568 24.4643 9.30396 23.806 7.99267C22.7635 5.91611 21.0521 4.45294 18.7345 3.65676C17.7705 3.32557 16.8611 3.13394 15.652 3.00721C15.2719 2.9674 13.3426 2.9303 13.02 2.95662ZM18.4581 8.37456C18.2585 8.40886 18.1404 8.47391 17.892 8.68637C17.5922 8.94279 16.6272 9.88973 16.2287 10.3186C14.6531 12.014 13.5435 13.8106 12.5451 16.2823L12.3415 16.7864L11.8876 16.3243C11.6379 16.0701 11.1196 15.5371 10.7358 15.1398C10.352 14.7424 9.97394 14.3746 9.89562 14.3223C9.71337 14.2007 9.545 14.1592 9.28987 14.173C8.57424 14.2116 8.14257 14.978 8.4712 15.6266C8.52068 15.7242 9.0463 16.2843 10.3319 17.6093C12.2672 19.6038 12.2298 19.5702 12.5804 19.6273C12.9766 19.6918 13.4059 19.4928 13.5865 19.161C13.6277 19.0853 13.7619 18.7468 13.8848 18.4088C14.4596 16.8267 14.9489 15.7057 15.4956 14.7176C16.364 13.148 17.2222 12.0893 19.0299 10.3579C19.4674 9.93878 19.5154 9.88334 19.5725 9.73018C19.6511 9.51945 19.6563 9.20151 19.584 9.01607C19.4028 8.55091 18.946 8.29067 18.4581 8.37456Z" fill="#00C950"/>
</g>
<defs>
<clipPath id="clip0_1_8323">
<rect width="28" height="28" fill="white"/>
</clipPath>
</defs>
</svg>
