<svg width="28" height="28" viewBox="0 0 28 28" fill="none" xmlns="http://www.w3.org/2000/svg">
<g clip-path="url(#clip0_1_9897)">
<path fill-rule="evenodd" clip-rule="evenodd" d="M12.236 0.954817C10.4475 1.01479 6.2448 1.32607 5.43201 1.45876C3.55447 1.76531 2.01193 3.18715 1.52526 5.05981C1.37098 5.65344 1.09739 7.82988 0.975113 9.43607C0.929417 10.0365 0.929025 12.002 0.974469 12.5861C1.07964 13.9371 1.2501 15.3969 1.43062 16.4921C1.61279 17.5974 2.03671 18.423 2.82569 19.209C3.61605 19.9964 4.50642 20.44 5.60169 20.5922C6.21811 20.6779 9.52377 20.9373 10.976 21.0139C12.0421 21.0702 13.94 21.1118 14.1458 21.0833C14.3573 21.0541 14.5406 20.9599 14.7054 20.7955C14.8731 20.6284 14.94 20.4999 14.9806 20.2662C15.04 19.9255 14.9316 19.6076 14.6739 19.3665C14.4526 19.1595 14.3258 19.114 13.944 19.1041C11.6638 19.0452 10.8658 19.0096 9.35201 18.8993C8.09868 18.8079 5.93624 18.6213 5.74001 18.5877C4.87042 18.4386 4.07581 17.8357 3.6609 17.0101C3.48436 16.6588 3.39669 16.2087 3.19361 14.6109C2.85067 11.913 2.85386 10.1041 3.20638 7.32207C3.40859 5.72613 3.46297 5.44985 3.65432 5.04593C3.81538 4.70592 3.97047 4.49214 4.26007 4.21085C4.65555 3.82678 5.07527 3.59158 5.57742 3.47272C5.97093 3.37959 9.21781 3.11432 11.48 2.99047C12.3606 2.94229 15.6394 2.94229 16.52 2.99047C18.7822 3.11432 22.0291 3.37959 22.4226 3.47272C22.9248 3.59158 23.3445 3.82678 23.74 4.21085C23.8686 4.33582 24.0295 4.51555 24.0974 4.61022C24.2688 4.84923 24.4593 5.26368 24.5271 5.54531C24.5955 5.82917 24.7786 7.12876 24.876 8.02207C24.986 9.03033 25.0019 9.1297 25.0779 9.28205C25.1972 9.521 25.441 9.73145 25.6807 9.80217C25.8464 9.85109 26.1553 9.83656 26.3287 9.77165C26.5373 9.69359 26.7703 9.48031 26.8704 9.27566C26.9842 9.04304 26.9863 8.79387 26.8822 7.87577C26.7764 6.94245 26.618 5.77605 26.5408 5.36207C26.1699 3.37125 24.5533 1.78289 22.568 1.45876C22.0393 1.37244 18.8805 1.11419 17.234 1.02266C15.5127 0.926957 13.7713 0.903325 12.236 0.954817ZM7.34455 5.34833C6.91095 5.41169 6.55297 5.79084 6.50643 6.23601C6.46278 6.65371 6.69663 7.06369 7.08401 7.24857L7.23801 7.32207H13.188H19.138L19.2922 7.24633C19.5803 7.10485 19.79 6.84005 19.852 6.53933C19.9208 6.20549 19.8218 5.87512 19.5807 5.63426C19.4155 5.4692 19.2376 5.38013 19.0061 5.34667C18.7935 5.31593 7.55531 5.31753 7.34455 5.34833ZM7.2316 10.0947C6.88852 10.1883 6.60505 10.4838 6.52382 10.8325C6.42627 11.2514 6.64111 11.7288 7.02001 11.935C7.25711 12.0641 7.39117 12.0718 9.24001 12.0626L10.962 12.054L11.1243 11.9885C11.3104 11.9135 11.5535 11.6933 11.6422 11.5195C11.6737 11.4576 11.7137 11.329 11.731 11.2336C11.8132 10.7807 11.5798 10.3426 11.1489 10.1406L10.99 10.0661L9.18401 10.0604C7.6943 10.0558 7.35237 10.0618 7.2316 10.0947ZM21.252 10.6715C19.9332 10.7497 18.6986 11.3107 17.7516 12.2622C15.7072 14.3162 15.6135 17.565 17.5356 19.7474L17.7023 19.9367L17.6502 20.6574C17.5769 21.6693 17.5755 24.4408 17.6478 25.3569C17.7015 26.0387 17.7301 26.1702 17.8788 26.4181C18.0076 26.6329 18.1315 26.7597 18.3305 26.8803C18.721 27.117 19.2109 27.1334 19.6246 26.9238C19.6992 26.886 20.1746 26.5206 20.6811 26.1118C21.1876 25.703 21.6107 25.3715 21.6214 25.3753C21.6321 25.379 22.0225 25.6906 22.4892 26.0677C23.4301 26.8282 23.5761 26.933 23.8 27.0093C24.0131 27.0819 24.4005 27.0808 24.626 27.007C24.9809 26.8909 25.3199 26.5687 25.4482 26.2257C25.5786 25.8772 25.6342 24.9069 25.6335 22.9881C25.633 21.8125 25.6214 21.2981 25.5829 20.7481C25.5554 20.3554 25.5273 20.0175 25.5206 19.9972C25.5138 19.9769 25.5933 19.862 25.6972 19.7419C26.8529 18.4055 27.3068 16.7049 26.961 15.0081C26.7218 13.8348 26.0554 12.7108 25.1515 11.9563C24.0296 11.0199 22.7097 10.585 21.252 10.6715ZM21.21 12.6885C20.08 12.8153 19.0424 13.5469 18.5244 14.5822C18.1274 15.3754 18.0591 16.3581 18.3423 17.2033C18.5575 17.8458 19.0099 18.4771 19.544 18.8804C20.2017 19.377 21.1118 19.6316 21.931 19.5482C22.7732 19.4624 23.4547 19.1382 24.0537 18.5382C24.5181 18.0732 24.7839 17.6119 24.9584 16.9681C25.1303 16.334 25.0764 15.4803 24.8243 14.844C24.4224 13.8296 23.5201 13.0389 22.456 12.7689C22.0539 12.6669 21.6407 12.6402 21.21 12.6885ZM21.3457 14.533C20.7189 14.6452 20.1735 15.1612 20.0506 15.7584C20.0077 15.9668 20.0133 16.306 20.0631 16.5175C20.2312 17.2307 20.9882 17.7754 21.7222 17.7113C22.3748 17.6544 22.9057 17.2531 23.1235 16.6521C23.1872 16.4764 23.1967 16.4063 23.1967 16.1141C23.1967 15.8219 23.1872 15.7517 23.1235 15.576C22.9518 15.1021 22.5475 14.7201 22.067 14.5775C21.8755 14.5207 21.5327 14.4995 21.3457 14.533ZM19.6181 21.4619C19.5859 21.9328 19.5695 23.476 19.5918 23.9363L19.614 24.3946L20.104 23.9978C20.781 23.4496 21.1101 23.2971 21.616 23.2971C22.1216 23.2971 22.4225 23.4357 23.0963 23.979C23.3752 24.204 23.6079 24.3881 23.6134 24.3881C23.6598 24.3881 23.6388 21.2775 23.5921 21.2308C23.5865 21.2252 23.4388 21.2651 23.264 21.3195C22.1695 21.6601 20.9656 21.654 19.9139 21.3027L19.6353 21.2097L19.6181 21.4619Z" fill="#00C950"/>
</g>
<defs>
<clipPath id="clip0_1_9897">
<rect width="28" height="28" fill="white"/>
</clipPath>
</defs>
</svg>
