<svg width="28" height="28" viewBox="0 0 28 28" fill="none" xmlns="http://www.w3.org/2000/svg">
<g clip-path="url(#clip0_2128_2833)">
<path fill-rule="evenodd" clip-rule="evenodd" d="M10.3495 0.953926C9.08402 1.00662 6.43685 1.24622 5.55807 1.38756C3.63192 1.69738 2.04704 3.10699 1.49826 4.99833C1.39959 5.33839 1.33164 5.76441 1.24814 6.56633C0.832787 10.5555 0.823827 12.5651 1.20454 16.3523C1.32884 17.5889 1.35138 17.7585 1.44459 18.1583C1.83636 19.8393 3.16283 21.263 4.83007 21.792C5.34507 21.9554 5.5203 21.9838 6.93007 22.1324C8.94926 22.3452 9.95852 22.409 11.3541 22.4121L12.3901 22.4143L12.5507 22.3391C12.7462 22.2474 12.9566 22.0428 13.0493 21.8543C13.1091 21.7325 13.118 21.6762 13.1179 21.4203C13.1177 21.1565 13.1101 21.1119 13.0433 20.985C12.9384 20.7859 12.7563 20.6139 12.5441 20.5137L12.3621 20.4278L11.2141 20.4082C10.5827 20.3975 9.78257 20.3684 9.43607 20.3437C8.15406 20.2522 6.00346 20.0266 5.6655 19.9483C5.1211 19.822 4.629 19.5441 4.22034 19.1321C3.67529 18.5826 3.42413 18.0564 3.32059 17.2471C3.27021 16.8533 3.10807 15.2676 3.10807 15.1687C3.10807 15.0299 4.20869 13.8781 4.76007 13.4399C5.51229 12.8421 6.24544 12.47 6.86032 12.3743C7.1775 12.3248 7.68548 12.3562 8.00807 12.445C8.86436 12.6809 9.84089 13.3663 10.8281 14.4242C11.7323 15.3932 12.5039 16.4485 13.3728 17.9047C13.5561 18.2119 13.7545 18.5107 13.8136 18.5689C13.8728 18.6271 13.9925 18.7097 14.0796 18.7525C14.221 18.822 14.2682 18.8303 14.5181 18.83C14.7668 18.8298 14.8137 18.8214 14.9381 18.7555C15.1617 18.637 15.2981 18.501 15.4018 18.2932C15.4896 18.1174 15.4971 18.0825 15.4957 17.8503C15.4939 17.5443 15.4854 17.5238 15.0786 16.8423C14.059 15.1344 12.9041 13.6161 11.841 12.5863C9.87743 10.6844 7.98525 9.99462 6.08545 10.4882C5.14826 10.7317 4.18638 11.2754 3.22304 12.106L2.932 12.3569L2.94855 11.2256C2.96482 10.1132 2.98016 9.78196 3.06716 8.66633C3.11873 8.00489 3.25795 6.59965 3.32084 6.10559C3.42668 5.27399 3.71158 4.7022 4.2942 4.15217C4.68164 3.78643 5.1113 3.55207 5.6445 3.41571C5.93895 3.34039 7.84208 3.13319 9.10007 3.03951C11.2354 2.88044 13.0332 2.90849 15.4001 3.13787C16.6199 3.25609 17.5206 3.36739 17.7702 3.43069C18.8441 3.70311 19.7544 4.64785 19.9758 5.71981C20.0855 6.25088 20.3202 8.83002 20.3828 10.1923C20.4372 11.3764 20.4327 11.3309 20.5129 11.5097C20.6005 11.7048 20.8245 11.9301 21.021 12.0209C21.1284 12.0704 21.2054 12.0823 21.4201 12.0823C21.6483 12.0823 21.7079 12.072 21.8401 12.0096C22.119 11.8779 22.3315 11.615 22.4005 11.316C22.4752 10.993 22.3296 8.68562 22.0929 6.43952C21.9714 5.28648 21.8677 4.85321 21.56 4.21324C20.8932 2.82626 19.6709 1.83735 18.154 1.45773C17.8342 1.37768 16.7026 1.24104 15.2601 1.10832C13.4726 0.943818 11.8311 0.892214 10.3495 0.953926ZM14.6021 5.24918C13.6734 5.39559 12.9798 5.82013 12.4958 6.53833C12.1282 7.08377 11.9725 7.67101 11.9725 8.51233C11.9725 9.57289 12.2459 10.3152 12.8642 10.9335C13.4526 11.5219 14.2595 11.8163 15.2837 11.8163C16.9718 11.8163 18.1459 10.9334 18.492 9.40363C18.61 8.88173 18.5988 8.03896 18.467 7.51909C18.1422 6.2387 17.2156 5.42637 15.8658 5.23863C15.5798 5.19884 14.8845 5.20466 14.6021 5.24918ZM14.9304 7.2266C14.264 7.32905 13.9729 7.71999 13.9729 8.51233C13.9729 9.10461 14.1486 9.49051 14.5013 9.6729C14.7427 9.79773 15.3646 9.84888 15.7221 9.77328C15.956 9.72378 16.1873 9.60013 16.3066 9.46077C16.4986 9.23655 16.5949 8.83369 16.567 8.37233C16.529 7.74345 16.2874 7.39034 15.814 7.27143C15.5836 7.21355 15.1563 7.19188 14.9304 7.2266ZM22.9849 13.9446C22.2349 14.0164 21.5148 14.3482 21.0215 14.8493C20.8888 14.9841 17.8594 18.4103 15.7875 20.7689C15.6079 20.9734 15.4339 21.1965 15.4009 21.2647C15.3651 21.3386 15.1865 22.1061 14.9595 23.1615C14.5866 24.8947 14.5781 24.9421 14.577 25.2843C14.5757 25.6849 14.6219 25.8608 14.8123 26.1803C15.1764 26.7915 15.9026 27.1534 16.5691 27.056C16.8357 27.017 20.321 25.9254 20.486 25.8292C20.6184 25.752 20.8219 25.5417 23.9669 22.2323C25.2329 20.9002 26.345 19.7095 26.4381 19.5863C26.6388 19.321 26.8501 18.8954 26.9455 18.5643C27.1796 17.7524 27.0866 16.8652 26.6829 16.0583C26.478 15.6489 26.2389 15.3237 25.9103 15.0075C25.2509 14.373 24.5095 14.0301 23.6133 13.9451C23.4465 13.9293 23.2849 13.9181 23.2541 13.9203C23.2233 13.9224 23.1021 13.9334 22.9849 13.9446ZM23.021 15.9623C22.8596 15.994 22.632 16.1008 22.5152 16.1996C22.4023 16.2951 17.2518 22.1341 17.2297 22.1916C17.1868 22.3035 16.643 24.9356 16.6613 24.9428C16.6825 24.9511 19.3615 24.1169 19.4206 24.0835C19.4374 24.0741 20.5579 22.9008 21.9106 21.4763C23.2633 20.0518 24.483 18.7675 24.6209 18.6222C24.9421 18.2841 25.0374 18.0949 25.0549 17.7601C25.071 17.4535 25.025 17.2302 24.8862 16.941C24.7939 16.7487 24.728 16.6599 24.5392 16.4731C24.3486 16.2846 24.2585 16.2196 24.046 16.1172C23.6866 15.9439 23.363 15.895 23.021 15.9623Z" fill="#0E172B"/>
</g>
<defs>
<clipPath id="clip0_2128_2833">
<rect width="28" height="28" fill="white"/>
</clipPath>
</defs>
</svg>
