<svg width="33" height="33" viewBox="0 0 33 33" fill="none" xmlns="http://www.w3.org/2000/svg">
<path d="M30.6633 0H2.93669C1.64609 0 0.599976 1.04612 0.599976 2.33671V30.0633C0.599976 31.3539 1.64609 32.4 2.93669 32.4H17.9074V19.8703H13.6992V14.966H17.9074V11.3568C17.9074 7.1713 20.4626 4.89317 24.1962 4.89317C25.9844 4.89317 27.5212 5.02641 27.9691 5.08598V9.46055H25.3946C23.3632 9.46055 22.9699 10.4258 22.9699 11.8425V14.966H27.8267L27.1939 19.8703H22.9699V32.4H30.6633C31.9539 32.4 33 31.3539 33 30.0633V2.33671C33 1.04612 31.9539 0 30.6633 0Z" fill="black"/>
</svg>
