<svg width="238" height="59" viewBox="0 0 238 59" fill="none" xmlns="http://www.w3.org/2000/svg">
<path d="M32.4736 44.027H22.7263C21.9049 44.027 21.193 44.6059 21.0209 45.4117L19.073 54.5097C18.9009 55.3155 18.189 55.8944 17.3676 55.8944H10.5304C9.41957 55.8944 8.59035 54.8696 8.82504 53.7822L10.46 46.1471C10.6947 45.0597 9.86548 44.0349 8.75463 44.0349H1.74535C0.634502 44.0349 -0.194741 43.0101 0.0399452 41.9227L1.42461 35.4689C1.59671 34.6631 2.30859 34.0842 3.12999 34.0842H11.6334C12.4548 34.0842 13.1667 33.5053 13.3388 32.6995L15.3728 23.1792C15.6075 22.0918 14.7782 21.0669 13.6674 21.0669H6.65811C5.54726 21.0669 4.71802 20.0422 4.95271 18.9548L6.33737 12.5009C6.50947 11.6952 7.22135 11.1163 8.04275 11.1163H16.5462C17.3676 11.1163 18.0795 10.5374 18.2516 9.7316L20.0352 1.3924C20.2073 0.586643 20.9192 0.00773502 21.7406 0.00773502H28.5778C29.6886 0.00773502 30.5179 1.03259 30.2832 2.11997L28.8125 8.9963C28.5778 10.0837 29.407 11.1084 30.5179 11.1084H40.2652C41.0866 11.1084 41.7984 10.5295 41.9705 9.72377L43.7541 1.38457C43.9263 0.578812 44.6381 0 45.4595 0H52.2967C53.4076 0 54.2368 1.02476 54.0021 2.11214L52.5314 8.98847C52.2967 10.0758 53.1259 11.1006 54.2368 11.1006H61.8563C62.9671 11.1006 63.7963 12.1254 63.5617 13.2127L62.177 19.6666C62.0049 20.4724 61.293 21.0513 60.4716 21.0513H51.358C50.5366 21.0513 49.8247 21.6302 49.6526 22.4359L47.6186 31.9564C47.384 33.0438 48.2132 34.0685 49.324 34.0685H56.9435C58.0544 34.0685 58.8836 35.0934 58.6489 36.1808L57.2643 42.6346C57.0922 43.4404 56.3803 44.0192 55.5589 44.0192H46.4452C45.6238 44.0192 44.9119 44.5981 44.7398 45.4039L42.792 54.5019C42.6198 55.3076 41.9079 55.8865 41.0865 55.8865H34.2494C33.1385 55.8865 32.3093 54.8618 32.544 53.7744L34.179 46.1393C34.4136 45.0519 33.5844 44.027 32.4736 44.027ZM25.6051 34.0764H35.3524C36.1738 34.0764 36.8857 33.4975 37.0578 32.6917L39.0917 23.1713C39.3264 22.084 38.4972 21.0591 37.3863 21.0591H27.639C26.8176 21.0591 26.1058 21.638 25.9337 22.4438L23.8997 31.9642C23.665 33.0516 24.4943 34.0764 25.6051 34.0764Z" fill="#231F20"/>
<path d="M78.3629 20.136L72.0342 9.66119H76.1255L80.2482 16.5609L84.3943 9.66119H88.4857L82.0788 20.2142V29.5704H78.3707V20.136H78.3629Z" fill="#231F20"/>
<path d="M94.1027 29.6017C92.9606 29.6017 91.881 29.3983 90.8719 28.9837C89.8627 28.569 88.9866 27.998 88.2434 27.2783C87.5002 26.5508 86.9135 25.6981 86.4833 24.7281C86.053 23.758 85.8418 22.7176 85.8418 21.6146C85.8418 20.5115 86.053 19.4476 86.4833 18.4698C86.9135 17.4997 87.5002 16.647 88.2434 15.9195C88.9866 15.192 89.8627 14.6209 90.8719 14.2141C91.881 13.7995 92.9606 13.5961 94.1027 13.5961C95.2449 13.5961 96.3244 13.7995 97.3179 14.2141C98.3193 14.6287 99.1954 15.192 99.9542 15.9195C100.705 16.647 101.3 17.4997 101.73 18.4698C102.16 19.4398 102.372 20.4881 102.372 21.6146C102.372 22.7411 102.16 23.758 101.73 24.7281C101.3 25.6981 100.713 26.5508 99.9542 27.2783C99.2032 28.0058 98.3193 28.5769 97.3179 28.9837C96.3166 29.3983 95.2449 29.6017 94.1027 29.6017ZM94.1027 26.1361C94.7599 26.1361 95.37 26.0188 95.9333 25.7763C96.4965 25.5338 96.9894 25.2131 97.404 24.8063C97.8186 24.3995 98.1471 23.9145 98.3818 23.3591C98.6165 22.8036 98.7339 22.2169 98.7339 21.6067C98.7339 20.9966 98.6165 20.3864 98.3818 19.8309C98.1471 19.2755 97.8186 18.7905 97.404 18.3837C96.9894 17.9769 96.4965 17.6483 95.9333 17.4136C95.37 17.1789 94.7599 17.0538 94.1027 17.0538C93.4456 17.0538 92.8354 17.1711 92.2644 17.4136C91.6933 17.6561 91.2005 17.9769 90.7937 18.3837C90.3869 18.7905 90.0583 19.2755 89.8236 19.8309C89.5889 20.3864 89.4716 20.9809 89.4716 21.6067C89.4716 22.2326 89.5889 22.8036 89.8236 23.3591C90.0583 23.9145 90.3791 24.3995 90.7937 24.8063C91.2005 25.2131 91.6933 25.5416 92.2644 25.7763C92.8354 26.011 93.4534 26.1361 94.1027 26.1361Z" fill="#231F20"/>
<path d="M118.345 29.5703H114.692V27.5677C114.183 28.2014 113.55 28.6941 112.783 29.054C112.017 29.4138 111.125 29.5938 110.108 29.5938C108.215 29.5938 106.72 29.0071 105.617 27.8258C104.514 26.6524 103.967 25.0096 103.967 22.8974V13.6038H107.706V22.475C107.706 23.6876 107.98 24.6419 108.535 25.3381C109.091 26.0344 109.951 26.3865 111.117 26.3865C112.134 26.3865 112.979 26.0188 113.652 25.2912C114.324 24.5637 114.661 23.5154 114.661 22.1464V13.5883H118.345V29.5468V29.5703Z" fill="#231F20"/>
<path d="M120.614 13.6117H124.268V15.982C125.011 14.4018 126.38 13.6117 128.359 13.6117C128.938 13.6117 129.462 13.6742 129.923 13.7994C130.385 13.9246 130.8 14.0888 131.167 14.2922L129.775 17.7813C129.501 17.6014 129.196 17.4527 128.86 17.3275C128.523 17.2102 128.093 17.1476 127.561 17.1476C126.489 17.1476 125.676 17.4527 125.12 18.0629C124.565 18.6731 124.291 19.6666 124.291 21.0512V29.5625H120.606V13.6038L120.614 13.6117Z" fill="#231F20"/>
<path d="M147.267 29.6017C145.718 29.6017 144.31 29.3357 143.042 28.8037C141.767 28.2718 140.68 27.5521 139.772 26.6368C138.865 25.7215 138.161 24.6655 137.676 23.4529C137.183 22.2482 136.94 20.9652 136.94 19.6197C136.94 18.2742 137.199 16.9364 137.707 15.7161C138.216 14.5035 138.92 13.4474 139.819 12.5478C140.719 11.6482 141.791 10.9441 143.034 10.42C144.278 9.89585 145.639 9.6377 147.11 9.6377C148.151 9.6377 149.121 9.75501 150.028 9.99752C150.936 10.24 151.78 10.5765 152.555 11.0224C153.329 11.4683 154.018 11.9924 154.628 12.6026C155.238 13.2128 155.747 13.8855 156.169 14.613L152.899 16.3967C152.281 15.3562 151.491 14.5661 150.537 14.0341C149.582 13.5022 148.448 13.2362 147.141 13.2362C146.211 13.2362 145.358 13.4083 144.568 13.7447C143.778 14.0811 143.089 14.5426 142.495 15.1215C141.9 15.7004 141.446 16.3732 141.118 17.1476C140.789 17.9221 140.625 18.7435 140.625 19.6197C140.625 20.4958 140.789 21.3407 141.118 22.1151C141.446 22.8896 141.908 23.5624 142.495 24.1413C143.089 24.7202 143.793 25.1739 144.607 25.5103C145.42 25.8467 146.312 26.011 147.282 26.011C148.776 26.011 150.012 25.6199 151.006 24.8376C151.999 24.0553 152.672 23.007 153.04 21.7006H146.688V18.1568H157.03V19.6275C157.03 20.973 156.803 22.2482 156.349 23.4607C155.895 24.6733 155.246 25.7293 154.401 26.6368C153.556 27.5442 152.531 28.2718 151.334 28.8037C150.138 29.3435 148.792 29.6095 147.298 29.6095L147.267 29.6017Z" fill="#231F20"/>
<path d="M173.317 29.5704H169.664V27.5678C169.155 28.2014 168.521 28.6942 167.755 29.0541C166.988 29.4139 166.096 29.5939 165.079 29.5939C163.186 29.5939 161.692 29.0072 160.589 27.8259C159.486 26.6525 158.938 25.0096 158.938 22.8975V13.6039H162.678V22.4751C162.678 23.6876 162.952 24.642 163.507 25.3382C164.062 26.0344 164.923 26.3865 166.089 26.3865C167.106 26.3865 167.95 26.0188 168.623 25.2913C169.296 24.5638 169.632 23.5155 169.632 22.1465V13.5883H173.317V29.5469V29.5704Z" fill="#231F20"/>
<path d="M174.983 9.71593C174.983 9.02752 175.195 8.46426 175.609 8.04182C176.024 7.61157 176.595 7.40039 177.299 7.40039C178.003 7.40039 178.598 7.61157 179.004 8.04182C179.411 8.47208 179.615 9.02752 179.615 9.71593C179.615 10.4043 179.411 10.9598 179.004 11.3822C178.598 11.7968 178.026 12.0081 177.299 12.0081C176.571 12.0081 175.977 11.7968 175.578 11.3822C175.179 10.9676 174.976 10.4122 174.976 9.71593H174.983ZM175.445 13.6117H179.153V29.5704H175.445V13.6117Z" fill="#231F20"/>
<path d="M188.619 29.6017C187.657 29.6017 186.702 29.4217 185.771 29.0618C184.833 28.702 183.996 28.1778 183.245 27.4973C182.501 26.8167 181.899 25.9797 181.445 24.9861C180.992 23.9926 180.765 22.8662 180.765 21.6067C180.765 20.3472 180.984 19.1894 181.43 18.2037C181.876 17.2102 182.47 16.3732 183.205 15.6926C183.941 15.012 184.786 14.4879 185.74 14.128C186.694 13.7681 187.672 13.5883 188.674 13.5883C189.675 13.5883 190.676 13.7838 191.568 14.175C192.46 14.5661 193.195 15.1059 193.774 15.7943V9.38739H197.482V29.5703H193.798V27.3017C193.219 28.0136 192.468 28.5768 191.56 28.9836C190.653 29.3904 189.667 29.5938 188.611 29.5938L188.619 29.6017ZM189.221 26.2143C189.91 26.2143 190.551 26.097 191.13 25.8545C191.709 25.612 192.21 25.2834 192.632 24.8531C193.047 24.4229 193.383 23.9301 193.625 23.3669C193.868 22.8036 193.993 22.1934 193.993 21.5441C193.993 20.8948 193.868 20.3159 193.625 19.7527C193.383 19.1894 193.047 18.6966 192.632 18.282C192.217 17.8674 191.717 17.5388 191.13 17.2963C190.551 17.0538 189.91 16.9364 189.221 16.9364C188.533 16.9364 187.915 17.0538 187.328 17.2963C186.734 17.5388 186.225 17.8595 185.787 18.2663C185.349 18.6731 185.013 19.166 184.762 19.7292C184.52 20.2924 184.394 20.9026 184.394 21.5519C184.394 22.2012 184.52 22.8114 184.762 23.3824C185.005 23.9535 185.349 24.4463 185.787 24.8688C186.225 25.2834 186.734 25.6198 187.328 25.8545C187.915 26.097 188.548 26.2143 189.221 26.2143Z" fill="#231F20"/>
<path d="M207.495 29.6017C206.243 29.6017 205.093 29.3983 204.06 28.9837C203.02 28.569 202.136 28.0059 201.401 27.2862C200.665 26.5664 200.094 25.7215 199.679 24.7515C199.273 23.7814 199.069 22.741 199.069 21.638C199.069 20.5349 199.281 19.4633 199.711 18.4854C200.141 17.5076 200.728 16.6549 201.471 15.9352C202.214 15.2155 203.09 14.6443 204.099 14.2297C205.109 13.8073 206.196 13.5961 207.362 13.5961C208.527 13.5961 209.638 13.7839 210.647 14.175C211.656 14.5583 212.525 15.0981 213.252 15.7865C213.98 16.4749 214.551 17.2885 214.958 18.2272C215.364 19.166 215.568 20.1908 215.568 21.2938V22.6002H202.582C202.832 23.7267 203.388 24.6342 204.248 25.3304C205.101 26.0188 206.188 26.3708 207.495 26.3708C208.535 26.3708 209.435 26.1205 210.193 25.6042C210.96 25.0957 211.531 24.4151 211.914 23.5546L214.942 25.2991C214.254 26.5899 213.284 27.6303 212.04 28.4204C210.796 29.2105 209.278 29.6095 207.495 29.6095V29.6017ZM207.362 16.8347C206.251 16.8347 205.296 17.0773 204.483 17.5701C203.669 18.063 203.106 18.7044 202.777 19.5102H211.836C211.562 18.634 211.038 17.969 210.256 17.5153C209.474 17.0616 208.512 16.8347 207.362 16.8347Z" fill="#231F20"/>
<path d="M67.4576 37.4481H62.623V34.225H75.6951V37.4481H70.8371V52.3349H67.4654V37.4481H67.4576Z" fill="#231F20"/>
<path d="M81.3742 52.3584C80.3338 52.3584 79.3559 52.1706 78.4328 51.7951C77.5176 51.4196 76.7196 50.9033 76.039 50.2384C75.3584 49.5813 74.8265 48.8067 74.4353 47.9228C74.0442 47.0388 73.8564 46.0922 73.8564 45.0909C73.8564 44.0896 74.052 43.1196 74.4353 42.2356C74.8265 41.3516 75.3584 40.5771 76.039 39.9121C76.7196 39.255 77.5176 38.7309 78.4328 38.3554C79.3481 37.9799 80.3338 37.7922 81.3742 37.7922C82.4147 37.7922 83.3925 37.9799 84.3 38.3554C85.2074 38.7309 86.0054 39.2472 86.6938 39.9121C87.3822 40.5771 87.9141 41.3438 88.3053 42.2356C88.6964 43.1196 88.8842 44.0739 88.8842 45.0909C88.8842 46.1079 88.6886 47.0388 88.3053 47.9228C87.9141 48.8067 87.3822 49.5813 86.6938 50.2384C86.0054 50.9033 85.2074 51.4196 84.3 51.7951C83.3925 52.1706 82.4147 52.3584 81.3742 52.3584ZM81.3742 49.2057C81.9688 49.2057 82.5242 49.0963 83.0327 48.8772C83.549 48.6582 83.9949 48.3687 84.3704 47.9932C84.7537 47.6177 85.051 47.1796 85.2622 46.6789C85.4734 46.1705 85.5829 45.6464 85.5829 45.0831C85.5829 44.5199 85.4734 43.9722 85.2622 43.4638C85.0431 42.9631 84.7459 42.5251 84.3704 42.1496C83.9871 41.7741 83.5411 41.4846 83.0327 41.2656C82.5163 41.0465 81.9688 40.937 81.3742 40.937C80.7797 40.937 80.2243 41.0465 79.7001 41.2656C79.176 41.4846 78.7301 41.7741 78.3624 42.1496C77.9869 42.5251 77.6975 42.9631 77.4784 43.4638C77.2594 43.9722 77.1577 44.5043 77.1577 45.0831C77.1577 45.662 77.2672 46.1705 77.4784 46.6789C77.6975 47.1796 77.9869 47.6177 78.3624 47.9932C78.7379 48.3687 79.1838 48.6582 79.7001 48.8772C80.2164 49.0963 80.7797 49.2057 81.3742 49.2057Z" fill="#231F20"/>
<path d="M104.421 52.3584C103.013 52.3584 101.73 52.1159 100.58 51.6309C99.4218 51.1459 98.4283 50.4888 97.5991 49.6595C96.7699 48.8303 96.1363 47.868 95.6904 46.765C95.2445 45.6698 95.0176 44.5042 95.0176 43.276C95.0176 42.0479 95.2523 40.8353 95.7138 39.7323C96.1754 38.6292 96.8169 37.6671 97.6383 36.8535C98.4597 36.0399 99.4297 35.3906 100.564 34.9134C101.698 34.4363 102.934 34.2015 104.272 34.2015C105.219 34.2015 106.103 34.311 106.924 34.53C107.753 34.7491 108.512 35.062 109.216 35.461C109.92 35.86 110.546 36.345 111.101 36.9004C111.657 37.4558 112.118 38.066 112.502 38.7309L109.529 40.3503C108.966 39.4037 108.254 38.684 107.386 38.2068C106.517 37.7296 105.485 37.4871 104.295 37.4871C103.451 37.4871 102.668 37.6435 101.949 37.9565C101.229 38.2694 100.603 38.6841 100.063 39.2082C99.5236 39.7323 99.109 40.3503 98.8117 41.0465C98.5144 41.7428 98.3658 42.4938 98.3658 43.2917C98.3658 44.0896 98.5144 44.8641 98.8117 45.5604C99.109 46.2566 99.5236 46.8746 100.063 47.3987C100.603 47.9228 101.245 48.3374 101.988 48.6425C102.731 48.9476 103.545 49.0962 104.421 49.0962C105.774 49.0962 106.908 48.7442 107.808 48.0323C108.708 47.3204 109.326 46.3739 109.654 45.177H103.873V41.954H113.276V43.2917C113.276 44.5121 113.073 45.6776 112.658 46.7728C112.244 47.8759 111.657 48.8381 110.882 49.6595C110.116 50.4888 109.185 51.1459 108.09 51.6309C106.994 52.1159 105.774 52.3662 104.421 52.3662V52.3584Z" fill="#231F20"/>
<path d="M121.71 52.3584C120.833 52.3584 119.973 52.1941 119.12 51.8655C118.268 51.537 117.501 51.0676 116.828 50.4418C116.148 49.8238 115.608 49.0571 115.193 48.1575C114.779 47.2579 114.575 46.2331 114.575 45.0832C114.575 43.9332 114.779 42.8849 115.185 41.9852C115.592 41.0856 116.132 40.3269 116.797 39.701C117.47 39.083 118.236 38.6058 119.105 38.2772C119.973 37.9486 120.865 37.7844 121.772 37.7844C122.734 37.7844 123.618 37.9565 124.424 38.3007C125.23 38.6449 125.903 39.1221 126.435 39.7166V37.8H129.783V52.3115H126.435V50.2462C125.903 50.8955 125.23 51.404 124.401 51.7795C123.571 52.155 122.68 52.3349 121.725 52.3349L121.71 52.3584ZM122.257 49.2762C122.883 49.2762 123.462 49.1667 123.994 48.9476C124.526 48.7286 124.98 48.4235 125.355 48.0401C125.738 47.649 126.036 47.2031 126.263 46.6868C126.489 46.1705 126.599 45.6229 126.599 45.0362C126.599 44.4495 126.489 43.9175 126.263 43.4012C126.036 42.8927 125.738 42.4389 125.355 42.0634C124.972 41.6801 124.518 41.3829 123.994 41.1639C123.462 40.9449 122.883 40.8353 122.257 40.8353C121.631 40.8353 121.068 40.9449 120.536 41.1639C119.996 41.3829 119.535 41.6802 119.136 42.0479C118.737 42.4234 118.432 42.8614 118.205 43.3777C117.978 43.894 117.869 44.4416 117.869 45.0362C117.869 45.6307 117.978 46.1783 118.205 46.7025C118.432 47.2266 118.737 47.6725 119.136 48.0558C119.535 48.4391 119.996 48.7364 120.536 48.9554C121.076 49.1745 121.647 49.284 122.257 49.284V49.2762Z" fill="#231F20"/>
<path d="M131.684 33.9746H135.055V52.327H131.684V33.9746Z" fill="#231F20"/>
<path d="M143.661 52.3584C142.785 52.3584 141.924 52.1941 141.071 51.8655C140.219 51.537 139.452 51.0676 138.779 50.4418C138.099 49.8238 137.559 49.0571 137.144 48.1575C136.73 47.2579 136.526 46.2331 136.526 45.0832C136.526 43.9332 136.73 42.8849 137.137 41.9852C137.543 41.0856 138.083 40.3269 138.748 39.701C139.421 39.083 140.188 38.6058 141.056 38.2772C141.924 37.9486 142.816 37.7844 143.723 37.7844C144.686 37.7844 145.57 37.9565 146.375 38.3007C147.181 38.6449 147.854 39.1221 148.386 39.7166V37.8H151.734V52.3115H148.386V50.2462C147.854 50.8955 147.181 51.404 146.352 51.7795C145.523 52.155 144.631 52.3349 143.676 52.3349L143.661 52.3584ZM144.208 49.2762C144.834 49.2762 145.413 49.1667 145.945 48.9476C146.477 48.7286 146.931 48.4235 147.306 48.0401C147.69 47.649 147.987 47.2031 148.214 46.6868C148.441 46.1705 148.55 45.6229 148.55 45.0362C148.55 44.4495 148.441 43.9175 148.214 43.4012C147.987 42.8927 147.69 42.4389 147.306 42.0634C146.923 41.6801 146.469 41.3829 145.945 41.1639C145.413 40.9449 144.834 40.8353 144.208 40.8353C143.583 40.8353 143.019 40.9449 142.487 41.1639C141.948 41.3829 141.486 41.6802 141.087 42.0479C140.688 42.4234 140.383 42.8614 140.156 43.3777C139.929 43.894 139.82 44.4416 139.82 45.0362C139.82 45.6307 139.929 46.1783 140.156 46.7025C140.383 47.2266 140.688 47.6725 141.087 48.0558C141.486 48.4391 141.948 48.7364 142.487 48.9554C143.027 49.1745 143.598 49.284 144.208 49.284V49.2762Z" fill="#231F20"/>
<path d="M157.999 44.9423L152.742 37.8235H156.834L160.135 42.4391L163.413 37.8235H167.379L162.169 44.9892L167.723 52.3349H163.632L160.088 47.5004L156.638 52.3349H152.547L158.007 44.9423H157.999Z" fill="#231F20"/>
<path d="M173.747 51.7013L167.794 37.8157H171.369L175.413 47.7428L179.231 37.8157H182.751L174.091 59H170.696L173.747 51.7013Z" fill="#231F20"/>
<path d="M191.904 34.225H195.299L201.745 52.3349H198.225L197.106 49.1119H190.089L188.97 52.3349H185.45L191.896 34.225H191.904ZM191.239 45.881H196.003L193.625 39.0126L191.247 45.881H191.239Z" fill="#231F20"/>
<path d="M204.287 34.225H207.659V52.3349H204.287V34.225Z" fill="#231F20"/>
<path fill-rule="evenodd" clip-rule="evenodd" d="M219.416 33.3332L220.253 31.2053C220.355 31.0098 220.637 31.0098 220.739 31.2053L221.576 33.3332L223.226 34.1702C223.422 34.2719 223.422 34.5535 223.226 34.6552L221.576 35.4923L220.739 37.6201C220.637 37.8157 220.355 37.8157 220.253 37.6201L219.416 35.4923L217.766 34.6552C217.57 34.5535 217.57 34.2719 217.766 34.1702L219.416 33.3332Z" fill="#231F20"/>
<path fill-rule="evenodd" clip-rule="evenodd" d="M219.416 33.3332L220.253 31.2053C220.355 31.0098 220.637 31.0098 220.739 31.2053L221.576 33.3332L223.226 34.1702C223.422 34.2719 223.422 34.5535 223.226 34.6552L221.576 35.4923L220.739 37.6201C220.637 37.8157 220.355 37.8157 220.253 37.6201L219.416 35.4923L217.766 34.6552C217.57 34.5535 217.57 34.2719 217.766 34.1702L219.416 33.3332Z" fill="#231F20"/>
<path fill-rule="evenodd" clip-rule="evenodd" d="M219.416 33.3332L220.253 31.2053C220.355 31.0098 220.637 31.0098 220.739 31.2053L221.576 33.3332L223.226 34.1702C223.422 34.2719 223.422 34.5535 223.226 34.6552L221.576 35.4923L220.739 37.6201C220.637 37.8157 220.355 37.8157 220.253 37.6201L219.416 35.4923L217.766 34.6552C217.57 34.5535 217.57 34.2719 217.766 34.1702L219.416 33.3332Z" fill="#231F20"/>
<path fill-rule="evenodd" clip-rule="evenodd" d="M233.928 53.5788L234.765 51.4509C234.867 51.2554 235.149 51.2554 235.25 51.4509L236.087 53.5788L237.738 54.4158C237.933 54.5175 237.933 54.7992 237.738 54.9009L236.087 55.738L235.25 57.8657C235.149 58.0613 234.867 58.0613 234.765 57.8657L233.928 55.738L232.278 54.9009C232.082 54.7992 232.082 54.5175 232.278 54.4158L233.928 53.5788Z" fill="#231F20"/>
<path fill-rule="evenodd" clip-rule="evenodd" d="M233.928 53.5788L234.765 51.4509C234.867 51.2554 235.149 51.2554 235.25 51.4509L236.087 53.5788L237.738 54.4158C237.933 54.5175 237.933 54.7992 237.738 54.9009L236.087 55.738L235.25 57.8657C235.149 58.0613 234.867 58.0613 234.765 57.8657L233.928 55.738L232.278 54.9009C232.082 54.7992 232.082 54.5175 232.278 54.4158L233.928 53.5788Z" fill="#231F20"/>
<path fill-rule="evenodd" clip-rule="evenodd" d="M233.928 53.5788L234.765 51.4509C234.867 51.2554 235.149 51.2554 235.25 51.4509L236.087 53.5788L237.738 54.4158C237.933 54.5175 237.933 54.7992 237.738 54.9009L236.087 55.738L235.25 57.8657C235.149 58.0613 234.867 58.0613 234.765 57.8657L233.928 55.738L232.278 54.9009C232.082 54.7992 232.082 54.5175 232.278 54.4158L233.928 53.5788Z" fill="#231F20"/>
<path fill-rule="evenodd" clip-rule="evenodd" d="M219.15 39.7949C219.369 39.3412 220.003 39.3412 220.222 39.7949L220.981 41.774L220.371 42.0869C218.258 43.1978 218.657 45.2787 220.324 46.0062L220.371 46.0297L224.462 48.1106L224.501 48.2123L222.068 49.4718L220.222 54.275C220.003 54.7287 219.369 54.7287 219.15 54.275L217.304 49.4718L213.659 47.5786C213.221 47.3517 213.221 46.7102 213.659 46.4834L217.304 44.5903L219.15 39.7871V39.7949Z" fill="#231F20"/>
<path fill-rule="evenodd" clip-rule="evenodd" d="M219.15 39.7949C219.369 39.3412 220.003 39.3412 220.222 39.7949L220.981 41.774L220.371 42.0869C218.258 43.1978 218.657 45.2787 220.324 46.0062L220.371 46.0297L224.462 48.1106L224.501 48.2123L222.068 49.4718L220.222 54.275C220.003 54.7287 219.369 54.7287 219.15 54.275L217.304 49.4718L213.659 47.5786C213.221 47.3517 213.221 46.7102 213.659 46.4834L217.304 44.5903L219.15 39.7871V39.7949Z" fill="#231F20"/>
<path fill-rule="evenodd" clip-rule="evenodd" d="M219.15 39.7949C219.369 39.3412 220.003 39.3412 220.222 39.7949L220.981 41.774L220.371 42.0869C218.258 43.1978 218.657 45.2787 220.324 46.0062L220.371 46.0297L224.462 48.1106L224.501 48.2123L222.068 49.4718L220.222 54.275C220.003 54.7287 219.369 54.7287 219.15 54.275L217.304 49.4718L213.659 47.5786C213.221 47.3517 213.221 46.7102 213.659 46.4834L217.304 44.5903L219.15 39.7871V39.7949Z" fill="#231F20"/>
<path fill-rule="evenodd" clip-rule="evenodd" d="M232.059 40.7962L229.54 34.3815C229.235 33.7791 228.382 33.7791 228.077 34.3815L225.558 40.7962L220.59 43.323C219.988 43.6281 219.988 44.4886 220.59 44.7936L225.558 47.3205L228.077 53.7352C228.382 54.3376 229.235 54.3376 229.54 53.7352L232.059 47.3205L237.026 44.7936C237.629 44.4886 237.629 43.6281 237.026 43.323L232.059 40.7962Z" fill="#231F20"/>
<path fill-rule="evenodd" clip-rule="evenodd" d="M232.059 40.7962L229.54 34.3815C229.235 33.7791 228.382 33.7791 228.077 34.3815L225.558 40.7962L220.59 43.323C219.988 43.6281 219.988 44.4886 220.59 44.7936L225.558 47.3205L228.077 53.7352C228.382 54.3376 229.235 54.3376 229.54 53.7352L232.059 47.3205L237.026 44.7936C237.629 44.4886 237.629 43.6281 237.026 43.323L232.059 40.7962Z" fill="#231F20"/>
</svg>
