<svg width="33" height="33" viewBox="0 0 33 33" fill="none" xmlns="http://www.w3.org/2000/svg">
<path d="M19.9781 16.1807C19.9781 18.1124 18.4124 19.678 16.4808 19.678C14.5492 19.678 12.9836 18.1124 12.9836 16.1807C12.9836 14.2491 14.5492 12.6829 16.4808 12.6829C18.4124 12.6829 19.9781 14.2491 19.9781 16.1807Z" fill="#160E41"/>
<path d="M29.299 0H3.90107C1.96756 0 0.400024 1.56754 0.400024 3.50105V28.899C0.400024 30.8325 1.96756 32.4 3.90107 32.4H29.299C31.2325 32.4 32.8 30.8325 32.8 28.899V3.50105C32.8 1.56754 31.2325 0 29.299 0ZM26.9104 20.5069C26.8598 21.6238 26.6822 22.3867 26.4231 23.0536C26.1544 23.7438 25.796 24.3291 25.2126 24.9125C24.6292 25.4953 24.0439 25.8543 23.3543 26.1223C22.6869 26.382 21.924 26.559 20.8071 26.6102C19.6883 26.6614 19.3306 26.6734 16.4812 26.6734C13.6318 26.6734 13.2741 26.6614 12.1553 26.6102C11.0384 26.559 10.2755 26.382 9.60805 26.1223C8.91846 25.8543 8.33316 25.4953 7.74976 24.9125C7.16635 24.3291 6.80797 23.7438 6.53934 23.0536C6.28019 22.3867 6.10321 21.6238 6.05201 20.5069C6.00081 19.3875 5.9888 19.0304 5.9888 16.181C5.9888 13.331 6.00081 12.9739 6.05201 11.8551C6.10321 10.7383 6.28019 9.97536 6.53934 9.30789C6.80797 8.6183 7.16635 8.033 7.74976 7.4496C8.33316 6.8662 8.91846 6.50718 9.60805 6.23918C10.2755 5.98003 11.0384 5.80242 12.1553 5.75185C13.2741 5.70066 13.6318 5.68865 16.4812 5.68865C19.3306 5.68865 19.6883 5.70066 20.8071 5.75185C21.924 5.80242 22.6869 5.98003 23.3543 6.23918C24.0439 6.50718 24.6292 6.8662 25.2126 7.4496C25.796 8.033 26.1544 8.6183 26.4231 9.30789C26.6822 9.97536 26.8598 10.7383 26.9104 11.8551C26.9616 12.9739 26.9736 13.331 26.9736 16.181C26.9736 19.0304 26.9616 19.3875 26.9104 20.5069ZM24.6608 9.99306C24.4706 9.5032 24.243 9.15366 23.8758 8.78643C23.5086 8.4192 23.159 8.19165 22.6692 8.0014C22.2994 7.85792 21.7438 7.68663 20.7211 7.64048C19.6144 7.58992 19.2825 7.57917 16.4812 7.57917C13.6799 7.57917 13.348 7.58992 12.2413 7.64048C11.2186 7.68663 10.663 7.85792 10.2932 8.0014C9.80336 8.19165 9.45382 8.4192 9.08659 8.78643C8.71935 9.15366 8.49181 9.5032 8.30156 9.99306C8.15807 10.3628 7.98742 10.9184 7.94064 11.9411C7.89008 13.0472 7.87933 13.3791 7.87933 16.181C7.87933 18.9824 7.89008 19.3142 7.94064 20.421C7.98742 21.4437 8.15807 21.9993 8.30156 22.369C8.49181 22.8589 8.71935 23.2084 9.08659 23.5756C9.45382 23.9429 9.80336 24.1698 10.2932 24.3601C10.663 24.5042 11.2186 24.6748 12.2413 24.7216C13.3474 24.7722 13.6792 24.7829 16.4812 24.7829C19.2832 24.7829 19.615 24.7722 20.7211 24.7216C21.7438 24.6748 22.2994 24.5042 22.6692 24.3601C23.159 24.1698 23.5086 23.9429 23.8758 23.5756C24.243 23.2084 24.4706 22.8589 24.6608 22.369C24.8043 21.9993 24.975 21.4437 25.0218 20.421C25.0723 19.3142 25.0831 18.9824 25.0831 16.181C25.0831 13.3791 25.0723 13.0472 25.0218 11.9411C24.975 10.9184 24.8043 10.3628 24.6608 9.99306ZM16.4812 21.5688C13.5054 21.5688 11.0934 19.1568 11.0934 16.181C11.0934 13.2052 13.5054 10.7926 16.4812 10.7926C19.457 10.7926 21.869 13.2052 21.869 16.181C21.869 19.1568 19.457 21.5688 16.4812 21.5688ZM22.082 11.8393C21.3867 11.8393 20.8229 11.2755 20.8229 10.5803C20.8229 9.88497 21.3867 9.32116 22.082 9.32116C22.7773 9.32116 23.3411 9.88497 23.3411 10.5803C23.3411 11.2755 22.7773 11.8393 22.082 11.8393Z" fill="black"/>
</svg>
