<svg width="28" height="28" viewBox="0 0 28 28" fill="none" xmlns="http://www.w3.org/2000/svg">
<g clip-path="url(#clip0_2128_2839)">
<path fill-rule="evenodd" clip-rule="evenodd" d="M7.25457 0.954324C7.07226 1.01016 6.85022 1.18202 6.43246 1.59065C5.11086 2.88333 4.37533 3.92048 3.72338 5.41066C3.65769 5.56083 3.59629 5.6835 3.58693 5.6833C3.57758 5.6831 3.33955 5.44426 3.05796 5.15256C2.62015 4.69904 2.51915 4.609 2.36107 4.53118C2.19631 4.45007 2.14997 4.4401 1.93507 4.43965C1.72981 4.43923 1.66849 4.4508 1.52286 4.51746C1.00323 4.75538 0.784274 5.35872 1.0337 5.86538C1.10084 6.00174 1.24532 6.16879 1.72591 6.66568C2.96438 7.94615 3.38469 8.36013 3.50977 8.42257C3.96281 8.64884 4.50819 8.51225 4.79057 8.10183C4.83755 8.03354 4.92637 7.83636 4.98794 7.66366C5.29468 6.80316 5.69643 5.87689 5.99846 5.33366C6.46203 4.49996 6.8794 3.97438 7.80172 3.06289C8.4836 2.38899 8.52423 2.3247 8.52529 1.91766C8.52585 1.69719 8.51605 1.64556 8.44703 1.50497C8.34755 1.30239 8.16367 1.11717 7.96608 1.02052C7.84685 0.962192 7.7614 0.943264 7.58139 0.935312C7.4541 0.929712 7.30701 0.938252 7.25457 0.954324ZM11.4591 3.81088C11.1919 3.91381 10.9172 4.22206 10.852 4.49226C10.8127 4.65517 10.8317 4.94217 10.8926 5.1049C10.9701 5.31202 11.1757 5.53608 11.3864 5.64278L11.5499 5.72566H18.8999H26.2499L26.4039 5.65233C26.951 5.39176 27.1511 4.69622 26.8211 4.20204C26.7044 4.02721 26.6062 3.9403 26.4039 3.8327L26.2779 3.76566L18.9419 3.76001C11.6431 3.75438 11.6052 3.75466 11.4591 3.81088ZM7.27238 10.2575C7.03894 10.3563 6.96418 10.4194 6.32542 11.0576C5.482 11.9003 4.94549 12.5724 4.46938 13.3827C4.26666 13.7277 3.92067 14.4168 3.74973 14.8159L3.68194 14.9742L3.1554 14.4319C2.70594 13.9691 2.60178 13.8763 2.444 13.7987C2.27866 13.7173 2.23381 13.7077 2.01857 13.708C1.81879 13.7083 1.75095 13.7208 1.61904 13.7815C1.39845 13.883 1.22119 14.0557 1.11395 14.2736C1.03364 14.4367 1.02398 14.4823 1.02426 14.697C1.02471 15.0146 1.09997 15.1814 1.37577 15.4763C1.96439 16.1057 3.44402 17.6007 3.5355 17.6585C3.92274 17.9029 4.48352 17.8199 4.79642 17.4719C4.92668 17.327 4.94944 17.2782 5.18184 16.6457C5.55679 15.6251 6.03201 14.6333 6.44131 14.0171C6.78733 13.4962 7.20358 13.0092 7.86811 12.3477C8.18526 12.032 8.46529 11.7408 8.49041 11.7006C8.57763 11.5611 8.63153 11.3126 8.61741 11.1151C8.59191 10.7586 8.38221 10.451 8.05585 10.2913C7.82199 10.1769 7.49627 10.1629 7.27238 10.2575ZM11.6059 13.0866C11.3385 13.1707 11.0746 13.4203 10.9769 13.6816C10.8984 13.8914 10.8999 14.1959 10.9805 14.4116C11.0642 14.6357 11.3202 14.8915 11.5445 14.9753L11.7072 15.0361L19.0345 15.0289L26.3619 15.0217L26.5119 14.9427C27.0549 14.6567 27.2361 13.991 26.9048 13.4989C26.7772 13.3093 26.6425 13.199 26.434 13.1132L26.2779 13.049L18.9979 13.0502C13.2309 13.0512 11.6947 13.0587 11.6059 13.0866ZM7.18838 19.5255C6.95346 19.6249 6.87909 19.6879 6.22862 20.3394C5.05559 21.5143 4.44152 22.3838 3.80679 23.7685C3.69658 24.0089 3.60102 24.2113 3.59441 24.2181C3.58783 24.2249 3.34023 23.9833 3.04418 23.6811C2.4811 23.1063 2.40172 23.0469 2.11909 22.9885C1.67784 22.8975 1.20934 23.1389 1.01961 23.5551C0.952554 23.7023 0.939898 23.7671 0.939002 23.9682C0.937154 24.3856 0.94715 24.3993 2.18859 25.6801C2.77577 26.286 3.31833 26.8287 3.39421 26.8862C3.56963 27.019 3.7096 27.0596 3.98994 27.0593C4.24003 27.0589 4.40067 27.0031 4.59477 26.8494C4.77615 26.7058 4.85609 26.5564 5.09658 25.912C5.86179 23.8613 6.41815 22.9708 7.77193 21.6297C8.09838 21.3063 8.39168 20.9923 8.42371 20.932C8.62688 20.5491 8.55058 20.0613 8.23955 19.7547C8.04658 19.5644 7.86116 19.4841 7.58139 19.4694C7.38197 19.4589 7.32759 19.4667 7.18838 19.5255ZM11.5352 22.3815C11.1163 22.5179 10.834 22.8962 10.8327 23.3227C10.832 23.5437 10.8508 23.6313 10.9355 23.801C11.0761 24.0825 11.3639 24.2831 11.696 24.3311C11.9413 24.3666 25.8717 24.3687 26.1165 24.3333C26.3432 24.3005 26.522 24.21 26.6894 24.0431C26.8501 23.8829 26.9178 23.7583 26.9631 23.5388C27.0539 23.0988 26.802 22.6126 26.383 22.4191L26.2499 22.3577L18.9419 22.3535C13.5041 22.3504 11.6087 22.3576 11.5352 22.3815Z" fill="#0E172B"/>
</g>
<defs>
<clipPath id="clip0_2128_2839">
<rect width="28" height="28" fill="white"/>
</clipPath>
</defs>
</svg>