<svg width="28" height="28" viewBox="0 0 28 28" fill="none" xmlns="http://www.w3.org/2000/svg">
<g clip-path="url(#clip0_2128_2836)">
<path fill-rule="evenodd" clip-rule="evenodd" d="M18.8925 0.954653C18.7252 0.994077 18.5665 1.08692 18.4259 1.22774C18.182 1.47187 18.1175 1.69889 18.1165 2.31719L18.116 2.66019L17.773 2.66075C17.1517 2.66178 16.9279 2.72593 16.6792 2.97438C16.1892 3.46393 16.3344 4.2754 16.9678 4.58645C17.1149 4.65869 17.1449 4.66261 17.619 4.67146L18.116 4.68072L18.1165 5.02146C18.1176 5.66613 18.186 5.89293 18.4566 6.14888C18.6524 6.33404 18.8549 6.41219 19.1387 6.41219C19.4965 6.41219 19.7877 6.25236 19.976 5.95265C20.1111 5.73761 20.132 5.62721 20.132 5.1297V4.67972L20.6298 4.67095L21.1275 4.66219L21.3146 4.56998C21.5411 4.45838 21.7315 4.25381 21.8152 4.03219C21.8628 3.90608 21.8712 3.83255 21.8618 3.62619C21.8482 3.3304 21.7783 3.16506 21.5847 2.97149C21.3438 2.73064 21.0984 2.66176 20.4772 2.66075L20.1365 2.66019L20.1272 2.16319C20.1185 1.6938 20.1139 1.65762 20.0442 1.51219C19.8358 1.07698 19.357 0.845229 18.8925 0.954653ZM10.43 6.51243C8.97747 6.61799 8.1053 6.77706 7.06751 7.12571C4.88059 7.8604 3.25013 9.21012 2.18467 11.1678C1.63968 12.1691 1.2514 13.4066 1.06568 14.734C0.95995 15.4896 0.939566 15.8213 0.939454 16.7862C0.939342 17.7493 0.958382 18.0572 1.06635 18.8384C1.46871 21.7494 2.79571 24.0086 4.92797 25.4128C6.30901 26.3223 7.86609 26.8245 9.92597 27.025C10.4092 27.072 11.9966 27.0721 12.502 27.0251C14.8431 26.8076 16.6393 26.1477 18.132 24.9567C19.5285 23.8425 20.4664 22.3817 21.0317 20.4402C21.224 19.7799 21.1927 19.4777 20.8983 19.1519C20.6056 18.8279 20.2172 18.7398 19.782 18.8987C19.1098 19.1441 18.9757 19.1894 18.7375 19.2515C18.0445 19.432 17.3201 19.5018 16.366 19.4798C15.1407 19.4515 14.2682 19.2599 13.398 18.828C12.9273 18.5944 12.5748 18.3417 12.2086 17.9755C11.4417 17.2086 10.9816 16.2168 10.7756 14.8866C10.7027 14.416 10.6733 13.2173 10.7218 12.691C10.8562 11.2298 11.2858 10.1192 12.0513 9.2534C12.2638 9.01314 12.5658 8.75618 12.9204 8.51384C13.2641 8.27895 13.3583 8.1831 13.4586 7.96619C13.524 7.82496 13.5365 7.76028 13.5372 7.56019C13.5378 7.35993 13.5262 7.29699 13.4635 7.16329C13.3617 6.94618 13.1866 6.76479 12.981 6.66357C12.8445 6.5964 12.7486 6.57319 12.5155 6.55084C12.2163 6.5222 10.6841 6.49395 10.43 6.51243ZM24.0266 6.94864C23.7787 7.0199 23.5252 7.25244 23.4004 7.52295C23.3449 7.64338 23.3371 7.71229 23.3288 8.1525L23.3195 8.64684L22.8247 8.65681C22.3577 8.66622 22.321 8.67098 22.1694 8.74176C21.9761 8.83198 21.7675 9.03517 21.672 9.22619C21.6106 9.34897 21.602 9.40236 21.6022 9.66019C21.6023 9.92512 21.6098 9.96836 21.6778 10.0977C21.7729 10.2784 21.9606 10.4672 22.1279 10.5504C22.3034 10.6377 22.5141 10.6678 22.9507 10.668L23.3194 10.6682L23.3287 11.1652C23.3374 11.6308 23.3425 11.6719 23.4102 11.8162C23.5026 12.0131 23.715 12.2255 23.9119 12.3179C24.0419 12.3789 24.1055 12.3902 24.3186 12.3902C24.5476 12.3902 24.5886 12.3816 24.7584 12.298C24.9847 12.1866 25.1749 11.9826 25.2599 11.7602C25.3081 11.6338 25.3213 11.522 25.3332 11.1372L25.3477 10.6682H25.7167C26.3195 10.6682 26.5649 10.5936 26.7996 10.339C26.9854 10.1374 27.0608 9.94164 27.0608 9.66019C27.0608 9.45895 27.0488 9.39623 26.983 9.25419C26.8816 9.03523 26.6915 8.84419 26.477 8.74588C26.3146 8.6714 26.2815 8.66692 25.823 8.65703L25.34 8.64664L25.3394 8.30642C25.3383 7.65721 25.2675 7.42674 24.9916 7.1746C24.7898 6.99011 24.5946 6.91532 24.3239 6.91871C24.2129 6.92011 24.079 6.93358 24.0266 6.94864ZM9.47797 8.61288C8.82809 8.70124 8.12834 8.8688 7.54723 9.07521C7.13563 9.22137 6.37255 9.59962 6.03397 9.82528C4.7089 10.7084 3.76773 12.0591 3.3103 13.7342C3.05138 14.6823 2.93997 15.6005 2.93997 16.7862C2.93997 18.5841 3.22316 19.9835 3.83762 21.2221C4.4996 22.5564 5.44373 23.5006 6.77804 24.1625C7.76823 24.6538 8.84528 24.9251 10.231 25.0322C10.7022 25.0687 11.7606 25.068 12.2374 25.0309C13.8851 24.9027 15.2812 24.4709 16.38 23.7497C17.2228 23.1965 17.9539 22.4111 18.4191 21.5593L18.5343 21.3485L18.2049 21.3959C16.8688 21.5882 15.3276 21.5178 14.098 21.2083C13.5104 21.0603 13.0701 20.901 12.558 20.6511C10.6048 19.698 9.33887 17.9792 8.87619 15.6522C8.72751 14.9044 8.69551 14.5261 8.69621 13.5242C8.69699 12.3666 8.76316 11.7933 9.00158 10.8782C9.18254 10.1836 9.51177 9.39755 9.84597 8.86219C9.92286 8.73899 9.99513 8.62245 10.0065 8.60319C10.0333 8.55794 9.85827 8.56116 9.47797 8.61288Z" fill="#0E172B"/>
</g>
<defs>
<clipPath id="clip0_2128_2836">
<rect width="28" height="28" fill="white"/>
</clipPath>
</defs>
</svg>
