<svg width="81" height="69" viewBox="0 0 81 69" fill="none" xmlns="http://www.w3.org/2000/svg">
<path fill-rule="evenodd" clip-rule="evenodd" d="M36.5818 0.0364396C34.7088 0.0745377 31.4548 0.2437 29.3148 0.41398C23.0626 0.911748 14.3526 2.15952 11.6512 2.94453C6.17465 4.53579 2.28668 7.95145 0.735236 12.5344C0.0689935 14.5023 -0.0281005 15.59 0.0058695 20.7044L0.0318417 24.6174L0.260602 25.1054C0.630144 25.8937 1.07416 26.2997 2.21108 26.8893C4.70001 28.1798 6.18256 29.9949 6.92311 32.6584C7.04368 33.0922 7.07885 33.5353 7.08014 34.6364C7.08152 35.8536 7.05357 36.1594 6.88329 36.7864C6.19589 39.3172 4.41862 41.4049 2.02171 42.4972C1.22741 42.8593 0.591529 43.4612 0.263009 44.1621L0.0318417 44.6554V49.1274C0.0318417 53.8699 0.0566096 54.2563 0.464422 55.8807C1.79501 61.1807 6.22376 65.1881 12.2868 66.5784C15.4851 67.3118 26.2761 68.404 34.1308 68.7894C36.7388 68.9174 43.5742 68.9165 46.1708 68.7879C52.6681 68.466 62.4308 67.5446 66.7248 66.8477C73.5034 65.7476 78.4179 61.6308 79.8708 55.8354C80.2416 54.356 80.2698 53.8848 80.2698 49.1704V44.6554L80.0387 44.1621C79.7102 43.4612 79.0743 42.8593 78.28 42.4972C77.2836 42.0431 76.4711 41.4791 75.705 40.7095C74.5726 39.5717 73.8279 38.2941 73.4184 36.7864C73.2481 36.1594 73.2202 35.8536 73.2215 34.6364C73.2228 33.5353 73.258 33.0922 73.3786 32.6584C74.1191 29.9949 75.6017 28.1798 78.0906 26.8893C79.2275 26.2997 79.6715 25.8937 80.0411 25.1054L80.2698 24.6174L80.297 20.6184C80.3315 15.542 80.2301 14.4639 79.5325 12.4869C77.8802 7.80499 73.7168 4.24399 68.212 2.80452C66.9249 2.46792 66.3461 2.37022 62.9408 1.91468C54.2846 0.756604 48.7625 0.257718 42.4728 0.0655077C39.8554 -0.0144723 39.2315 -0.0175684 36.5818 0.0364396ZM35.4208 6.22818C29.9734 6.39829 22.2141 7.23163 15.8558 8.32942C10.5835 9.23964 7.53474 11.346 6.47066 14.8134L6.23313 15.5874L6.20518 18.8124L6.17732 22.0374L6.98924 22.5776C8.42028 23.5298 9.92391 25.0873 10.9628 26.6933C13.2246 30.19 13.8933 34.5478 12.7875 38.5842C11.9081 41.7946 9.70985 44.8708 6.9391 46.7685L6.1682 47.2965L6.20062 50.5339C6.23304 53.7655 6.23356 53.7728 6.46576 54.5279C6.90161 55.9452 7.54489 56.9887 8.59125 57.9757C10.0706 59.3713 12.0515 60.3053 14.4368 60.7322C15.7745 60.9716 20.1306 61.49 23.8108 61.8477C35.6963 63.0032 43.4638 63.0359 55.0718 61.9791C59.819 61.5469 65.4009 60.8673 66.6818 60.5657C70.518 59.6624 73.0283 57.5319 73.8769 54.4594C74.0539 53.8184 74.0692 53.5504 74.1002 50.5339L74.1335 47.2965L73.3626 46.7685C70.5918 44.8708 68.3936 41.7946 67.5141 38.5842C66.5691 35.1347 66.9355 31.2787 68.5053 28.1512C69.6214 25.9276 71.4309 23.8295 73.3124 22.5776L74.1244 22.0374L74.0949 18.8124C74.0619 15.2217 74.0514 15.1454 73.3951 13.7635C72.6904 12.2795 71.5187 11.0608 69.8083 10.0328C68.3086 9.13154 66.701 8.65854 63.7148 8.24015C52.0261 6.60228 43.3041 5.98214 35.4208 6.22818ZM27.6648 13.4811C25.7925 13.7789 24.2245 14.5496 22.8939 15.8261C21.007 17.6364 20.0869 19.9541 20.2258 22.5467C20.4544 26.8113 23.6973 30.2049 27.9948 30.677C28.9216 30.7787 30.1635 30.6924 31.0243 30.4665C34.0506 29.6723 36.3399 27.3897 37.2454 24.2634C37.4187 23.6653 37.4412 23.403 37.4371 22.0374C37.4327 20.6029 37.415 20.4326 37.1966 19.7154C36.7904 18.3819 36.2436 17.3792 35.3561 16.3404C34.3525 15.1657 32.5784 14.0877 30.9918 13.6887C30.0301 13.4468 28.4861 13.3504 27.6648 13.4811ZM52.3853 17.4293C51.882 17.5576 51.2101 18.0393 50.7185 18.6242C50.4527 18.9405 49.4472 20.1475 48.4841 21.3064C41.6793 29.4943 36.2883 34.8425 27.0788 42.5415C24.8823 44.3778 24.5526 44.6996 24.269 45.2843C24.0638 45.7071 24.0316 45.8783 24.0313 46.5474C24.0309 47.4238 24.1929 47.8954 24.7121 48.5289C25.5855 49.5946 27.1974 49.9366 28.4223 49.3159C29.0371 49.0043 34.2599 44.6138 37.7392 41.4835C43.872 35.9661 48.1338 31.4506 54.4645 23.7627C56.1044 21.7712 56.269 21.4655 56.2729 20.4034C56.2755 19.732 56.2449 19.5664 56.0423 19.1538C55.7043 18.4656 55.2888 18.0233 54.6699 17.6928C54.1915 17.4372 54.0376 17.3996 53.3948 17.3803C52.9928 17.3682 52.5385 17.3903 52.3853 17.4293ZM28.0678 19.6919C27.3381 19.9521 26.6754 20.6402 26.4789 21.3419C26.3375 21.8471 26.4 22.7213 26.6087 23.1554C26.855 23.668 27.441 24.1924 28.0058 24.4057C29.8057 25.0854 31.7112 23.4435 31.2928 21.5735C31.0272 20.3869 30.0144 19.5767 28.8171 19.5932C28.5469 19.5969 28.2097 19.6413 28.0678 19.6919ZM49.9399 36.5258C47.0084 37.1441 44.5914 39.2056 43.557 41.9701C42.8621 43.827 42.8602 46.1742 43.5521 48.0127C44.6032 50.8049 47.0292 52.884 49.9405 53.4873C51.0335 53.7139 52.931 53.6678 53.8891 53.3916C56.6595 52.5928 58.8107 50.6345 59.7975 48.0127C60.3146 46.6389 60.4643 44.6334 60.1556 43.2171C59.5275 40.3357 57.5259 37.9967 54.7589 36.9103C53.3774 36.368 51.4264 36.2123 49.9399 36.5258ZM50.7932 42.666C50.3234 42.841 49.8859 43.2035 49.5997 43.6549C48.5265 45.3471 49.6823 47.4747 51.6748 47.4747C52.6614 47.4747 53.4543 46.9814 53.925 46.0744C54.224 45.4983 54.2089 44.4801 53.8923 43.8737C53.6509 43.4112 53.2321 42.9917 52.7702 42.7499C52.3966 42.5542 51.2263 42.5046 50.7932 42.666Z" fill="#2B7FFF"/>
</svg>
