<svg width="90" height="105" viewBox="0 0 90 105" fill="none" xmlns="http://www.w3.org/2000/svg">
<path d="M66.4489 12.0161C67.984 12.1919 71.2224 12.4901 72.9175 12.6939C74.7128 12.9098 76.4837 13.1231 78.2381 13.3247C83.72 13.9548 88.2528 18.287 88.6795 23.9738C90.4402 47.4074 90.4402 69.5395 88.6795 92.9734C88.2543 98.6397 83.7113 103.068 78.0853 103.521C55.367 105.344 34.6328 105.344 11.9145 103.521C6.28796 103.068 1.74601 98.6393 1.32031 92.9734C-0.440104 69.5395 -0.440103 47.4074 1.32031 23.9738C1.74754 18.2873 6.28015 13.9547 11.7617 13.3247C13.5164 13.1231 15.2869 12.9098 17.0823 12.6939C18.8196 12.4851 21.891 12.1986 23.4843 12.0161L24.3972 19.9853C22.1566 20.2418 20.0797 20.4138 18.0383 20.6592C16.2475 20.8745 14.4571 21.0895 12.6785 21.2939C10.7686 21.5134 9.44119 22.9727 9.32083 24.5732C7.59034 47.6076 7.59034 69.3392 9.32083 92.3739C9.44275 93.9948 10.7666 95.3761 12.5571 95.52C34.8478 97.3095 55.152 97.3095 77.4428 95.52C79.2334 95.3761 80.5574 93.9945 80.679 92.3739C82.3015 70.7793 82.4003 50.3302 80.9807 28.8791L80.679 24.5732C80.5589 22.973 79.232 21.5135 77.3213 21.2939C75.5431 21.0895 73.7524 20.8745 71.9615 20.6592C69.8793 20.4088 67.8339 20.2485 65.536 19.9853L66.4489 12.0161Z" fill="#0E172B"/>
<path d="M62.0814 14.5109C62.0812 12.3085 61.3989 11.0103 60.4711 10.1816C59.4565 9.27622 57.628 8.47244 54.5667 8.3558C42.8726 7.91073 47.1293 7.91073 35.4352 8.3558C32.3739 8.47243 30.5454 9.27621 29.5308 10.1816C28.6029 11.0103 27.9207 12.3085 27.9205 14.5109C27.9205 16.7148 28.6022 18.0155 29.5308 18.8442C30.5454 19.7496 32.3739 20.5494 35.4352 20.6661C47.1293 21.1111 42.8726 21.1111 54.5667 20.6661C57.6279 20.5494 59.4565 19.7496 60.4711 18.8442C61.3997 18.0155 62.0814 16.7147 62.0814 14.5109ZM70.1054 14.5109C70.1054 18.565 68.7468 22.2115 65.8113 24.8309C62.9621 27.3729 59.1025 28.525 54.8723 28.6862C42.9748 29.139 47.0271 29.139 35.1296 28.6862C30.8994 28.525 27.0398 27.3729 24.1906 24.8309C21.2551 22.2115 19.8965 18.565 19.8965 14.5109C19.8967 10.4574 21.2555 6.81418 24.1906 4.1949C27.0399 1.65238 30.899 0.500817 35.1296 0.339606C47.0271 -0.113202 42.9748 -0.113202 54.8723 0.339606C59.1028 0.500835 62.9621 1.6524 65.8113 4.1949C68.7463 6.81418 70.1052 10.4574 70.1054 14.5109Z" fill="#0E172B"/>
<path d="M52.6059 52.7651C52.6059 49.7872 51.7799 48.0255 50.7606 47.0056C49.7409 45.986 47.9794 45.1604 45.0011 45.1603C42.0225 45.1603 40.2615 45.9859 39.2417 47.0056C38.222 48.0254 37.3963 49.7864 37.3963 52.7651C37.3965 55.7432 38.222 57.5048 39.2417 58.5245C40.2616 59.5439 42.0233 60.3699 45.0011 60.3699C47.9793 60.3697 49.7409 59.5442 50.7606 58.5245C51.7802 57.5048 52.6058 55.7432 52.6059 52.7651ZM60.63 52.7651C60.6298 57.2203 59.3633 61.2682 56.4338 64.1977C53.5043 67.1273 49.4565 68.3937 45.0011 68.3939C40.5459 68.3939 36.4981 67.1269 33.5685 64.1977C30.6389 61.2682 29.3725 57.2204 29.3723 52.7651C29.3723 48.3094 30.6388 44.2621 33.5685 41.3324C36.4982 38.4027 40.5455 37.1362 45.0011 37.1362C49.4565 37.1364 53.5043 38.4029 56.4338 41.3324C59.363 44.262 60.63 48.3098 60.63 52.7651Z" fill="#0E172B"/>
<path d="M44.992 71.8145C52.0536 71.8145 58.1141 74.3766 62.4035 78.8394C66.6721 83.2806 68.9611 89.3635 68.9818 96.0276V100.361C68.9818 102.497 67.3069 104.26 65.1735 104.369C51.5669 105.06 38.4214 105.061 24.8144 104.369C22.6805 104.26 21.0061 102.497 21.0061 100.361V96.0276L21.0374 94.7856C21.3216 88.61 23.5825 83.0031 27.5844 78.8394C31.8735 74.3772 37.9313 71.8148 44.992 71.8145ZM44.992 79.8385C39.9436 79.8388 36.0325 81.6312 33.3713 84.399C30.6893 87.1894 29.0449 91.2177 29.0301 96.055V96.5212C39.7547 96.9649 50.2333 96.9645 60.9578 96.5212V96.055L60.9342 95.1578C60.7321 90.719 59.1312 87.0153 56.6166 84.399C53.9552 81.6307 50.0414 79.8385 44.992 79.8385Z" fill="#0E172B"/>
</svg>
