<svg width="28" height="28" viewBox="0 0 28 28" fill="none" xmlns="http://www.w3.org/2000/svg">
<g clip-path="url(#clip0_2128_2827)">
<path fill-rule="evenodd" clip-rule="evenodd" d="M9.74403 0.953264C8.36959 1.08374 7.31805 1.49557 6.43829 2.24793C5.6826 2.8942 5.13069 3.82175 4.85464 4.90944C4.62851 5.80054 4.58517 7.10159 4.74866 8.09234C5.14632 10.5023 6.74484 12.0932 9.16605 12.4888C9.69691 12.5755 10.3948 12.6084 10.959 12.5733C12.2153 12.4952 13.1655 12.208 14 11.6542C15.1971 10.8599 15.9142 9.70133 16.2048 8.09234C16.2733 7.7128 16.2782 7.62886 16.28 6.80434C16.2814 6.19946 16.2702 5.84316 16.2444 5.67034C16.0387 4.29431 15.5776 3.30865 14.7577 2.49223C14.347 2.08334 14.0097 1.83568 13.524 1.58632C12.94 1.28646 12.3105 1.09637 11.564 0.994424C11.1794 0.941896 10.1169 0.917872 9.74403 0.953264ZM9.87003 2.95725C8.75473 3.11321 8.18012 3.352 7.63401 3.8864C7.18015 4.33054 6.9043 4.88869 6.74207 5.6912C6.68514 5.9728 6.67834 6.08684 6.67834 6.76234C6.67834 7.43619 6.68523 7.5523 6.74159 7.83096C7.03201 9.26691 7.79369 10.0955 9.12803 10.4271C9.69789 10.5687 10.4365 10.6177 11.0641 10.5556C12.037 10.4594 12.7458 10.1735 13.2824 9.66107C13.8942 9.07676 14.2019 8.31267 14.281 7.18077C14.3606 6.04232 14.1413 5.00576 13.6732 4.30811C13.2216 3.63499 12.4814 3.19436 11.508 3.01927C11.2608 2.97481 11.0429 2.95952 10.57 2.95342C10.2312 2.94908 9.91623 2.95078 9.87003 2.95725ZM20.72 13.945C19.363 14.0704 18.1999 14.8389 17.5674 16.0279C17.2348 16.653 17.1093 17.1872 17.1085 17.9816L17.108 18.4489L16.975 18.4681C16.2164 18.5776 15.5415 19.1847 15.3587 19.9223C15.3067 20.1322 15.1673 21.022 15.1021 21.5603C15.035 22.115 15.0348 23.1866 15.1017 23.7443C15.1647 24.27 15.3056 25.1676 15.3588 25.3823C15.3816 25.4747 15.4526 25.6574 15.5164 25.7883C15.6096 25.9794 15.6799 26.0738 15.8732 26.2669C16.1354 26.5287 16.3636 26.673 16.66 26.764C16.8973 26.8369 16.9377 26.8425 17.598 26.8936C20.6202 27.1278 21.4919 27.1278 24.514 26.8936C25.1744 26.8425 25.2148 26.8369 25.452 26.764C25.7495 26.6726 25.9766 26.5289 26.2377 26.2669C26.5011 26.0024 26.6717 25.7172 26.7501 25.4103C26.8007 25.2121 26.9735 24.0927 27.0245 23.6323C27.0441 23.4552 27.0601 23.0142 27.0601 22.6523C27.0601 22.2904 27.0441 21.8494 27.0245 21.6723C26.9617 21.1057 26.7965 20.0688 26.7367 19.8663C26.6502 19.5731 26.4955 19.3014 26.2923 19.086C25.9778 18.7525 25.6616 18.5728 25.2453 18.491L25.0102 18.4448L24.996 17.8676C24.9766 17.0812 24.8805 16.6786 24.569 16.0779C23.8263 14.6453 22.2991 13.799 20.72 13.945ZM10.01 14.2135C7.38416 14.3174 5.01259 15.0412 2.8443 16.4005C2.37916 16.6921 2.12296 16.8861 1.87452 17.1347C0.883459 18.1265 0.650471 19.5576 1.27619 20.8102C1.75756 21.774 2.70601 22.5462 3.79633 22.8622C4.41081 23.0403 4.13832 23.0303 8.40003 23.0303H12.278L12.418 22.9617C12.5973 22.8739 12.8216 22.6496 12.9094 22.4703C12.9683 22.3501 12.978 22.2907 12.978 22.0503C12.978 21.8099 12.9683 21.7505 12.9094 21.6303C12.8216 21.4511 12.5973 21.2268 12.418 21.139L12.278 21.0703L8.52603 21.0536C4.49845 21.0355 4.6669 21.0418 4.25541 20.8949C3.62298 20.6692 3.17772 20.2513 2.99539 19.7123C2.94527 19.5642 2.93636 19.4884 2.94748 19.3049C2.97976 18.7723 3.29364 18.4404 4.32032 17.8534C6.87549 16.3925 9.83329 15.8895 12.7283 16.4233C13.1174 16.4951 13.4757 16.5784 13.9275 16.702C14.3529 16.8184 14.6151 16.8002 14.8685 16.6367C15.0526 16.5178 15.1645 16.3953 15.2522 16.2168C15.3215 16.0756 15.33 16.0278 15.33 15.7783C15.33 15.539 15.3202 15.4784 15.2625 15.3612C15.1314 15.0949 14.9197 14.9142 14.6253 14.8176C14.0977 14.6444 13.1341 14.4355 12.418 14.3392C11.7098 14.244 10.6454 14.1884 10.01 14.2135ZM20.65 15.9781C20.5422 16.0008 20.3358 16.0765 20.1914 16.1462C19.9761 16.2503 19.8874 16.3143 19.6987 16.5017C19.2918 16.9059 19.1343 17.2886 19.1042 17.9457L19.087 18.3209L19.1965 18.304C19.2567 18.2946 19.6998 18.2717 20.181 18.253C20.8682 18.2262 21.2439 18.2262 21.931 18.253C22.4123 18.2717 22.8553 18.2946 22.9154 18.3039L23.0248 18.3209L23.0079 17.9456C22.9781 17.2865 22.8299 16.9216 22.4275 16.5167C22.225 16.313 22.1458 16.255 21.9227 16.1474C21.4964 15.9417 21.0839 15.8869 20.65 15.9781ZM19.796 20.2756C19.3494 20.2992 17.8718 20.4022 17.5017 20.4356L17.2933 20.4543L17.2441 20.7623C17.0953 21.6926 17.0682 21.9837 17.0682 22.6523C17.0682 23.321 17.0953 23.6124 17.2441 24.5423L17.2933 24.8503L17.4877 24.8693C18.4974 24.9679 20.2209 25.0601 21.056 25.0601C21.8911 25.0601 23.5983 24.9688 24.626 24.8693L24.822 24.8503L24.8977 24.3491C25.1102 22.9408 25.1102 22.3639 24.8977 20.9555L24.822 20.4543L24.612 20.4356C22.7478 20.269 21.0107 20.2113 19.796 20.2756Z" fill="#0E172B"/>
</g>
<defs>
<clipPath id="clip0_2128_2827">
<rect width="28" height="28" fill="white"/>
</clipPath>
</defs>
</svg>
