<svg width="52" height="52" viewBox="0 0 52 52" fill="none" xmlns="http://www.w3.org/2000/svg">
<mask id="mask0_2202_436" style="mask-type:luminance" maskUnits="userSpaceOnUse" x="11" y="5" width="12" height="13">
<path d="M16.6165 5.2727L15.0949 9.13956L12.0952 10.6612C11.7352 10.8467 11.7352 11.3593 12.0952 11.5448L15.0949 13.0664L16.6165 16.9333C16.8019 17.2933 17.3146 17.2933 17.5 16.9333L19.0217 13.0664L22.0214 11.5448C22.3814 11.3593 22.3814 10.8412 22.0214 10.6612L19.0217 9.13956L17.5 5.2727C17.4073 5.09272 17.2328 5 17.0583 5C16.8837 5 16.7092 5.09272 16.6165 5.2727Z" fill="white"/>
</mask>
<g mask="url(#mask0_2202_436)">
<path d="M6.51025 10.3667L16.3819 23.4562L27.6062 11.932L17.7345 -1.15753L6.51025 10.3667Z" fill="url(#paint0_linear_2202_436)"/>
</g>
<mask id="mask1_2202_436" style="mask-type:luminance" maskUnits="userSpaceOnUse" x="4" y="20" width="21" height="28">
<path d="M14.6039 20.9092L11.2388 29.6574L4.6013 33.0989C3.79957 33.5134 3.79957 34.686 4.6013 35.1005L11.2388 38.5419L14.6039 47.2901C15.0075 48.1082 16.1528 48.1082 16.5619 47.2901L19.927 38.5419L24.361 36.2458L24.2847 36.0549L16.84 32.2644L16.7527 32.2208C13.7258 30.8846 12.9895 27.1049 16.84 25.0761L17.9472 24.5143L16.5619 20.9147C16.3601 20.5057 15.9728 20.2984 15.5856 20.2984C15.1983 20.2984 14.8111 20.5002 14.6093 20.9147" fill="white"/>
</mask>
<g mask="url(#mask1_2202_436)">
<path d="M-4.76855 26.5595L8.43004 59.7579L32.9239 41.847L19.7252 8.64868L-4.76855 26.5595Z" fill="url(#paint1_linear_2202_436)"/>
</g>
<mask id="mask2_2202_436" style="mask-type:luminance" maskUnits="userSpaceOnUse" x="16" y="10" width="32" height="38">
<path d="M30.8626 11.0539L26.2813 22.7363L17.2331 27.334C16.1423 27.8903 16.1423 29.4502 17.2331 30.0065L26.2813 34.5987L30.8626 46.2811C31.4189 47.3774 32.9733 47.3774 33.5296 46.2811L38.111 34.5987L47.1591 30.0065C48.2499 29.4502 48.2499 27.8903 47.1591 27.334L38.111 22.7363L33.5296 11.0539C33.2515 10.5085 32.7279 10.2358 32.1988 10.2358C31.6698 10.2358 31.1408 10.5085 30.8681 11.0539" fill="white"/>
</mask>
<g mask="url(#mask2_2202_436)">
<path d="M62.3159 37.4566L24.7162 63.9739L2.07129 20.1566L39.671 -6.3606L62.3159 37.4566Z" fill="url(#paint2_linear_2202_436)"/>
</g>
<defs>
<linearGradient id="paint0_linear_2202_436" x1="-884.092" y1="-1180.22" x2="-873.747" y2="-1166.51" gradientUnits="userSpaceOnUse">
<stop stop-color="#2B92B9"/>
<stop offset="1" stop-color="#72C489"/>
</linearGradient>
<linearGradient id="paint1_linear_2202_436" x1="-984.688" y1="-2485.21" x2="-976.679" y2="-2465.07" gradientUnits="userSpaceOnUse">
<stop stop-color="#4F78BC"/>
<stop offset="0.53" stop-color="#54A8DD"/>
<stop offset="1" stop-color="#72C489"/>
</linearGradient>
<linearGradient id="paint2_linear_2202_436" x1="1221.62" y1="-811.741" x2="1207.87" y2="-802.042" gradientUnits="userSpaceOnUse">
<stop stop-color="#3C60AC"/>
<stop offset="1" stop-color="#4978BC"/>
</linearGradient>
</defs>
</svg>
