<svg width="175" height="26" viewBox="0 0 175 26" fill="none" xmlns="http://www.w3.org/2000/svg">
<path d="M6.64994 7.03098C6.5287 6.54276 6.55809 6.02604 6.62422 5.75521C6.7969 4.98191 7.33698 4.11952 8.91313 4.11952C10.3754 4.11952 11.2388 5.00329 11.2388 6.32182V7.82209H17.4772V6.1187C17.4772 0.841009 12.5688 0 9.03437 0C4.58883 0 0.958915 1.429 0.293921 5.39172C0.113895 6.47862 0.0808289 7.43723 0.345357 8.6631C1.42919 13.6236 10.3203 15.0598 11.6135 18.1993C11.856 18.7837 11.7825 19.5321 11.6613 19.9918C11.4555 20.8078 10.8897 21.631 9.21807 21.631C7.65662 21.631 6.71975 20.7473 6.71975 19.4216L6.7124 17.0874H0V18.9441C0 24.3679 4.39411 26 9.09315 26C13.7922 26 17.3266 24.5069 17.9291 20.4444C18.2304 18.3525 18.0026 16.9877 17.9034 16.4709C16.849 11.3786 7.35902 9.87116 6.64627 7.03098H6.64994ZM88.0107 7.09156C87.9005 6.61047 87.9299 6.10444 87.9886 5.83717C88.1687 5.06031 88.7051 4.21217 90.2555 4.21217C91.6994 4.21217 92.5481 5.08525 92.5481 6.39666V7.87911H98.7167V6.1864C98.7167 0.958608 93.8854 0.135417 90.3841 0.135417C85.979 0.135417 82.3784 1.54304 81.7208 5.47725C81.5481 6.54633 81.504 7.49781 81.7796 8.70943C82.8524 13.6129 91.6553 15.0384 92.9338 18.1387C93.158 18.7267 93.0955 19.4751 92.9816 19.9169C92.7906 20.7259 92.2321 21.5348 90.5715 21.5348C89.0137 21.5348 88.0768 20.6653 88.0768 19.3575V17.0269H81.4379V18.8764C81.4379 24.2396 85.7695 25.8575 90.4355 25.8575C95.1015 25.8575 98.5955 24.375 99.187 20.3624C99.4699 18.2884 99.2568 16.9378 99.1429 16.4282C98.1068 11.3964 88.7234 9.88542 88.0144 7.07374L88.0107 7.09156ZM144.818 20.3125L138.925 0.776864H129.641V24.7884H135.784L135.427 4.62555L141.754 24.7884H150.656V0.776864H144.476L144.818 20.3125ZM26.7835 0.776864L22.1506 25.0414H28.907L32.401 2.57648L35.8105 25.0414H42.5229L37.9083 0.776864H26.7871H26.7835ZM64.5706 0.776864L61.4146 19.7459L58.2586 0.776864H48.0523L47.5122 25.0414H53.7653L53.9343 2.57648L58.2366 25.0414H64.5816L68.8875 2.57648L69.0565 25.0414H75.3244L74.7659 0.776864H64.5706ZM122.704 0.776864H116.378V18.7267C116.389 19.0403 116.378 19.3895 116.323 19.6497C116.19 20.2519 115.665 21.4137 113.92 21.4137C112.175 21.4137 111.657 20.2555 111.535 19.6497C111.473 19.3931 111.466 19.0403 111.473 18.7267V0.776864H105.146V18.1708C105.139 18.6198 105.176 19.5356 105.201 19.7744C105.639 24.3073 109.32 25.7791 113.92 25.7791C118.52 25.7791 122.208 24.3073 122.653 19.7744C122.69 19.5356 122.734 18.6198 122.708 18.1708V0.776864H122.704ZM166.146 11.4213V14.96H168.71V18.4701C168.717 18.7837 168.699 19.1223 168.644 19.3931C168.541 20.0488 167.902 21.1642 166.08 21.1642C164.257 21.1642 163.64 20.0488 163.53 19.3931C163.482 19.1223 163.464 18.7837 163.464 18.4701V7.38021C163.464 6.98821 163.489 6.56058 163.578 6.23273C163.702 5.64117 164.243 4.47588 166.065 4.47588C167.979 4.47588 168.457 5.70532 168.567 6.23273C168.64 6.58196 168.644 7.16996 168.644 7.16996V8.517H174.945V7.72231C174.945 7.72231 174.974 6.892 174.897 6.11513C174.423 1.56442 170.558 0.124727 166.124 0.124727C161.689 0.124727 157.894 1.57867 157.343 6.11513C157.291 6.52851 157.218 7.27686 157.218 7.72231V17.9249C157.218 18.3703 157.233 18.7124 157.317 19.5249C157.729 23.9509 161.682 25.5189 166.109 25.5189C170.536 25.5189 174.489 23.9509 174.908 19.5249C174.982 18.7124 174.989 18.3703 175 17.9249V11.4249H166.149L166.146 11.4213Z" fill="#020617"/>
</svg>
